<svg width="91" height="93" viewBox="0 0 91 93" fill="none" xmlns="http://www.w3.org/2000/svg">
<path fill-rule="evenodd" clip-rule="evenodd" d="M90.9373 46.3782C90.9373 71.9623 70.7129 92.6821 45.6869 92.7935H45.6505H45.3232C44.9594 92.7935 44.632 92.7935 44.2683 92.7935C19.7152 92.1252 0 71.6281 0 46.3782C0 21.1283 19.7152 0.631249 44.2683 0H45.3232H45.6142H45.6505C70.7129 0.0742645 90.9373 20.8312 90.9373 46.3782Z" fill="url(#paint0_linear_302_8)"/>
<g clip-path="url(#clip0_302_8)">
<path d="M33.5 36.6336V28.9774C33.5 28.535 33.55 28.1097 33.6667 27.7014H28.9167C27.3167 27.7014 26 29.0455 26 30.6788V38.3349C26 39.9682 27.3167 41.3123 28.9167 41.3123H29.5333L31.6667 44.2046C31.9 44.5109 32.25 44.698 32.6167 44.715H32.6667C33.0333 44.715 33.3667 44.5619 33.6 44.2727L36.1 41.3634C34.55 40.3766 33.5 38.6242 33.5 36.6336V36.6336Z" fill="white"/>
<path d="M63.0834 27.7014H58.3334C58.45 28.1097 58.5 28.535 58.5 28.9774V36.6336C58.5 38.6242 57.45 40.3766 55.9 41.3634L58.4 44.2727C58.6334 44.5619 58.9667 44.715 59.3334 44.715H59.3834C59.75 44.698 60.1 44.5109 60.3334 44.2046L62.45 41.3123H63.0834C64.6834 41.3123 66 39.9682 66 38.3349V30.6788C66 29.0455 64.6834 27.7014 63.0834 27.7014V27.7014Z" fill="white"/>
<path d="M46 43.0137C45.985 43.0137 45.9683 43.0137 45.9533 43.0137C45.5767 42.9984 45.2267 42.8112 45 42.5033L42.875 39.6109H38.9167C37.3083 39.6109 36 38.2754 36 36.6335V28.9774C36 27.3356 37.3083 26 38.9167 26H53.0833C54.6917 26 56 27.3356 56 28.9774V36.6335C56 38.2754 54.6917 39.6109 53.0833 39.6109H49.4833L46.94 42.5781C46.7033 42.8555 46.36 43.0137 46 43.0137Z" fill="white"/>
<path d="M32.6667 54.9233C34.5077 54.9233 36 53.3998 36 51.5205C36 49.6412 34.5077 48.1178 32.6667 48.1178C30.8258 48.1178 29.3334 49.6412 29.3334 51.5205C29.3334 53.3998 30.8258 54.9233 32.6667 54.9233Z" fill="white"/>
<path d="M37.1167 57.3052C35.4333 58.5982 34.3333 60.6739 34.3333 63.0047V63.4301H27.25C26.5667 63.4301 26 62.8516 26 62.1541V61.3034C26 58.7173 28.05 56.6246 30.5833 56.6246H34.75C35.6167 56.6246 36.4333 56.8798 37.1167 57.3052Z" fill="white"/>
<path d="M59.3333 54.9233C61.1743 54.9233 62.6667 53.3998 62.6667 51.5205C62.6667 49.6412 61.1743 48.1178 59.3333 48.1178C57.4924 48.1178 56 49.6412 56 51.5205C56 53.3998 57.4924 54.9233 59.3333 54.9233Z" fill="white"/>
<path d="M66 61.3034V62.1541C66 62.8516 65.4333 63.4301 64.75 63.4301H57.6666V63.0047C57.6666 60.6739 56.5666 58.5982 54.8833 57.3052C55.5666 56.8798 56.3833 56.6246 57.25 56.6246H61.4166C63.95 56.6246 66 58.7173 66 61.3034Z" fill="white"/>
<path d="M46 55.7739C48.7614 55.7739 51 53.4888 51 50.6698C51 47.8509 48.7614 45.5657 46 45.5657C43.2386 45.5657 41 47.8509 41 50.6698C41 53.4888 43.2386 55.7739 46 55.7739Z" fill="white"/>
<path d="M50.5834 58.326H41.4167C38.8884 58.326 36.8334 60.4238 36.8334 63.0048V65.5568C36.8334 66.2612 37.3934 66.8328 38.0834 66.8328H53.9167C54.6067 66.8328 55.1667 66.2612 55.1667 65.5568V63.0048C55.1667 60.4238 53.1117 58.326 50.5834 58.326Z" fill="white"/>
</g>
<defs>
<linearGradient id="paint0_linear_302_8" x1="45.4687" y1="0" x2="45.4687" y2="92.7935" gradientUnits="userSpaceOnUse">
<stop stop-color="#BD5CF4"/>
<stop offset="1" stop-color="#2A129C"/>
</linearGradient>
<clipPath id="clip0_302_8">
<rect width="40" height="40.8328" fill="white" transform="translate(26 26)"/>
</clipPath>
</defs>
</svg>
