<svg width="129" height="132" viewBox="0 0 129 132" fill="none" xmlns="http://www.w3.org/2000/svg">
<path fill-rule="evenodd" clip-rule="evenodd" d="M128.67 66.0189C128.67 102.03 100.203 131.195 64.9776 131.351H64.9264H64.4656C63.9536 131.351 63.4928 131.351 62.9808 131.351C28.4208 130.411 0.67041 101.56 0.67041 66.0189C0.67041 30.478 28.4208 1.62717 62.9808 0.738647H64.4656H64.8752H64.9264C100.203 0.843179 128.67 30.0599 128.67 66.0189Z" fill="url(#paint0_linear_1098_1629)"/>
<g clip-path="url(#clip0_1098_1629)">
<path d="M47.8238 52.3027V41.5262C47.8238 40.9035 47.8942 40.3049 48.0584 39.7301H41.3725C39.1204 39.7301 37.2671 41.622 37.2671 43.921V54.6975C37.2671 56.9965 39.1204 58.8884 41.3725 58.8884H42.2404L45.2433 62.9595C45.5717 63.3906 46.0643 63.654 46.5804 63.6779H46.6508C47.1669 63.6779 47.6361 63.4624 47.9645 63.0553L51.4834 58.9602C49.3017 57.5712 47.8238 55.1046 47.8238 52.3027Z" fill="white"/>
<path d="M89.4642 39.7301H82.7783C82.9425 40.3049 83.0129 40.9035 83.0129 41.5262V52.3027C83.0129 55.1046 81.5349 57.5712 79.3532 58.9602L82.8721 63.0553C83.2005 63.4624 83.6697 63.6779 84.1858 63.6779H84.2562C84.7723 63.654 85.265 63.3906 85.5934 62.9595L88.5728 58.8884H89.4642C91.7163 58.8884 93.5696 56.9965 93.5696 54.6975V43.921C93.5696 41.622 91.7163 39.7301 89.4642 39.7301Z" fill="white"/>
<path d="M65.4183 61.2832C65.3972 61.2832 65.3737 61.2832 65.3526 61.2832C64.8224 61.2616 64.3298 60.9982 64.0107 60.5647L61.0197 56.4936H55.4481C53.1842 56.4936 51.3427 54.6137 51.3427 52.3027V41.5262C51.3427 39.2152 53.1842 37.3353 55.4481 37.3353H75.3886C77.6524 37.3353 79.4939 39.2152 79.4939 41.5262V52.3027C79.4939 54.6137 77.6524 56.4936 75.3886 56.4936H70.3213L66.7414 60.6701C66.4083 61.0604 65.925 61.2832 65.4183 61.2832Z" fill="white"/>
<path d="M46.6508 78.0467C49.2421 78.0467 51.3427 75.9023 51.3427 73.2571C51.3427 70.6119 49.2421 68.4675 46.6508 68.4675C44.0595 68.4675 41.9589 70.6119 41.9589 73.2571C41.9589 75.9023 44.0595 78.0467 46.6508 78.0467Z" fill="white"/>
<path d="M52.9145 81.3993C50.5451 83.2194 48.9968 86.141 48.9968 89.4218V90.0205H39.0265C38.0647 90.0205 37.2671 89.2063 37.2671 88.2244V87.0271C37.2671 83.387 40.1526 80.4414 43.7184 80.4414H49.5832C50.8031 80.4414 51.9526 80.8006 52.9145 81.3993Z" fill="white"/>
<path d="M84.1858 78.0467C86.7771 78.0467 88.8777 75.9023 88.8777 73.2571C88.8777 70.6119 86.7771 68.4675 84.1858 68.4675C81.5946 68.4675 79.494 70.6119 79.494 73.2571C79.494 75.9023 81.5946 78.0467 84.1858 78.0467Z" fill="white"/>
<path d="M93.5696 87.0271V88.2244C93.5696 89.2063 92.772 90.0205 91.8101 90.0205H81.8399V89.4218C81.8399 86.141 80.2916 83.2194 77.9222 81.3993C78.884 80.8006 80.0335 80.4414 81.2534 80.4414H87.1183C90.6841 80.4414 93.5696 83.387 93.5696 87.0271Z" fill="white"/>
<path d="M65.4183 79.2441C69.3052 79.2441 72.4561 76.0275 72.4561 72.0597C72.4561 68.0919 69.3052 64.8754 65.4183 64.8754C61.5314 64.8754 58.3805 68.0919 58.3805 72.0597C58.3805 76.0275 61.5314 79.2441 65.4183 79.2441Z" fill="white"/>
<path d="M71.8696 82.8362H58.967C55.4082 82.8362 52.5157 85.7889 52.5157 89.4218V93.014C52.5157 94.0054 53.3039 94.8101 54.2751 94.8101H76.5615C77.5327 94.8101 78.321 94.0054 78.321 93.014V89.4218C78.321 85.7889 75.4284 82.8362 71.8696 82.8362Z" fill="white"/>
</g>
<defs>
<linearGradient id="paint0_linear_1098_1629" x1="64.6704" y1="0.738647" x2="64.6704" y2="131.351" gradientUnits="userSpaceOnUse">
<stop stop-color="#BD5CF4"/>
<stop offset="1" stop-color="#2A129C"/>
</linearGradient>
<clipPath id="clip0_1098_1629">
<rect width="56.3025" height="57.4748" fill="white" transform="translate(37.2671 37.3353)"/>
</clipPath>
</defs>
</svg>
