<svg width="7" height="6" viewBox="0 0 7 6" fill="none" xmlns="http://www.w3.org/2000/svg">
<g clip-path="url(#clip0_1367_1243)">
<path d="M3.05105 0.125565C2.88363 -0.041855 2.61174 -0.041855 2.44432 0.125565L0.301346 2.26854C0.133926 2.43596 0.133926 2.70785 0.301346 2.87527C0.468766 3.04269 0.740657 3.04269 0.908077 2.87527L2.31976 1.46225V5.5714C2.31976 5.80847 2.51129 6 2.74836 6C2.98542 6 3.17695 5.80847 3.17695 5.5714V1.46225L4.58864 2.87393C4.75606 3.04135 5.02795 3.04135 5.19537 2.87393C5.36279 2.70651 5.36279 2.43462 5.19537 2.2672L3.05239 0.124226L3.05105 0.125565Z" fill="#5CB1FF"/>
</g>
<defs>
<clipPath id="clip0_1367_1243">
<rect width="6.00195" height="6" fill="white" transform="translate(0.175781)"/>
</clipPath>
</defs>
</svg>
