<svg width="8" height="11" viewBox="0 0 8 11" fill="none" xmlns="http://www.w3.org/2000/svg">
<path d="M5.96873 1.54626C6.07973 1.29001 5.99708 0.990777 5.76946 0.82617C5.5421 0.66159 5.23183 0.676539 5.01919 0.859847L0.205667 5.04934C0.01763 5.21395 -0.0500417 5.47764 0.0384933 5.70958C0.126761 5.94149 0.352245 6.09859 0.602336 6.09859H2.69909L1.2531 9.45393C1.1421 9.71018 1.22475 10.0094 1.45237 10.174C1.67973 10.3386 1.99 10.3237 2.20264 10.1403L7.01617 5.95085C7.2042 5.78624 7.27187 5.52255 7.18334 5.29061C7.09507 5.05871 6.87146 4.90346 6.6195 4.90346H4.52274L5.96873 1.54626Z" fill="#0A0641"/>
</svg>
