<svg width="33" height="34" viewBox="0 0 33 34" fill="none" xmlns="http://www.w3.org/2000/svg">
<circle cx="16" cy="16" r="15.5" stroke="#CFD7E7"/>
<path d="M22.9261 9.19565C22.9204 9.16802 22.907 9.14258 22.8873 9.12232C22.8677 9.10206 22.8427 9.08783 22.8152 9.08128C20.9849 8.63378 16.7558 10.2285 14.4646 12.5188C14.0559 12.9241 13.6834 13.3643 13.3511 13.8344C12.6446 13.7719 11.938 13.8241 11.3358 14.0866C9.63677 14.8344 9.14208 16.7857 9.00427 17.625C8.99645 17.671 8.9994 17.7181 9.01288 17.7627C9.02636 17.8073 9.05001 17.8482 9.08197 17.8821C9.11392 17.916 9.15331 17.9421 9.19703 17.9582C9.24076 17.9743 9.28763 17.9801 9.33396 17.975L12.0624 17.6741C12.0643 17.8798 12.0768 18.0853 12.0996 18.2897C12.1133 18.4317 12.1763 18.5644 12.2777 18.6647L13.3343 19.7188C13.4347 19.82 13.5673 19.883 13.7093 19.8969C13.9126 19.9196 14.1169 19.9321 14.3215 19.9341L14.0221 22.6591C14.0171 22.7054 14.0229 22.7522 14.039 22.7959C14.0552 22.8396 14.0812 22.879 14.1151 22.9109C14.149 22.9429 14.1899 22.9665 14.2345 22.98C14.279 22.9935 14.3261 22.9965 14.3721 22.9888C15.2099 22.8544 17.1646 22.3597 17.908 20.6607C18.1705 20.0585 18.2243 19.3553 18.1636 18.6522C18.6348 18.32 19.0762 17.9473 19.4827 17.5385C21.7811 15.2516 23.3668 11.1169 22.9261 9.19565ZM17.1896 14.8103C16.9797 14.6006 16.8367 14.3333 16.7788 14.0423C16.7208 13.7513 16.7505 13.4497 16.864 13.1755C16.9775 12.9014 17.1697 12.6671 17.4164 12.5022C17.6631 12.3373 17.9532 12.2493 18.2499 12.2493C18.5466 12.2493 18.8367 12.3373 19.0834 12.5022C19.33 12.6671 19.5223 12.9014 19.6358 13.1755C19.7493 13.4497 19.779 13.7513 19.721 14.0423C19.663 14.3333 19.5201 14.6006 19.3102 14.8103C19.171 14.9497 19.0058 15.0603 18.8238 15.1357C18.6419 15.2112 18.4469 15.25 18.2499 15.25C18.0529 15.25 17.8579 15.2112 17.676 15.1357C17.494 15.0603 17.3288 14.9497 17.1896 14.8103Z" fill="#CFD7E7"/>
<path d="M13.2625 20.4822C13.0912 20.6538 12.8166 20.7206 12.4859 20.7778C11.7431 20.9044 11.0872 20.2625 11.2206 19.5116C11.2716 19.2269 11.4222 18.8278 11.5159 18.7341C11.5364 18.714 11.5501 18.6879 11.5549 18.6596C11.5598 18.6314 11.5556 18.6023 11.543 18.5765C11.5303 18.5507 11.5099 18.5296 11.4846 18.5161C11.4592 18.5026 11.4303 18.4974 11.4019 18.5013C10.9865 18.5521 10.6 18.7404 10.3041 19.0363C9.56938 19.7716 9.5 22.5 9.5 22.5C9.5 22.5 12.23 22.4306 12.9647 21.6953C13.2615 21.3996 13.45 21.0125 13.5 20.5966C13.5116 20.4659 13.3525 20.3881 13.2625 20.4822Z" fill="#CFD7E7"/>
<rect x="22" y="23" width="10" height="10" rx="5" fill="#D66464"/>
<rect x="22" y="23" width="10" height="10" rx="5" stroke="white" stroke-width="2"/>
<path d="M28 27L26 29M26 27L28 29" stroke="white" stroke-width="0.555833" stroke-linecap="round" stroke-linejoin="round"/>
</svg>
