<svg width="33" height="34" viewBox="0 0 33 34" fill="none" xmlns="http://www.w3.org/2000/svg">
<rect opacity="0.1" width="32" height="32" rx="16" fill="url(#paint0_linear_1157_1061)"/>
<path d="M14.6695 12.9185C14.3945 12.3592 13.5977 12.3592 13.3227 12.9185L11.8759 15.8559L8.64166 16.3277C8.02919 16.4152 7.78233 17.1714 8.22606 17.6058L10.5666 19.8932L10.0166 23.1211C9.91034 23.7336 10.5541 24.2023 11.104 23.9117L13.9976 22.3868L16.8912 23.9117C17.4412 24.2023 18.0849 23.7336 17.9787 23.1211L17.4256 19.8932L19.7661 17.6058C20.2098 17.1714 19.9661 16.4152 19.3505 16.3277L16.1163 15.8559L14.6695 12.9185Z" fill="url(#paint1_linear_1157_1061)"/>
<path d="M17.7499 11.2498L18.1811 12.7591C18.2218 12.9029 18.353 12.9997 18.4999 12.9997C18.6467 12.9997 18.778 12.9029 18.8186 12.7591L19.2498 11.2498L20.7591 10.8186C20.9029 10.778 20.9997 10.6467 20.9997 10.4999C20.9997 10.353 20.9029 10.2218 20.7591 10.1811L19.2498 9.74991L18.8186 8.24061C18.778 8.09687 18.6467 8 18.4999 8C18.353 8 18.2218 8.09687 18.1811 8.24061L17.7499 9.74991L16.2406 10.1811C16.0969 10.2218 16 10.353 16 10.4999C16 10.6467 16.0969 10.778 16.2406 10.8186L17.7499 11.2498ZM21.3997 15.5996L21.7434 16.8058C21.7747 16.9183 21.8809 16.9995 21.9997 16.9995C22.1184 16.9995 22.2216 16.9214 22.2559 16.8058L22.5997 15.5996L23.8058 15.2559C23.9183 15.2246 23.9996 15.1184 23.9996 14.9996C23.9996 14.8809 23.9215 14.7778 23.8058 14.7434L22.5997 14.3997L22.2559 13.1935C22.2247 13.081 22.1184 12.9997 21.9997 12.9997C21.8809 12.9997 21.7778 13.0779 21.7434 13.1935L21.3997 14.3997L20.1935 14.7434C20.081 14.7746 19.9998 14.8809 19.9998 14.9996C19.9998 15.1184 20.0779 15.2215 20.1935 15.2559L21.3997 15.5996Z" fill="url(#paint2_linear_1157_1061)"/>
<rect x="22" y="23" width="10" height="10" rx="5" fill="#4E8EEA"/>
<rect x="22" y="23" width="10" height="10" rx="5" stroke="white" stroke-width="2"/>
<path d="M29.0926 26.4468C29.1728 26.5227 29.2197 26.6273 29.2228 26.7378C29.2259 26.8482 29.1851 26.9553 29.1092 27.0357L26.7481 29.5357C26.7098 29.5761 26.6639 29.6085 26.6129 29.6308C26.5619 29.6532 26.5069 29.6651 26.4513 29.6659C26.3956 29.6667 26.3403 29.6563 26.2887 29.6354C26.2371 29.6144 26.1903 29.5833 26.1509 29.544L24.9009 28.294C24.8273 28.215 24.7872 28.1105 24.7891 28.0026C24.791 27.8946 24.8348 27.7917 24.9111 27.7153C24.9874 27.639 25.0904 27.5952 25.1984 27.5933C25.3063 27.5914 25.4108 27.6315 25.4898 27.7051L26.437 28.6518L28.5037 26.4634C28.5796 26.3832 28.6842 26.3363 28.7947 26.3332C28.9051 26.33 29.0122 26.3709 29.0926 26.4468Z" fill="white"/>
<defs>
<linearGradient id="paint0_linear_1157_1061" x1="3.08455e-06" y1="39.0533" x2="37.0596" y2="33.4472" gradientUnits="userSpaceOnUse">
<stop stop-color="#59A8E3"/>
<stop offset="1" stop-color="#4273F0"/>
</linearGradient>
<linearGradient id="paint1_linear_1157_1061" x1="8" y1="26.535" x2="21.862" y2="24.3484" gradientUnits="userSpaceOnUse">
<stop stop-color="#59A8E3"/>
<stop offset="1" stop-color="#4273F0"/>
</linearGradient>
<linearGradient id="paint2_linear_1157_1061" x1="16" y1="18.9832" x2="25.3081" y2="17.7315" gradientUnits="userSpaceOnUse">
<stop stop-color="#59A8E3"/>
<stop offset="1" stop-color="#4273F0"/>
</linearGradient>
</defs>
</svg>
