<svg width="33" height="34" viewBox="0 0 33 34" fill="none" xmlns="http://www.w3.org/2000/svg">
<rect x="0.5" y="0.5" width="31" height="31" rx="15.5" stroke="#CFD7E7"/>
<path d="M14.6695 12.9185C14.3945 12.3592 13.5977 12.3592 13.3227 12.9185L11.8759 15.8559L8.64166 16.3277C8.02919 16.4152 7.78233 17.1714 8.22606 17.6058L10.5666 19.8932L10.0166 23.1211C9.91034 23.7336 10.5541 24.2023 11.104 23.9117L13.9976 22.3868L16.8912 23.9117C17.4412 24.2023 18.0849 23.7336 17.9787 23.1211L17.4256 19.8932L19.7661 17.6058C20.2098 17.1714 19.9661 16.4152 19.3505 16.3277L16.1163 15.8559L14.6695 12.9185Z" fill="#CFD7E7"/>
<path d="M17.7499 11.2498L18.1811 12.7591C18.2218 12.9029 18.353 12.9997 18.4999 12.9997C18.6467 12.9997 18.778 12.9029 18.8186 12.7591L19.2498 11.2498L20.7591 10.8186C20.9029 10.778 20.9997 10.6467 20.9997 10.4999C20.9997 10.353 20.9029 10.2218 20.7591 10.1811L19.2498 9.74991L18.8186 8.24061C18.778 8.09687 18.6467 8 18.4999 8C18.353 8 18.2218 8.09687 18.1811 8.24061L17.7499 9.74991L16.2406 10.1811C16.0969 10.2218 16 10.353 16 10.4999C16 10.6467 16.0969 10.778 16.2406 10.8186L17.7499 11.2498ZM21.3997 15.5996L21.7434 16.8058C21.7747 16.9183 21.8809 16.9995 21.9997 16.9995C22.1184 16.9995 22.2216 16.9214 22.2559 16.8058L22.5997 15.5996L23.8058 15.2559C23.9183 15.2246 23.9996 15.1184 23.9996 14.9996C23.9996 14.8809 23.9215 14.7778 23.8058 14.7434L22.5997 14.3997L22.2559 13.1935C22.2247 13.081 22.1184 12.9997 21.9997 12.9997C21.8809 12.9997 21.7778 13.0779 21.7434 13.1935L21.3997 14.3997L20.1935 14.7434C20.081 14.7746 19.9998 14.8809 19.9998 14.9996C19.9998 15.1184 20.0779 15.2215 20.1935 15.2559L21.3997 15.5996Z" fill="#CFD7E7"/>
<rect x="22" y="23" width="10" height="10" rx="5" fill="#D66464"/>
<rect x="22" y="23" width="10" height="10" rx="5" stroke="white" stroke-width="2"/>
<path d="M28 27L26 29M26 27L28 29" stroke="white" stroke-width="0.555833" stroke-linecap="round" stroke-linejoin="round"/>
</svg>
