<svg width="33" height="34" viewBox="0 0 33 34" fill="none" xmlns="http://www.w3.org/2000/svg">
<rect opacity="0.1" width="32" height="32" rx="16" fill="#C74FFF"/>
<g clip-path="url(#clip0_1157_1062)">
<path fill-rule="evenodd" clip-rule="evenodd" d="M8.14053 8.1728C8.19044 8.1184 8.2511 8.07495 8.31866 8.0452C8.38623 8.01546 8.45924 8.00007 8.53307 8H23.4664C23.5402 8.00003 23.6132 8.01538 23.6807 8.04507C23.7483 8.07476 23.809 8.11815 23.8589 8.17249C23.9088 8.22683 23.9469 8.29094 23.9708 8.36076C23.9947 8.43058 24.0038 8.5046 23.9976 8.57813L22.9309 21.2885C22.9221 21.3924 22.8831 21.4914 22.8186 21.5732C22.7542 21.6551 22.6671 21.7164 22.5683 21.7493L16.1683 23.8827C16.0589 23.9191 15.9406 23.9191 15.8312 23.8827L9.4312 21.7493C9.33234 21.7164 9.24531 21.6551 9.18085 21.5732C9.1164 21.4914 9.07735 21.3924 9.06853 21.2885L8.00187 8.57813C7.9957 8.50466 8.00485 8.4307 8.02871 8.36093C8.05258 8.29117 8.09065 8.22711 8.14053 8.1728ZM19.7331 11.2H12.2664V12.2667H18.6664V14.4H14.3997V15.4667H18.6664V17.7493L15.9997 18.6379L13.3331 17.7493V16.5333H12.2664V18.5173L15.9997 19.7621L19.7331 18.5173V11.2Z" fill="#C74FFF"/>
</g>
<rect x="22" y="23" width="10" height="10" rx="5" fill="#C74FFF"/>
<rect x="22" y="23" width="10" height="10" rx="5" stroke="white" stroke-width="2"/>
<path d="M29.0926 26.4468C29.1728 26.5227 29.2197 26.6273 29.2228 26.7378C29.2259 26.8482 29.1851 26.9553 29.1092 27.0357L26.7481 29.5357C26.7098 29.5761 26.6639 29.6085 26.6129 29.6308C26.5619 29.6532 26.5069 29.6651 26.4513 29.6659C26.3956 29.6667 26.3403 29.6563 26.2887 29.6354C26.2371 29.6144 26.1903 29.5833 26.1509 29.544L24.9009 28.294C24.8273 28.215 24.7872 28.1105 24.7891 28.0026C24.791 27.8946 24.8348 27.7917 24.9111 27.7153C24.9874 27.639 25.0904 27.5952 25.1984 27.5933C25.3063 27.5914 25.4108 27.6315 25.4898 27.7051L26.437 28.6518L28.5037 26.4634C28.5796 26.3832 28.6842 26.3363 28.7947 26.3332C28.9051 26.33 29.0122 26.3709 29.0926 26.4468Z" fill="white"/>
<defs>
<clipPath id="clip0_1157_1062">
<rect width="16" height="16" fill="white" transform="translate(8 8)"/>
</clipPath>
</defs>
</svg>
