<svg width="33" height="34" viewBox="0 0 33 34" fill="none" xmlns="http://www.w3.org/2000/svg">
<rect x="0.5" y="0.5" width="31" height="31" rx="15.5" stroke="#CFD7E7"/>
<g clip-path="url(#clip0_1171_21)">
<path fill-rule="evenodd" clip-rule="evenodd" d="M8.14053 8.1728C8.19044 8.1184 8.2511 8.07495 8.31866 8.0452C8.38623 8.01546 8.45924 8.00007 8.53307 8H23.4664C23.5402 8.00003 23.6132 8.01538 23.6807 8.04507C23.7483 8.07476 23.809 8.11815 23.8589 8.17249C23.9088 8.22683 23.9469 8.29094 23.9708 8.36076C23.9947 8.43058 24.0038 8.5046 23.9976 8.57813L22.9309 21.2885C22.9221 21.3924 22.8831 21.4914 22.8186 21.5732C22.7542 21.6551 22.6671 21.7164 22.5683 21.7493L16.1683 23.8827C16.0589 23.9191 15.9406 23.9191 15.8312 23.8827L9.4312 21.7493C9.33234 21.7164 9.24531 21.6551 9.18085 21.5732C9.1164 21.4914 9.07735 21.3924 9.06853 21.2885L8.00187 8.57813C7.9957 8.50466 8.00485 8.4307 8.02871 8.36093C8.05258 8.29117 8.09065 8.22711 8.14053 8.1728ZM19.7331 11.2H12.2664V12.2667H18.6664V14.4H14.3997V15.4667H18.6664V17.7493L15.9997 18.6379L13.3331 17.7493V16.5333H12.2664V18.5173L15.9997 19.7621L19.7331 18.5173V11.2Z" fill="#CFD7E7"/>
</g>
<rect x="22" y="23" width="10" height="10" rx="5" fill="#D66464"/>
<rect x="22" y="23" width="10" height="10" rx="5" stroke="white" stroke-width="2"/>
<path d="M28 27L26 29M26 27L28 29" stroke="white" stroke-width="0.555833" stroke-linecap="round" stroke-linejoin="round"/>
<defs>
<clipPath id="clip0_1171_21">
<rect width="16" height="16" fill="white" transform="translate(8 8)"/>
</clipPath>
</defs>
</svg>
