<svg width="33" height="34" viewBox="0 0 33 34" fill="none" xmlns="http://www.w3.org/2000/svg">
<path d="M8 11C8 9.89688 8.89688 9 10 9H22C23.1031 9 24 9.89688 24 11V21C24 22.1031 23.1031 23 22 23H10C8.89688 23 8 22.1031 8 21V11ZM18.1187 14.3281C17.9781 14.1219 17.7469 14 17.5 14C17.2531 14 17.0188 14.1219 16.8813 14.3281L14.1625 18.3156L13.3344 17.2812C13.1906 17.1031 12.975 17 12.75 17C12.525 17 12.3063 17.1031 12.1656 17.2812L10.1656 19.7812C9.98438 20.0063 9.95 20.3156 10.075 20.575C10.2 20.8344 10.4625 21 10.75 21H21.25C21.5281 21 21.7844 20.8469 21.9125 20.6C22.0406 20.3531 22.025 20.0562 21.8687 19.8281L18.1187 14.3281ZM11.5 14C11.8978 14 12.2794 13.842 12.5607 13.5607C12.842 13.2794 13 12.8978 13 12.5C13 12.1022 12.842 11.7206 12.5607 11.4393C12.2794 11.158 11.8978 11 11.5 11C11.1022 11 10.7206 11.158 10.4393 11.4393C10.158 11.7206 10 12.1022 10 12.5C10 12.8978 10.158 13.2794 10.4393 13.5607C10.7206 13.842 11.1022 14 11.5 14Z" fill="#FFB94F"/>
<circle opacity="0.1" cx="16" cy="16" r="16" fill="#FDB84F"/>
<rect x="22" y="23" width="10" height="10" rx="5" fill="#FFB94F"/>
<rect x="22" y="23" width="10" height="10" rx="5" stroke="white" stroke-width="2"/>
<path d="M29.0926 26.4468C29.1728 26.5227 29.2197 26.6273 29.2228 26.7378C29.2259 26.8482 29.1851 26.9553 29.1092 27.0357L26.7481 29.5357C26.7098 29.5761 26.6639 29.6085 26.6129 29.6308C26.5619 29.6532 26.5069 29.6651 26.4513 29.6659C26.3956 29.6667 26.3403 29.6563 26.2887 29.6354C26.2371 29.6144 26.1903 29.5833 26.1509 29.544L24.9009 28.294C24.8273 28.215 24.7872 28.1105 24.7891 28.0026C24.791 27.8946 24.8348 27.7917 24.9111 27.7153C24.9874 27.639 25.0904 27.5952 25.1984 27.5933C25.3063 27.5914 25.4108 27.6315 25.4898 27.7051L26.437 28.6518L28.5037 26.4634C28.5796 26.3832 28.6842 26.3363 28.7947 26.3332C28.9051 26.33 29.0122 26.3709 29.0926 26.4468Z" fill="white"/>
</svg>
