<svg width="33" height="34" viewBox="0 0 33 34" fill="none" xmlns="http://www.w3.org/2000/svg">
<path d="M8 11C8 9.89688 8.89688 9 10 9H22C23.1031 9 24 9.89688 24 11V21C24 22.1031 23.1031 23 22 23H10C8.89688 23 8 22.1031 8 21V11ZM18.1187 14.3281C17.9781 14.1219 17.7469 14 17.5 14C17.2531 14 17.0188 14.1219 16.8813 14.3281L14.1625 18.3156L13.3344 17.2812C13.1906 17.1031 12.975 17 12.75 17C12.525 17 12.3063 17.1031 12.1656 17.2812L10.1656 19.7812C9.98438 20.0063 9.95 20.3156 10.075 20.575C10.2 20.8344 10.4625 21 10.75 21H21.25C21.5281 21 21.7844 20.8469 21.9125 20.6C22.0406 20.3531 22.025 20.0562 21.8687 19.8281L18.1187 14.3281ZM11.5 14C11.8978 14 12.2794 13.842 12.5607 13.5607C12.842 13.2794 13 12.8978 13 12.5C13 12.1022 12.842 11.7206 12.5607 11.4393C12.2794 11.158 11.8978 11 11.5 11C11.1022 11 10.7206 11.158 10.4393 11.4393C10.158 11.7206 10 12.1022 10 12.5C10 12.8978 10.158 13.2794 10.4393 13.5607C10.7206 13.842 11.1022 14 11.5 14Z" fill="#FFB94F"/>
<circle opacity="0.1" cx="16" cy="16" r="16" fill="#FDB84F"/>
<rect x="22" y="23" width="10" height="10" rx="5" fill="#CFD7E7"/>
<rect x="22" y="23" width="10" height="10" rx="5" stroke="white" stroke-width="2"/>
<path fill-rule="evenodd" clip-rule="evenodd" d="M25 28.3335C25 28.2451 25.0351 28.1602 25.0977 28.0977C25.1602 28.0351 25.2451 28 25.3335 28H28.6695C28.7579 28 28.8428 28.0351 28.9053 28.0977C28.9679 28.1602 29.003 28.2451 29.003 28.3335C29.003 28.4219 28.9679 28.5068 28.9053 28.5693C28.8428 28.6319 28.7579 28.667 28.6695 28.667H25.3335C25.2451 28.667 25.1602 28.6319 25.0977 28.5693C25.0351 28.5068 25 28.4219 25 28.3335Z" fill="white"/>
</svg>
