<svg width="33" height="34" viewBox="0 0 33 34" fill="none" xmlns="http://www.w3.org/2000/svg">
<rect opacity="0.1" width="32" height="32" rx="16" fill="#22B73A"/>
<path d="M16.0013 13.333V9.33301H12.0013C11.6477 9.33301 11.3085 9.47348 11.0585 9.72353C10.8084 9.97358 10.668 10.3127 10.668 10.6663V17.345C10.9063 17.3106 11.1494 17.3507 11.364 17.4599C11.5787 17.5691 11.7542 17.7421 11.8666 17.955C12.0503 17.7585 12.2725 17.6019 12.5193 17.4948C12.7661 17.3878 13.0323 17.3328 13.3013 17.333H13.368C13.8896 17.333 14.3898 17.5402 14.7586 17.909C15.1274 18.2779 15.3346 18.7781 15.3346 19.2997V19.333C15.3346 19.633 15.2213 19.9063 15.0346 20.113C15.2266 20.4057 15.3346 20.753 15.3346 21.1177V21.3663C15.3346 21.8643 15.1493 22.3197 14.844 22.6663H20.0013C20.3549 22.6663 20.6941 22.5259 20.9441 22.2758C21.1942 22.0258 21.3346 21.6866 21.3346 21.333V14.6663H17.3346C16.981 14.6663 16.6419 14.5259 16.3918 14.2758C16.1418 14.0258 16.0013 13.6866 16.0013 13.333ZM17.0013 13.333V9.66634L21.0013 13.6663H17.3346C17.2462 13.6663 17.1614 13.6312 17.0989 13.5687C17.0364 13.5062 17.0013 13.4214 17.0013 13.333ZM10.8346 17.9997C10.9672 17.9997 11.0944 18.0524 11.1882 18.1461C11.282 18.2399 11.3346 18.3671 11.3346 18.4997V21.333C11.3346 21.6866 11.1942 22.0258 10.9441 22.2758C10.6941 22.5259 10.3549 22.6663 10.0013 22.6663C9.64768 22.6663 9.30854 22.5259 9.05849 22.2758C8.80844 22.0258 8.66797 21.6866 8.66797 21.333V21.1663C8.66797 21.0337 8.72065 20.9066 8.81442 20.8128C8.90818 20.719 9.03536 20.6663 9.16797 20.6663C9.30058 20.6663 9.42775 20.719 9.52152 20.8128C9.61529 20.9066 9.66797 21.0337 9.66797 21.1663V21.333C9.66797 21.4214 9.70309 21.5062 9.7656 21.5687C9.82811 21.6312 9.9129 21.6663 10.0013 21.6663C10.0897 21.6663 10.1745 21.6312 10.237 21.5687C10.2995 21.5062 10.3346 21.4214 10.3346 21.333V18.4997C10.3346 18.3671 10.3873 18.2399 10.4811 18.1461C10.5749 18.0524 10.702 17.9997 10.8346 17.9997ZM13.3013 17.9997C12.9565 17.9997 12.6259 18.1366 12.3821 18.3804C12.1383 18.6242 12.0013 18.9549 12.0013 19.2997V19.4557C12.0013 19.865 12.2166 20.245 12.568 20.4557L13.5873 21.0677C13.6119 21.0825 13.6323 21.1034 13.6464 21.1284C13.6605 21.1534 13.668 21.1816 13.668 21.2103V21.3663C13.668 21.4459 13.6364 21.5222 13.5801 21.5785C13.5238 21.6347 13.4475 21.6663 13.368 21.6663H13.3013C13.2217 21.6663 13.1454 21.6347 13.0892 21.5785C13.0329 21.5222 13.0013 21.4459 13.0013 21.3663V21.333C13.0013 21.2004 12.9486 21.0732 12.8549 20.9795C12.7611 20.8857 12.6339 20.833 12.5013 20.833C12.3687 20.833 12.2415 20.8857 12.1477 20.9795C12.054 21.0732 12.0013 21.2004 12.0013 21.333V21.3663C12.0013 21.7111 12.1383 22.0418 12.3821 22.2856C12.6259 22.5294 12.9565 22.6663 13.3013 22.6663H13.368C13.7128 22.6663 14.0434 22.5294 14.2872 22.2856C14.531 22.0418 14.668 21.7111 14.668 21.3663V21.2103C14.6679 21.0089 14.6156 20.811 14.5163 20.6357C14.417 20.4605 14.274 20.3139 14.1013 20.2103L13.082 19.5983C13.0574 19.5835 13.037 19.5626 13.0229 19.5376C13.0088 19.5126 13.0013 19.4844 13.0013 19.4557V19.2997C13.0013 19.2201 13.0329 19.1438 13.0892 19.0875C13.1454 19.0313 13.2217 18.9997 13.3013 18.9997H13.368C13.4475 18.9997 13.5238 19.0313 13.5801 19.0875C13.6364 19.1438 13.668 19.2201 13.668 19.2997V19.333C13.668 19.4656 13.7206 19.5928 13.8144 19.6866C13.9082 19.7803 14.0354 19.833 14.168 19.833C14.3006 19.833 14.4278 19.7803 14.5215 19.6866C14.6153 19.5928 14.668 19.4656 14.668 19.333V19.2997C14.668 18.9549 14.531 18.6242 14.2872 18.3804C14.0434 18.1366 13.7128 17.9997 13.368 17.9997H13.3013Z" fill="#22B73A"/>
<rect x="22" y="23" width="10" height="10" rx="5" fill="#22B73A"/>
<rect x="22" y="23" width="10" height="10" rx="5" stroke="white" stroke-width="2"/>
<path d="M29.0926 26.4468C29.1728 26.5227 29.2197 26.6273 29.2228 26.7378C29.2259 26.8482 29.1851 26.9553 29.1092 27.0357L26.7481 29.5357C26.7098 29.5761 26.6639 29.6085 26.6129 29.6308C26.5619 29.6532 26.5069 29.6651 26.4513 29.6659C26.3956 29.6667 26.3403 29.6563 26.2887 29.6354C26.2371 29.6144 26.1903 29.5833 26.1509 29.544L24.9009 28.294C24.8273 28.215 24.7872 28.1105 24.7891 28.0026C24.791 27.8946 24.8348 27.7917 24.9111 27.7153C24.9874 27.639 25.0904 27.5952 25.1984 27.5933C25.3063 27.5914 25.4108 27.6315 25.4898 27.7051L26.437 28.6518L28.5037 26.4634C28.5796 26.3832 28.6842 26.3363 28.7947 26.3332C28.9051 26.33 29.0122 26.3709 29.0926 26.4468Z" fill="white"/>
</svg>
