<svg width="80" height="80" viewBox="0 0 80 80" fill="none" xmlns="http://www.w3.org/2000/svg">
<path d="M18.8385 52.7328C16.9833 54.5928 16.9833 57.604 18.8385 59.464L21.9377 62.5704C23.8001 64.4264 26.8129 64.4264 28.6761 62.5704L42.9825 48.264C44.8385 46.4016 44.8385 43.3888 42.9825 41.5256L41.5985 40.1416C40.4065 38.956 40.4009 37.0288 41.5865 35.8368C41.5905 35.8328 41.5945 35.8288 41.5985 35.8248L44.3657 33.0576C45.5513 31.8656 47.4785 31.86 48.6705 33.0456C48.6745 33.0496 48.6785 33.0536 48.6825 33.0576L50.0105 34.3792C52.7905 37.1416 54.3729 40.8864 54.4177 44.8048C54.4513 48.7704 52.8793 52.5808 50.0593 55.3688L35.7609 69.6472C29.9961 75.4184 20.6441 75.424 14.8729 69.6584C14.8689 69.6544 14.8649 69.6504 14.8617 69.6472L11.8385 66.6312C9.05846 63.8664 7.47526 60.1192 7.43126 56.1984C7.40406 52.2552 8.96166 48.4664 11.7553 45.6832L15.7601 41.684C16.9457 40.492 18.8729 40.4865 20.0649 41.6721C20.0689 41.6761 20.0729 41.68 20.0769 41.684L22.8441 44.4512C24.0377 45.64 24.0425 47.572 22.8537 48.7656C22.8505 48.7688 22.8473 48.772 22.8441 48.7752L18.8385 52.7328ZM56.9441 33.576C55.7505 34.7648 55.7457 36.6968 56.9345 37.8904C56.9377 37.8936 56.9409 37.8968 56.9441 37.9L59.7113 40.6672C60.9049 41.856 62.8353 41.856 64.0281 40.6672L68.2481 36.4544C74.0121 30.68 74.0121 21.3288 68.2481 15.5544L65.4185 12.732C59.6537 6.96085 50.3017 6.95525 44.5305 12.7208C44.5265 12.7248 44.5225 12.7288 44.5193 12.732L30.0673 27.1632C24.2961 32.928 24.2905 42.28 30.0561 48.0512C30.0601 48.0552 30.0641 48.0593 30.0673 48.0625L31.4993 49.5016C32.6929 50.6904 34.6233 50.6904 35.8161 49.5016L38.5833 46.7344C39.7729 45.5384 39.7729 43.6064 38.5833 42.4104L37.1441 40.9784C35.2881 39.116 35.2881 36.1032 37.1441 34.24L51.5889 19.8016C53.4513 17.9456 56.4641 17.9456 58.3273 19.8016L61.1497 22.624C63.0057 24.4864 63.0057 27.4992 61.1497 29.3624L56.9441 33.576Z" fill="#0D6EFD"/>
<path d="M19.332 21.9409L22.0256 14.4009L14.4856 17.0937L8.38159 12.4265L8.56079 19.9665L2.45679 24.0953L5.14959 24.9929L9.81759 26.6089L11.4336 31.2761L12.3312 33.9697L16.46 27.8657L24 28.2249L19.332 21.9409Z" fill="#0D6EFD"/>
<path d="M34.7048 11.3969L38.3176 9.3049L34.7048 7.2129L32.6128 3.6001L30.5208 7.2129L26.908 9.3049L30.5208 11.3969L32.6128 15.0097L34.7048 11.3969Z" fill="#0D6EFD"/>
<path d="M69.8328 62.3376L75.9152 56.8648L67.828 55.6256L64.6056 48.4648L61.1064 55.332L53.6128 56.0816L55.5984 58.196L59.0112 61.9152L58.1984 66.8968L57.6976 69.7536L64.3744 66.2696L70.98 70.2536L69.8328 62.3376Z" fill="#0D6EFD"/>
<path d="M46.624 71.7136L49.1744 70.2376L46.624 68.7616L45.148 66.2112L43.672 68.7616L41.1224 70.2376L43.672 71.7136L45.148 74.2632L46.624 71.7136Z" fill="#0D6EFD"/>
</svg>
