<svg width="80" height="80" xmlns="http://www.w3.org/2000/svg"><g fill="none" fill-rule="evenodd"><path fill="#EA4B71" d="M0 0H80V80H0z"/><path d="M75 29.266c0 4.013-3.214 7.266-7.18 7.266-3.345 0-6.156-2.316-6.953-5.45H50.844c-1.755 0-3.253 1.284-3.541 3.036l-.295 1.792a7.274 7.274 0 0 1-2.333 4.255 7.274 7.274 0 0 1 2.333 4.254l.295 1.792c.288 1.752 1.786 3.036 3.54 3.036h2.845c.797-3.134 3.608-5.45 6.953-5.45 3.965 0 7.18 3.253 7.18 7.266s-3.215 7.266-7.18 7.266c-3.345 0-6.156-2.315-6.953-5.45h-2.844c-3.51 0-6.505-2.567-7.082-6.07l-.295-1.792c-.289-1.752-1.786-3.036-3.541-3.036h-2.928c-.897 2.98-3.633 5.147-6.87 5.147-3.236 0-5.973-2.168-6.87-5.147h-4.21c-.895 2.98-3.632 5.147-6.869 5.147C8.214 47.128 5 43.875 5 39.862s3.214-7.266 7.18-7.266c3.452 0 6.335 2.466 7.023 5.752h3.902c.688-3.286 3.571-5.752 7.023-5.752 3.452 0 6.336 2.466 7.024 5.752h2.774c1.755 0 3.252-1.284 3.54-3.036l.296-1.791c.577-3.504 3.572-6.072 7.082-6.072h10.023C61.664 24.316 64.475 22 67.821 22 71.786 22 75 25.253 75 29.266zm-3.544.266a3.987 3.987 0 1 1-7.975 0 3.987 3.987 0 0 1 7.975 0zm-58.924 14.62a3.987 3.987 0 1 0 0-7.975 3.987 3.987 0 0 0 0 7.975zm18.607 0a3.987 3.987 0 1 0 0-7.975 3.987 3.987 0 0 0 0 7.975zm30.127 10.633a3.987 3.987 0 1 0 0-7.975 3.987 3.987 0 0 0 0 7.975z" fill="#FFF"/></g></svg>