<svg width="80" height="80" xmlns="http://www.w3.org/2000/svg"><g fill="none" fill-rule="evenodd"><path fill="#F9F3E9" d="M0 0H80V80H0z"/><path d="M74.36 20.01h-.667a6.349 6.349 0 0 0-6.36 6.35v14.199c0 2.835-2.343 5.132-5.132 5.132a5.315 5.315 0 0 1-4.293-2.234L43.405 22.745A6.423 6.423 0 0 0 38.125 20c-3.305 0-6.28 2.81-6.28 6.28v14.282c0 2.835-2.324 5.132-5.132 5.132a5.313 5.313 0 0 1-4.296-2.234L6.19 20.284C5.823 19.762 5 20.02 5 20.66v12.383c0 .627.191 1.234.55 1.748l15.968 22.806c.943 1.348 2.335 2.349 3.94 2.713 4.016.913 7.713-2.18 7.713-6.12V39.916a5.131 5.131 0 0 1 5.132-5.132h.008c1.71 0 3.312.834 4.293 2.234l14.503 20.71c1.206 1.722 3.062 2.745 5.277 2.745 3.38 0 6.275-2.814 6.275-6.281V39.914a5.131 5.131 0 0 1 5.133-5.133h.565A.642.642 0 0 0 75 34.14V20.65a.642.642 0 0 0-.643-.643l.003.003z" fill="#0B100F"/></g></svg>