<svg width="80" height="80" xmlns="http://www.w3.org/2000/svg"><path d="M15.892 33.476a1.1 1.1 0 0 1 1.145-1.051c.77.036 1.59.056 2.432.056.605 0 1.093.494 1.093 1.103 0 .61-.488 1.103-1.093 1.103-.878 0-1.729-.02-2.536-.06a1.1 1.1 0 0 1-1.041-1.155v.004zm64.1-7.36v34.921c0 .61-.489 1.104-1.093 1.104H46.515a1.098 1.098 0 0 1-1.093-1.104v-6.205c-.612.297-1.248.542-1.9.734l-.537 2.15a1.1 1.1 0 0 1-.914.826 15.295 15.295 0 0 1-4.15 0 1.095 1.095 0 0 1-.914-.826l-.537-2.15v.257c0 4.147-9.174 6.322-18.233 6.322C9.178 62.145 0 59.975 0 55.823v-32.64c0-4.148 9.174-6.322 18.241-6.322s18.233 2.17 18.233 6.322v7.999l.537-2.15a1.1 1.1 0 0 1 .918-.827 14.95 14.95 0 0 1 4.146 0c.445.06.807.39.914.826l.537 2.15c.652.193 1.288.438 1.9.735V17.968c0-.61.489-1.103 1.093-1.103h24.307c.29 0 .568.117.775.325l8.077 8.151c.207.209.322.49.322.782l-.008-.008zm-8.077-1.104h4.345l-4.345-4.384v4.384zM2.178 23.195v.016c.096 1.424 5.688 4.08 16.051 4.08s15.995-2.66 16.047-4.092v-.02c0-1.396-5.664-4.112-16.047-4.112-10.386 0-16.05 2.716-16.05 4.112v.016zm0 10.614c0 .646 1.328 1.745 4.242 2.631 3.136.955 7.33 1.48 11.81 1.48 3.839 0 7.504-.393 10.457-1.11l-.858-1.449a1.105 1.105 0 0 1 .067-1.231 15.1 15.1 0 0 1 2.942-2.965 1.086 1.086 0 0 1 1.22-.068l1.888 1.135c.111-.06.223-.12.334-.176v-5.692c-.934.598-2.158 1.127-3.665 1.58-3.33 1.007-7.727 1.56-12.382 1.56-4.655 0-8.995-.545-12.318-1.54-1.535-.457-2.783-.994-3.733-1.6v7.449l-.004-.004zm0 11.007c0 .646 1.328 1.74 4.242 2.627 3.14.955 7.333 1.48 11.81 1.48 3.64 0 7.138-.353 10.008-1.006a12.478 12.478 0 0 1-.33-.987l-2.13-.542a1.103 1.103 0 0 1-.82-.926 15.362 15.362 0 0 1 0-4.184c.06-.45.382-.814.82-.927l2.13-.541c.06-.205.123-.41.195-.614-2.906.602-6.324.927-9.874.927-6.368 0-12.795-1.071-16.05-3.15v7.843zm32.098 9.872a13.407 13.407 0 0 1-.334-.177l-1.884 1.135a1.086 1.086 0 0 1-1.22-.068 15.013 15.013 0 0 1-2.942-2.968 1.112 1.112 0 0 1-.067-1.232l.755-1.28c-3.001.67-6.614 1.032-10.355 1.032-6.368 0-12.795-1.071-16.05-3.15v7.835c0 .646 1.327 1.745 4.24 2.631 3.137.955 7.33 1.48 11.81 1.48s8.666-.525 11.806-1.48c2.913-.886 4.241-1.985 4.241-2.631v-1.131.004zm11.198-2.4c.345-.216.783-.22 1.132-.011l1.793 1.079a12.9 12.9 0 0 0 1.487-1.504l-1.07-1.805a1.111 1.111 0 0 1 .008-1.148 10.521 10.521 0 0 0 1.288-3.132c.092-.402.402-.718.795-.819l2.024-.513c.027-.361.043-.714.043-1.067s-.016-.698-.043-1.063l-2.02-.514a1.091 1.091 0 0 1-.795-.818 10.521 10.521 0 0 0-1.288-3.133 1.104 1.104 0 0 1-.008-1.143l1.07-1.81a12.866 12.866 0 0 0-1.487-1.5l-1.793 1.08c-.35.208-.787.204-1.133-.012a10.302 10.302 0 0 0-3.108-1.3 1.097 1.097 0 0 1-.81-.802l-.51-2.042c-.7-.06-1.407-.06-2.106 0l-.51 2.042c-.099.4-.413.71-.81.802-1.097.26-2.147.698-3.104 1.3-.346.216-.788.22-1.137.008l-1.789-1.08c-.537.458-1.034.963-1.49 1.5l1.069 1.81c.21.357.206.798-.012 1.151a10.376 10.376 0 0 0-1.288 3.133 1.098 1.098 0 0 1-.795.818l-2.023.518a13.8 13.8 0 0 0-.044 1.059c0 .345.016.702.044 1.067l2.023.513c.397.1.703.417.795.819.19.814.473 1.604.85 2.346.016.032.032.06.048.096.12.233.25.466.39.694.214.35.218.795.008 1.148l-1.07 1.805c.458.541.954 1.043 1.491 1.504l1.789-1.08c.35-.212.787-.208 1.137.009a10.322 10.322 0 0 0 3.104 1.3c.397.092.712.405.81.802l.51 2.042c.7.056 1.407.056 2.106 0l.51-2.042c.099-.401.413-.71.81-.802a10.322 10.322 0 0 0 3.105-1.3l.004-.004zm32.332-25.07h-6.984a1.098 1.098 0 0 1-1.093-1.103v-7.048h-22.12V31.29l.325-.197a1.079 1.079 0 0 1 1.22.068c.247.189.49.39.724.594a1.09 1.09 0 0 1 .926-.517h23.802c.604 0 1.093.493 1.093 1.103s-.489 1.103-1.093 1.103H51.543c.187.22.37.445.545.678.27.357.298.846.067 1.231l-.385.654h22.836c.604 0 1.093.493 1.093 1.103s-.489 1.103-1.093 1.103h-23.11c.226.518.42 1.051.576 1.593l2.13.541c.25.064.474.217.625.434h19.775c.604 0 1.093.493 1.093 1.103s-.489 1.103-1.093 1.103H55.157c0 .124.007.252.007.377 0 .702-.047 1.4-.143 2.094-.004.032-.012.06-.02.092h19.601c.604 0 1.093.493 1.093 1.103s-.489 1.103-1.093 1.103H51.798a12.72 12.72 0 0 1-.771 1.713l.504.85h23.075c.604 0 1.093.494 1.093 1.103 0 .61-.489 1.104-1.093 1.104h-22.47l-.048.076a15.323 15.323 0 0 1-2.938 2.968c-.353.273-.838.301-1.22.068l-.326-.196v4.484h30.198V27.214l.004.004zM16.933 45.622c.807.04 1.662.06 2.536.06.605 0 1.093-.493 1.093-1.103s-.488-1.103-1.093-1.103c-.81 0-1.621-.02-2.432-.056a1.098 1.098 0 0 0-1.145 1.05 1.1 1.1 0 0 0 1.041 1.156v-.004zM64.78 26.464H50.808c-.604 0-1.093.494-1.093 1.103 0 .61.489 1.103 1.093 1.103H64.78c.604 0 1.093-.493 1.093-1.103s-.489-1.103-1.093-1.103zm9.83 28.637H50.808c-.604 0-1.093.493-1.093 1.103s.489 1.103 1.093 1.103H74.61c.604 0 1.093-.493 1.093-1.103S75.214 55.1 74.61 55.1zm-9.83-33.406H50.808c-.604 0-1.093.493-1.093 1.103s.489 1.103 1.093 1.103H64.78c.604 0 1.093-.493 1.093-1.103s-.489-1.103-1.093-1.103zM19.47 54.467c-.756 0-1.555-.02-2.437-.056a1.097 1.097 0 0 0-1.141 1.055 1.1 1.1 0 0 0 1.045 1.151c.919.04 1.745.06 2.532.06.605 0 1.093-.493 1.093-1.103s-.488-1.103-1.093-1.103v-.004zm2.523-41.834c1.912-4.468 6.094-8.098 11.464-9.956 5.307-1.833 11.23-1.78 16.79.129L51.126.68A1.09 1.09 0 0 1 53.1.583l4.846 9.15a1.105 1.105 0 0 1-.652 1.577l-9.854 2.96a1.09 1.09 0 0 1-1.36-.742 1.108 1.108 0 0 1 .04-.742l.867-2.098c-8.725-3.434-17.92-.91-23.321 3.257a1.092 1.092 0 0 1-1.534-.205 1.107 1.107 0 0 1-.136-1.11l-.004.003zm4.564-3.028A27.575 27.575 0 0 1 38.446 6.88a25.313 25.313 0 0 1 10.41 2.21c.545.245.795.883.565 1.436l-.402.967 6.36-1.91-3.128-5.904-.394.95c-.226.55-.85.82-1.403.607C45.088 3.159 39.3 2.994 34.157 4.77c-3.065 1.06-5.684 2.744-7.608 4.838l.008-.004zm31.43 56.763c-1.912 4.469-6.09 8.1-11.464 9.956-5.31 1.834-11.233 1.781-16.79-.128l-.879 2.126a1.097 1.097 0 0 1-.958.678h-.051c-.406 0-.776-.225-.966-.582l-4.846-9.15a1.105 1.105 0 0 1 .652-1.576l9.854-2.96a1.09 1.09 0 0 1 1.36.742c.071.245.06.505-.04.742l-.867 2.098c8.721 3.438 17.92.91 23.325-3.257a1.092 1.092 0 0 1 1.535.204c.242.317.294.742.135 1.111v-.004zm-4.56 3.025c-6.153 2.972-14.464 4.035-22.307.517a1.108 1.108 0 0 1-.564-1.436l.401-.966-6.36 1.909 3.128 5.905.394-.951c.226-.554.85-.822 1.403-.606 5.366 2.078 11.154 2.247 16.297.47 3.065-1.06 5.685-2.744 7.612-4.842h-.004zM39.996 51.775c-4.599 0-8.328-3.758-8.331-8.403 0-4.641 3.724-8.404 8.327-8.408 4.6 0 8.328 3.759 8.332 8.404-.004 4.637-3.729 8.4-8.328 8.407zm6.137-8.407c0-3.422-2.75-6.198-6.14-6.194-3.392 0-6.142 2.776-6.138 6.198 0 3.421 2.75 6.197 6.141 6.193 3.39 0 6.137-2.78 6.137-6.197z" fill="#0D6EFD"/></svg>