<svg width="16" height="16" viewBox="0 0 16 16" fill="none" xmlns="http://www.w3.org/2000/svg">
<g clip-path="url(#clip0_1366_371)">
<path d="M5.875 3.125C5.66875 3.125 5.5 3.29375 5.5 3.5V12.5C5.5 12.7063 5.66875 12.875 5.875 12.875H11.125C11.3313 12.875 11.5 12.7063 11.5 12.5V3.5C11.5 3.29375 11.3313 3.125 11.125 3.125H5.875ZM4.375 3.5C4.375 2.67266 5.04766 2 5.875 2H11.125C11.9523 2 12.625 2.67266 12.625 3.5V12.5C12.625 13.3273 11.9523 14 11.125 14H5.875C5.04766 14 4.375 13.3273 4.375 12.5V3.5ZM7.75 11.375H9.25C9.45625 11.375 9.625 11.5437 9.625 11.75C9.625 11.9563 9.45625 12.125 9.25 12.125H7.75C7.54375 12.125 7.375 11.9563 7.375 11.75C7.375 11.5437 7.54375 11.375 7.75 11.375Z" fill="#949BA9"/>
</g>
<defs>
<clipPath id="clip0_1366_371">
<rect width="9" height="12" fill="white" transform="translate(4 2)"/>
</clipPath>
</defs>
</svg>
