<svg width="14" height="14" viewBox="0 0 14 14" fill="none" xmlns="http://www.w3.org/2000/svg">
<path d="M3.5 7.875H6.125V8.75H3.5V7.875ZM3.5 9.625H7.875V10.5H3.5V9.625Z" fill="#CFD7E7"/>
<path d="M11.375 1.75H2.625C2.39304 1.75035 2.17068 1.84265 2.00666 2.00666C1.84265 2.17068 1.75035 2.39304 1.75 2.625V11.375C1.75035 11.607 1.84265 11.8293 2.00666 11.9933C2.17068 12.1574 2.39304 12.2497 2.625 12.25H11.375C11.607 12.2497 11.8293 12.1574 11.9933 11.9933C12.1574 11.8293 12.2497 11.607 12.25 11.375V2.625C12.2497 2.39304 12.1574 2.17068 11.9933 2.00666C11.8293 1.84265 11.607 1.75035 11.375 1.75ZM7.875 2.625V4.375H6.125V2.625H7.875ZM2.625 11.375V2.625H5.25V5.25H8.75V2.625H11.375L11.3754 11.375H2.625Z" fill="#CFD7E7"/>
</svg>
