<svg width="14" height="14" viewBox="0 0 14 14" fill="none" xmlns="http://www.w3.org/2000/svg">
<path d="M7.0013 6.41667H9.91797M7.0013 4.08333H9.91797M4.66797 8.75V2.1C4.66797 2.00717 4.70484 1.91815 4.77048 1.85251C4.83612 1.78687 4.92514 1.75 5.01797 1.75H11.9013C11.9941 1.75 12.0832 1.78687 12.1488 1.85251C12.2144 1.91815 12.2513 2.00717 12.2513 2.1V9.91667C12.2513 10.5355 12.0055 11.129 11.5679 11.5666C11.1303 12.0042 10.5368 12.25 9.91797 12.25" stroke="#CFD7E7" stroke-width="0.875" stroke-linecap="round" stroke-linejoin="round"/>
<path d="M2.91667 8.75H7.23333C7.42642 8.75 7.58508 8.90575 7.60083 9.09825C7.67258 9.98375 8.03833 12.25 9.91667 12.25H3.5C3.03587 12.25 2.59075 12.0656 2.26256 11.7374C1.93437 11.4092 1.75 10.9641 1.75 10.5V9.91667C1.75 9.60725 1.87292 9.3105 2.09171 9.09171C2.3105 8.87292 2.60725 8.75 2.91667 8.75Z" stroke="#CFD7E7" stroke-width="0.875" stroke-linecap="round" stroke-linejoin="round"/>
</svg>
