<svg width="121" height="27" viewBox="0 0 121 27" fill="none" xmlns="http://www.w3.org/2000/svg">
<rect opacity="0.1" x="0.611328" width="120" height="27" rx="13.5" fill="#518DF9"/>
<rect x="10.9551" y="6" width="15" height="15" rx="7.5" fill="#2699FD"/>
<rect x="11.4551" y="6.5" width="14" height="14" rx="7" stroke="white" stroke-opacity="0.75"/>
<g clip-path="url(#clip0_2191_10652)">
<path d="M21.4487 12.0214C21.5509 12.118 21.6106 12.2513 21.6146 12.392C21.6186 12.5326 21.5665 12.6691 21.4699 12.7714L18.4623 15.9555C18.4135 16.007 18.355 16.0482 18.29 16.0767C18.2251 16.1052 18.1551 16.1204 18.0841 16.1214C18.0132 16.1224 17.9428 16.1092 17.8771 16.0825C17.8114 16.0558 17.7517 16.0163 17.7015 15.9661L16.1092 14.3741C16.0155 14.2735 15.9645 14.1404 15.9669 14.0029C15.9693 13.8654 16.025 13.7343 16.1223 13.637C16.2195 13.5398 16.3507 13.4841 16.4882 13.4817C16.6257 13.4793 16.7588 13.5303 16.8594 13.624L18.066 14.8297L20.6985 12.0426C20.7952 11.9403 20.9285 11.8807 21.0692 11.8767C21.2099 11.8727 21.3464 11.9247 21.4487 12.0214Z" fill="white"/>
</g>
<path d="M35.5351 12.95L34.3751 12.87C34.3651 12.78 34.3451 12.63 34.3451 12.5C34.3451 11.38 35.1851 10.37 36.6551 10.37C38.0851 10.37 38.9351 11.3 38.9351 12.41C38.9351 13.25 38.4651 13.94 37.6851 14.42L36.4251 15.2C36.1151 15.39 35.8551 15.62 35.7651 15.94H38.9751V17H34.2851C34.3051 15.89 34.6951 15.02 35.8251 14.32L36.8951 13.65C37.4751 13.29 37.7251 12.9 37.7251 12.43C37.7251 11.9 37.3651 11.42 36.6351 11.42C35.8751 11.42 35.5051 11.95 35.5051 12.62C35.5051 12.72 35.5251 12.84 35.5351 12.95ZM39.5292 15.58V14.28L42.2892 10.52H43.8292V14.52H44.9192V15.58H43.8292V17H42.6492V15.58H39.5292ZM42.6492 14.52V11.73L40.6092 14.52H42.6492ZM49.6284 9.86L46.1384 17.05H45.0684L48.5584 9.86H49.6284ZM54.7923 10.52V11.57C54.2523 12.02 52.4223 13.66 52.1323 17H50.8923C51.1723 13.38 53.4323 11.57 53.4323 11.57H49.9523V10.52H54.7923ZM65.9742 17H64.7842V11.78L62.5742 17H61.5342L59.3442 11.8V17H58.1742V9.91H59.7742L62.0742 15.32L64.3442 9.91H65.9742V17ZM69.6966 16.11C70.4166 16.11 71.0566 15.58 71.0566 14.56C71.0566 13.55 70.4166 13.03 69.6966 13.03C68.9866 13.03 68.3366 13.55 68.3366 14.56C68.3366 15.57 68.9866 16.11 69.6966 16.11ZM69.6966 11.98C71.1566 11.98 72.2266 13.07 72.2266 14.56C72.2266 16.06 71.1566 17.15 69.6966 17.15C68.2466 17.15 67.1766 16.06 67.1766 14.56C67.1766 13.07 68.2466 11.98 69.6966 11.98ZM74.5077 14.19V17H73.3477V12.13H74.4777V12.78C74.7977 12.22 75.3777 11.99 75.9177 11.99C77.1077 11.99 77.6777 12.85 77.6777 13.92V17H76.5177V14.12C76.5177 13.52 76.2477 13.04 75.5177 13.04C74.8577 13.04 74.5077 13.55 74.5077 14.19ZM80.2398 17H79.0898V12.13H80.2398V17ZM78.9098 10.42C78.9098 10 79.2498 9.66 79.6598 9.66C80.0798 9.66 80.4198 10 80.4198 10.42C80.4198 10.84 80.0798 11.17 79.6598 11.17C79.2498 11.17 78.9098 10.84 78.9098 10.42ZM83.2063 10.64V12.13H84.2163V13.16H83.2063V15.42C83.2063 15.85 83.3963 16.03 83.8263 16.03C83.9863 16.03 84.1763 16 84.2263 15.99V16.95C84.1563 16.98 83.9363 17.06 83.5163 17.06C82.6163 17.06 82.0563 16.52 82.0563 15.61V13.16H81.1563V12.13H81.4063C81.9263 12.13 82.1563 11.8 82.1563 11.37V10.64H83.2063ZM87.4994 16.11C88.2194 16.11 88.8594 15.58 88.8594 14.56C88.8594 13.55 88.2194 13.03 87.4994 13.03C86.7894 13.03 86.1394 13.55 86.1394 14.56C86.1394 15.57 86.7894 16.11 87.4994 16.11ZM87.4994 11.98C88.9594 11.98 90.0294 13.07 90.0294 14.56C90.0294 16.06 88.9594 17.15 87.4994 17.15C86.0494 17.15 84.9794 16.06 84.9794 14.56C84.9794 13.07 86.0494 11.98 87.4994 11.98ZM94.0004 12.1V13.28C93.8704 13.26 93.7404 13.25 93.6204 13.25C92.7204 13.25 92.3104 13.77 92.3104 14.68V17H91.1504V12.13H92.2804V12.91C92.5104 12.38 93.0504 12.07 93.6904 12.07C93.8304 12.07 93.9504 12.09 94.0004 12.1ZM96.1188 17H94.9688V12.13H96.1188V17ZM94.7888 10.42C94.7888 10 95.1288 9.66 95.5387 9.66C95.9588 9.66 96.2988 10 96.2988 10.42C96.2988 10.84 95.9588 11.17 95.5387 11.17C95.1288 11.17 94.7888 10.84 94.7888 10.42ZM98.7752 14.19V17H97.6152V12.13H98.7452V12.78C99.0652 12.22 99.6452 11.99 100.185 11.99C101.375 11.99 101.945 12.85 101.945 13.92V17H100.785V14.12C100.785 13.52 100.515 13.04 99.7852 13.04C99.1252 13.04 98.7752 13.55 98.7752 14.19ZM103.007 17.27L104.077 16.99C104.157 17.59 104.627 18.04 105.297 18.04C106.217 18.04 106.677 17.57 106.677 16.58V16.07C106.467 16.45 105.977 16.78 105.267 16.78C103.967 16.78 103.017 15.78 103.017 14.41C103.017 13.11 103.927 12.04 105.267 12.04C106.027 12.04 106.497 12.35 106.707 12.75V12.13H107.827V16.54C107.827 17.84 107.157 19.05 105.327 19.05C104.037 19.05 103.137 18.25 103.007 17.27ZM105.457 15.79C106.197 15.79 106.707 15.25 106.707 14.41C106.707 13.58 106.177 13.04 105.457 13.04C104.717 13.04 104.187 13.58 104.187 14.41C104.187 15.26 104.697 15.79 105.457 15.79Z" fill="#2699FD"/>
<defs>
<clipPath id="clip0_2191_10652">
<rect width="6" height="5.99902" fill="white" transform="translate(15.4551 10.5005)"/>
</clipPath>
</defs>
</svg>
