<svg width="116" height="121" viewBox="0 0 116 121" fill="none" xmlns="http://www.w3.org/2000/svg">
<rect x="0.617188" y="0.527344" width="115.07" height="119.621" rx="8" fill="white"/>
<rect x="7.11719" y="18.4062" width="102.068" height="30.2302" rx="2" fill="#E7EEF6"/>
<rect x="7.11719" y="54.6367" width="102.068" height="22.754" rx="2" fill="#E7EEF6"/>
<rect x="15.2422" y="88.293" width="23.4041" height="3.25056" fill="#E7EEF6"/>
<rect x="46.4453" y="88.293" width="23.4041" height="3.25056" fill="#E7EEF6"/>
<rect x="77.6562" y="88.293" width="23.4041" height="3.25056" fill="#E7EEF6"/>
<rect x="15.2422" y="95.4435" width="23.4041" height="3.25056" fill="#E7EEF6"/>
<rect x="46.4453" y="95.4434" width="23.4041" height="3.25056" fill="#E7EEF6"/>
<rect x="77.6562" y="95.4434" width="23.4041" height="3.25056" fill="#E7EEF6"/>
<rect x="15.2422" y="102.596" width="23.4041" height="3.25056" fill="#E7EEF6"/>
<rect x="46.4453" y="102.596" width="23.4041" height="3.25056" fill="#E7EEF6"/>
<rect x="77.6562" y="102.596" width="23.4041" height="3.25056" fill="#E7EEF6"/>
<path d="M7.11832 0.527344C3.52785 0.527344 0.617188 3.438 0.617188 7.02847V11.9043H115.687V7.02847C115.687 3.438 112.777 0.527344 109.186 0.527344H7.11832Z" fill="#1C254F"/>
<path d="M74.6828 28.1582H54.5746H41.4552C40.5678 28.1582 39.8484 28.8776 39.8484 29.765C39.8484 35.9768 34.8127 41.0124 28.6009 41.0124H23.375V69.0921C27.4684 95.2499 48.5427 108.612 58.5682 112.023C87.2219 99.4431 93.6365 78.1608 93.2621 69.0921V41.0124H87.537C81.3252 41.0124 76.2895 35.9768 76.2895 29.765C76.2895 28.8776 75.5702 28.1582 74.6828 28.1582Z" fill="url(#paint0_linear_2181_132)"/>
<path d="M72.6778 33.2754H55.0145H43.49C42.7109 33.2754 42.0793 33.907 42.0793 34.6861C42.0793 40.1399 37.6581 44.5611 32.2043 44.5611H27.6094V69.2144C31.2049 92.1803 49.7162 103.912 58.5224 106.906C83.6912 95.8618 89.3257 77.1765 88.9969 69.2144V44.5611H83.9635C78.5097 44.5611 74.0885 40.1399 74.0885 34.6861C74.0885 33.907 73.4569 33.2754 72.6778 33.2754Z" fill="url(#paint1_linear_2181_132)"/>
<path d="M58.8047 106.78V33.2754H72.6735C73.4526 33.2754 74.0842 33.907 74.0842 34.6861C74.0842 40.1399 78.5054 44.5611 83.9592 44.5611H88.9926V69.2144C89.3202 77.1461 83.7298 95.7197 58.8047 106.78Z" fill="#65ACF7"/>
<g clip-path="url(#clip0_2181_132)">
<path d="M71.9193 70.9899C70.3308 69.4002 68.1267 68.7267 65.296 69.4854L55.2021 59.3812L55.3355 58.8768C55.9169 56.6955 55.2887 54.3508 53.6967 52.7588C52.0757 51.1365 49.7713 50.5413 47.5919 51.14C47.2811 51.2253 47.0392 51.4695 46.9568 51.7811C46.8745 52.0928 46.9648 52.424 47.1926 52.652L49.623 55.0824C50.3336 55.7947 50.3266 56.9355 49.6248 57.6392C48.9285 58.3374 47.758 58.3363 47.0645 57.6409L44.6336 55.2098C44.4056 54.9818 44.0734 54.8923 43.7618 54.9752C43.4501 55.0579 43.2068 55.3004 43.1218 55.6115C42.5318 57.767 43.1122 60.0857 44.7409 61.7145C46.3287 63.3034 48.5301 63.9793 51.3625 63.2191L61.4571 73.3232C60.7038 76.1531 61.3536 78.3358 62.9635 79.9457C64.5865 81.5699 66.892 82.1607 69.0667 81.5641C69.3775 81.4788 69.6195 81.2345 69.7019 80.9229C69.7843 80.6112 69.6941 80.2799 69.4661 80.0519L67.0362 77.622C66.3257 76.9097 66.3326 75.7689 67.0345 75.0652C67.7395 74.3639 68.9073 74.375 69.5948 75.0643L72.0259 77.4948C72.2538 77.7227 72.586 77.8121 72.8976 77.7293C73.2092 77.6465 73.4525 77.4041 73.5376 77.0931C74.1275 74.938 73.5473 72.6186 71.9193 70.9899Z" fill="white" fill-opacity="0.95"/>
<path d="M52.5661 66.9907L43.9418 75.6161C42.5305 77.0274 42.5305 79.3226 43.9418 80.7339C45.3532 82.1453 47.6484 82.1453 49.0597 80.7339L57.6838 72.1088L52.5661 66.9907ZM48.2098 77.9263C47.8564 78.2797 47.284 78.2797 46.9305 77.9263C46.5772 77.5729 46.5772 77.0004 46.9305 76.647L52.4178 71.1587C52.7712 70.8054 53.3438 70.8054 53.6971 71.1587C54.0505 71.5121 54.0505 72.0846 53.6971 72.438L48.2098 77.9263Z" fill="white" fill-opacity="0.95"/>
<path d="M73.4977 52.7368L71.938 51.1771C71.6445 50.8836 71.1889 50.8275 70.833 51.0409L66.0352 53.9193C65.5304 54.2221 65.4447 54.9185 65.8609 55.3348L66.2428 55.7165L60.1523 61.7821L62.7117 64.3415L68.8022 58.2759L69.3401 58.814C69.7563 59.2301 70.4528 59.1444 70.7556 58.6396L73.6339 53.8419C73.8473 53.4859 73.7912 53.0303 73.4977 52.7368Z" fill="white" fill-opacity="0.95"/>
</g>
<circle cx="8.74247" cy="6.05497" r="1.62528" fill="#F3F8FE"/>
<circle cx="15.2503" cy="6.05497" r="1.62528" fill="#F3F8FE"/>
<circle cx="21.7425" cy="6.05497" r="1.62528" fill="#F3F8FE"/>
<defs>
<linearGradient id="paint0_linear_2181_132" x1="93.2773" y1="28.1582" x2="23.375" y2="112.268" gradientUnits="userSpaceOnUse">
<stop stop-color="#3DA1E6"/>
<stop offset="0.496032" stop-color="#397EF0"/>
<stop offset="1" stop-color="#3768F6"/>
</linearGradient>
<linearGradient id="paint1_linear_2181_132" x1="89.0102" y1="33.2754" x2="27.6428" y2="107.15" gradientUnits="userSpaceOnUse">
<stop stop-color="#50B0F2"/>
<stop offset="0.496032" stop-color="#5190F9"/>
<stop offset="1" stop-color="#507BF8"/>
</linearGradient>
<clipPath id="clip0_2181_132">
<rect width="30.8804" height="30.8804" fill="white" transform="translate(42.8828 50.9121)"/>
</clipPath>
</defs>
</svg>
