<svg width="17" height="16" viewBox="0 0 17 16" fill="none" xmlns="http://www.w3.org/2000/svg">
<circle cx="8.5" cy="8" r="8" fill="#DDE2E7"/>
<g clip-path="url(#clip0_1656_3511)">
<path d="M7.83672 2.27422C8.20234 1.90859 8.79531 1.90859 9.16328 2.27422L14.2258 7.33672C14.5914 7.70234 14.5914 8.29531 14.2258 8.66328L9.16328 13.7258C8.79766 14.0914 8.20469 14.0914 7.83672 13.7258L2.77422 8.66328C2.40859 8.29766 2.40859 7.70469 2.77422 7.33672L7.83672 2.27422Z" fill="#9199A6"/>
<path d="M7.6429 5.51705C7.67218 5.50581 7.70371 5.50001 7.73558 5.5L7.74547 5.50024C7.75606 5.50063 7.76661 5.50165 7.77704 5.50331C7.784 5.50444 7.79089 5.50585 7.7977 5.50753C7.80446 5.50915 7.81113 5.51104 7.8177 5.51319L7.81803 5.51325L7.81817 5.51343C7.82259 5.51488 7.82697 5.51645 7.83129 5.51813L10.8602 6.72295C11.0466 6.79717 11.0466 7.03404 10.8602 7.10825L7.97116 8.25741V10.5H7.5V5.71084C7.50003 5.70192 7.50068 5.69301 7.50195 5.68416L7.50229 5.68235C7.50284 5.6785 7.50351 5.67466 7.50431 5.67084C7.5054 5.66591 7.50668 5.661 7.50814 5.65614L7.50841 5.65506L7.51104 5.64693L7.51171 5.64542C7.51379 5.63965 7.51615 5.63396 7.51878 5.62837L7.51891 5.62813C7.52166 5.62237 7.52469 5.61672 7.528 5.6112L7.5284 5.6106C7.53161 5.60527 7.53507 5.60006 7.53877 5.595L7.53931 5.5944C7.54535 5.58618 7.55203 5.57835 7.5593 5.57096L7.56091 5.56952C7.56704 5.56342 7.57356 5.55765 7.58043 5.55223L7.58097 5.55175L7.58568 5.54825C7.59013 5.54497 7.59471 5.54184 7.59941 5.53886L7.59982 5.53849C7.60463 5.53546 7.60957 5.53258 7.61463 5.52988L7.61543 5.52952C7.62036 5.52689 7.62539 5.52441 7.63051 5.52211C7.63458 5.52032 7.63871 5.51863 7.6429 5.51705Z" fill="white"/>
</g>
<defs>
<clipPath id="clip0_1656_3511">
<rect width="12" height="12" fill="white" transform="translate(2.5 2)"/>
</clipPath>
</defs>
</svg>
