<svg width="16" height="16" viewBox="0 0 16 16" fill="none" xmlns="http://www.w3.org/2000/svg">
<rect width="16" height="16" rx="8" fill="#22B73A"/>
<rect x="1" y="1" width="14" height="14" rx="7" stroke="white" stroke-opacity="0.75" stroke-width="2"/>
<path d="M10.8275 5.90609C10.9358 6.00843 10.999 6.14958 11.0032 6.2985C11.0074 6.44741 10.9523 6.59191 10.85 6.70021L7.6656 10.0715C7.61399 10.126 7.55197 10.1697 7.4832 10.1998C7.41444 10.23 7.34032 10.2461 7.26523 10.2471C7.19015 10.2482 7.11561 10.2342 7.04603 10.2059C6.97645 10.1777 6.91324 10.1358 6.86013 10.0827L5.17426 8.39709C5.075 8.29057 5.02096 8.14969 5.02353 8.00413C5.02609 7.85856 5.08507 7.71968 5.18803 7.61673C5.29099 7.51379 5.42989 7.45482 5.57548 7.45225C5.72106 7.44968 5.86196 7.50371 5.96849 7.60296L7.246 8.87955L10.0333 5.92856C10.1357 5.82031 10.2768 5.75713 10.4258 5.75291C10.5747 5.7487 10.7192 5.80379 10.8275 5.90609Z" fill="white"/>
</svg>
