<svg width="380" height="580" viewBox="0 0 380 580" fill="none" xmlns="http://www.w3.org/2000/svg">
<g clip-path="url(#clip0_3055_3022)">
<rect width="380" height="580" rx="4" fill="#FAFAFC"/>
<rect opacity="0.2" x="50.6094" y="323.93" width="151.732" height="144.507" fill="#BBAFF9"/>
<rect opacity="0.2" x="158.992" y="222.773" width="151.732" height="144.507" fill="#BBAFF9"/>
<g opacity="0.2" filter="url(#filter0_f_3055_3022)">
<path d="M-6.65357 74.0309C-0.746826 74.2945 5.37883 74.3632 11.6831 74.1999L1.93148 93.3824L-6.65357 74.0309Z" fill="#060234"/>
<path d="M21.6276 73.7455C27.1159 73.3948 32.7172 72.8636 38.4072 72.1295L30.0136 90.9464L21.6276 73.7455Z" fill="#060234"/>
<path d="M46.4372 70.9526C51.856 70.0798 57.3429 69.0186 62.8775 67.75L57.8739 87.8414L46.4372 70.9526Z" fill="#060234"/>
<path d="M93.9228 58.4889C99.6112 56.3728 105.31 54.0106 110.998 51.3833L109.613 72.6224L93.9228 58.4889Z" fill="#060234"/>
<path d="M70.4054 65.9054C76.1065 64.4124 81.8479 62.6937 87.6078 60.7291L84.7813 81.1194L70.4054 65.9054Z" fill="#060234"/>
<path d="M93.9228 58.4887C99.6111 56.3726 105.31 54.0106 110.998 51.3833L109.613 72.6219L93.9228 58.4887Z" fill="#060234"/>
<path d="M119.116 47.4451C124.405 44.7561 129.677 41.8286 134.913 38.647L135.071 59.846L119.116 47.4451Z" fill="#060234"/>
<path d="M142.629 33.7498C147.661 30.4237 152.653 26.8524 157.59 23.0216L162.545 43.8973L142.629 33.7498Z" fill="#060234"/>
<path d="M162.761 18.8962C167.159 15.29 171.507 11.4704 175.795 7.42729L181.895 27.8323L162.761 18.8962Z" fill="#060234"/>
<path d="M179.423 3.93611C183.463 -0.0255056 187.446 -4.19149 191.362 -8.57063L198.805 11.0914L179.423 3.93611Z" fill="#060234"/>
<path d="M-60.8292 65.0883C-6.99055 82.169 122.138 87.2658 207.942 -28.9927" stroke="#060234" stroke-width="0.515168" stroke-linecap="round" stroke-linejoin="round"/>
</g>
<g opacity="0.2" filter="url(#filter1_f_3055_3022)">
<path d="M149.172 -11.1328C151.779 -6.52852 154.854 -1.62339 158.391 3.47593L138.936 5.83513L149.172 -11.1328Z" fill="#060234"/>
<path d="M162.805 9.58203C166.116 14.0258 169.759 18.5791 173.732 23.1768L154.547 27.5234L162.805 9.58203Z" fill="#060234"/>
<path d="M178.482 28.554C182.473 32.9171 186.756 37.2972 191.329 41.6395L170.869 48.3082L178.482 28.554Z" fill="#060234"/>
<path d="M198.686 48.347C202.815 51.9798 207.151 55.565 211.694 59.0693L192.453 66.4397L198.686 48.347Z" fill="#060234"/>
<path d="M218.202 63.9172C222.651 67.1317 227.281 70.2611 232.091 73.2776L214.347 83.9464L218.202 63.9172Z" fill="#060234"/>
<path d="M260.593 88.679C266.112 91.205 271.812 93.5643 277.691 95.7286L261.694 109.768L260.593 88.679Z" fill="#060234"/>
<path d="M238.715 77.2956C243.802 80.2711 249.077 83.1156 254.539 85.7993L238.122 98.2188L238.715 77.2956Z" fill="#060234"/>
<path d="M260.593 88.6789C266.112 91.2048 271.811 93.5641 277.691 95.7284L261.694 109.767L260.593 88.6789Z" fill="#060234"/>
<path d="M286.221 98.6867C291.862 100.525 297.66 102.183 303.612 103.636L288.733 118.737L286.221 98.6867Z" fill="#060234"/>
<path d="M312.524 105.627C318.435 106.833 324.49 107.838 330.689 108.62L319.432 126.885L312.524 105.627Z" fill="#060234"/>
<path d="M337.265 109.361C342.925 109.921 348.7 110.295 354.591 110.468L344.476 129.21L337.265 109.361Z" fill="#060234"/>
<path d="M359.623 110.563C365.281 110.618 371.042 110.488 376.908 110.161L368.268 129.327L359.623 110.563Z" fill="#060234"/>
<path d="M383.018 109.751C388.633 109.31 394.341 108.688 400.141 107.874L393.943 126.725L383.018 109.751Z" fill="#060234"/>
<path d="M146.506 -16.0736C172.498 34.074 260.201 128.986 403.081 107.451" stroke="#060234" stroke-width="0.515168" stroke-linecap="round" stroke-linejoin="round"/>
</g>
<path d="M-7.53638 69.1715C-1.62964 69.4351 4.49602 69.5038 10.8002 69.3405L1.04867 88.5231L-7.53638 69.1715Z" fill="#EDADAA"/>
<path d="M20.7448 68.8862C26.233 68.5354 31.8344 68.0042 37.5244 67.2701L29.1308 86.0871L20.7448 68.8862Z" fill="#F2BE61"/>
<path d="M45.5544 66.0932C50.9732 65.2205 56.4601 64.1592 61.9947 62.8906L56.9911 82.982L45.5544 66.0932Z" fill="#5D659A"/>
<path d="M93.04 53.6256C98.7284 51.5095 104.427 49.1474 110.115 46.52L108.731 67.7591L93.04 53.6256Z" fill="#FF0000"/>
<path d="M69.5226 61.0461C75.2237 59.5531 80.965 57.8343 86.725 55.8697L83.8985 76.2601L69.5226 61.0461Z" fill="#DF6C57"/>
<path d="M93.04 53.6254C98.7283 51.5093 104.427 49.1473 110.115 46.52L108.73 67.7587L93.04 53.6254Z" fill="#568E87"/>
<path d="M118.241 42.5857C123.53 39.8967 128.802 36.9692 134.038 33.7876L134.196 54.9866L118.241 42.5857Z" fill="#EDADAA"/>
<path d="M141.746 28.8865C146.778 25.5604 151.771 21.9891 156.707 18.1583L161.663 39.034L141.746 28.8865Z" fill="#F2BE61"/>
<path d="M161.886 14.0368C166.284 10.4306 170.632 6.61105 174.92 2.56792L181.02 22.9729L161.886 14.0368Z" fill="#5D659A"/>
<path d="M178.541 -0.923261C182.581 -4.88488 186.563 -9.05087 190.479 -13.43L197.922 6.23201L178.541 -0.923261Z" fill="#DF6C57"/>
<path d="M-61.712 60.2289C-7.87336 77.3096 121.255 82.4064 207.059 -33.8521" stroke="#A381FA" stroke-width="0.515168" stroke-linecap="round" stroke-linejoin="round"/>
<path d="M151.984 -15.1875C154.592 -10.5832 157.666 -5.67807 161.203 -0.578758L141.748 1.78044L151.984 -15.1875Z" fill="#DF6C57"/>
<path d="M165.617 5.52734C168.928 9.97111 172.572 14.5244 176.544 19.1221L157.359 23.4687L165.617 5.52734Z" fill="#568E87"/>
<path d="M181.295 24.4993C185.285 28.8624 189.568 33.2425 194.141 37.5848L173.682 44.2535L181.295 24.4993Z" fill="#EDADAA"/>
<path d="M201.499 44.2924C205.627 47.9251 209.964 51.5103 214.506 55.0146L195.266 62.385L201.499 44.2924Z" fill="#F2BE61"/>
<path d="M221.014 59.8625C225.463 63.0771 230.093 66.2064 234.904 69.223L217.159 79.8917L221.014 59.8625Z" fill="#5D659A"/>
<path d="M263.406 84.6243C268.924 87.1503 274.624 89.5096 280.504 91.6739L264.507 105.713L263.406 84.6243Z" fill="#FF0000"/>
<path d="M241.535 73.2409C246.622 76.2165 251.897 79.0609 257.359 81.7446L240.942 94.1641L241.535 73.2409Z" fill="#DF6C57"/>
<path d="M263.406 84.6242C268.924 87.1501 274.624 89.5094 280.504 91.6737L264.507 105.713L263.406 84.6242Z" fill="#568E87"/>
<path d="M289.033 94.6359C294.675 96.4745 300.472 98.1319 306.425 99.5851L291.546 114.686L289.033 94.6359Z" fill="#EDADAA"/>
<path d="M315.337 101.572C321.247 102.779 327.303 103.783 333.502 104.565L322.245 122.83L315.337 101.572Z" fill="#F2BE61"/>
<path d="M340.086 105.311C345.745 105.87 351.521 106.244 357.412 106.417L347.296 125.159L340.086 105.311Z" fill="#5D659A"/>
<path d="M362.435 106.512C368.093 106.567 373.855 106.438 379.72 106.11L371.08 125.276L362.435 106.512Z" fill="#DF6C57"/>
<path d="M149.319 -20.1283C175.31 30.0193 263.014 124.931 405.894 103.396" stroke="#A381FA" stroke-width="0.515168" stroke-linecap="round" stroke-linejoin="round"/>
<path d="M222.733 505.733C298.044 483.264 294.279 422.569 294.279 404.972V356.645L222.733 327.516L151.188 356.645V404.972C151.154 422.569 147.406 483.264 222.733 505.733Z" fill="#5CB1FF"/>
<path d="M222.726 511L221.261 510.557C145.371 487.986 145.848 427.257 146.018 407.31C146.018 406.458 146.018 405.606 146.018 404.959V353.191L222.674 322L299.331 353.191V404.959C299.331 405.674 299.331 406.458 299.331 407.31C299.484 427.257 299.978 487.986 224.088 510.625L222.726 511ZM156.29 360.004V404.959C156.29 405.691 156.29 406.509 156.29 407.395C156.12 427.206 155.711 479.622 222.726 500.387C289.791 479.622 289.365 427.138 289.161 407.395C289.161 406.509 289.161 405.691 289.161 404.959V360.073L222.726 333.021L156.29 360.004Z" fill="#87CCFF"/>
<path d="M222.741 351.418V406.696H261.938L220.067 479.349V428.347H179.609L222.741 351.418Z" fill="white"/>
<path d="M233.98 285.252C236.882 279.637 195.644 246.842 172.766 229.773C197.749 252.367 216.426 275.154 222.642 283.723C225.124 287.632 228.079 287.861 230.163 287.137C231.498 286.673 233.332 286.507 233.98 285.252Z" stroke="black" stroke-width="0.0894003"/>
<path d="M135.558 218.914C139.924 214.697 143.886 205.789 143.886 205.789C143.886 205.789 142.895 214.378 140.084 218.914C138.107 222.104 135.13 222.564 133.566 225.975C132.295 228.749 133.421 230.869 132.209 233.669C131.503 235.299 129.855 237.561 129.855 237.561L126.234 236.294C126.234 236.294 127.533 234.469 128.226 233.216C130.387 229.312 128.616 225.682 131.484 222.264C132.808 220.686 134.077 220.345 135.558 218.914Z" fill="#FF9ACA"/>
<path d="M135.763 211.745C138.504 208.767 140.289 202.422 140.289 202.422L145.358 204.323C145.358 204.323 140.829 213.577 135.763 217.358C132.837 219.542 130.11 219.126 127.436 221.612C124.388 224.445 125.073 227.854 122.276 230.935C121.031 232.307 118.746 234.104 118.746 234.104L115.125 231.479C115.125 231.479 117.288 229.19 118.746 227.315C121.777 223.416 123.152 220.112 126.983 216.995C130.082 214.474 133.058 214.685 135.763 211.745Z" fill="#97CDFF"/>
<path d="M140.088 201.815C141.359 201.372 143.256 200.457 143.256 200.457L143.98 204.168C143.98 204.168 142.02 205.062 140.722 205.526C136.759 206.943 134.011 205.889 130.131 207.518C125.997 209.253 125.104 212.934 120.807 214.216C118.222 214.987 116.523 214.113 113.928 214.85C112.463 215.266 111.574 217.143 110.307 216.298C109.736 215.917 109.541 215.497 109.312 214.85C109.017 214.016 108.944 213.39 109.312 212.587C109.904 211.29 111.316 211.61 112.661 211.138C116.17 209.906 118.61 211.043 122.075 209.69C126.105 208.116 126.995 204.719 131.036 203.173C134.375 201.895 136.712 202.99 140.088 201.815Z" fill="#FF9884"/>
<path d="M143.164 200L246.084 288.799L150.949 335.417L143.164 200Z" fill="#A482FB"/>
<path d="M145.706 244.143L144.883 229.816L153.065 208.543L159.048 213.705L145.706 244.143Z" fill="#B294FF"/>
<path d="M148.198 287.556L147.203 270.258L172.735 225.535L181.843 233.393L148.198 287.556Z" fill="#B294FF"/>
<path d="M157.58 332.161L150.95 335.409L150.375 325.404L195.67 245.293L205.31 253.611L157.58 332.161Z" fill="#B294FF"/>
<path d="M219.526 265.875L228.708 273.797L208.611 306.261L195.305 308.433L219.526 265.875Z" fill="#B294FF"/>
<path opacity="0.11" fill-rule="evenodd" clip-rule="evenodd" d="M161.201 330.41L150.949 335.433L145.68 243.766C151.931 277.393 165.775 321.947 187.246 314.627L161.201 330.41Z" fill="black"/>
<ellipse cx="198.534" cy="312.159" rx="53.0608" ry="6.72597" transform="rotate(-26.1163 198.534 312.159)" fill="#7560C6"/>
<path d="M218.414 309.421C235.844 299.795 247.439 291.388 246.178 288.817C245.232 286.886 237.242 288.671 225.577 293.019C232.368 292.802 237.829 294.801 218.414 309.421Z" fill="#634CBB"/>
<path d="M237.684 297.61C236.452 298.478 235.104 299.389 233.649 300.335C233.184 300.496 232.71 300.618 232.234 300.7C229.49 301.171 226.577 300.83 224.209 299.187C222.613 298.079 221.832 296.281 221.732 294.462C222.171 294.289 222.606 294.12 223.037 293.953C223.089 295.562 223.743 297.102 225.071 297.91C226.995 299.141 229.581 299.391 231.829 298.856C232.937 298.623 233.977 298.143 234.873 297.451C235.768 296.759 236.496 295.873 237.001 294.86C237.79 293.083 238.004 290.966 237.434 289.117C238.178 288.923 238.881 288.754 239.542 288.609C239.806 289.581 239.927 290.589 239.897 291.6C239.854 293.039 239.509 294.453 238.883 295.75C238.569 296.427 238.162 297.05 237.684 297.61Z" fill="#3F3F3F"/>
<path d="M232.138 290.687C232.053 290.715 231.967 290.742 231.882 290.771C232.338 291.832 232.403 293.025 232.058 294.135C232.49 293.027 232.516 291.806 232.138 290.687Z" fill="#3F3F3F"/>
<path d="M214.538 297.408C215.031 299.867 216.224 302.205 217.982 304.042C219.213 305.397 220.697 306.423 222.334 307.191C221.771 307.512 221.201 307.834 220.625 308.159C219.191 307.442 217.851 306.517 216.666 305.333C214.644 303.449 213.245 300.942 212.586 298.245C213.242 297.961 213.893 297.682 214.538 297.408Z" fill="#3F3F3F"/>
<ellipse cx="273.208" cy="431.832" rx="6.75039" ry="4.8352" transform="rotate(-13.358 273.208 431.832)" fill="#3F3F3F"/>
<path d="M319.236 420.26C312.465 423.395 301.262 424.806 296.508 425.119L297.292 429.978C310.078 428.72 319.229 426.426 323.72 424.944C325.134 424.477 326.573 424.085 327.99 423.629C334.644 421.488 336.041 416.349 335.851 413.833C335.475 405.181 328.171 401.45 324.565 400.666C313.154 398.158 309.257 404.846 308.734 408.504C308.107 419.037 315.474 420.73 319.236 420.26Z" fill="#F5D253"/>
<path d="M319.236 420.26C312.465 423.395 301.262 424.806 296.508 425.119L297.292 429.978C310.078 428.72 319.229 426.426 323.72 424.944C325.134 424.477 326.573 424.085 327.99 423.629C334.644 421.488 336.041 416.349 335.851 413.833C335.475 405.181 328.171 401.45 324.565 400.666C313.154 398.158 309.257 404.846 308.734 408.504C308.107 419.037 315.474 420.73 319.236 420.26ZM319.236 420.26C323.364 420.521 330.992 418.222 326.76 409.601C324.977 406.778 317.138 404.096 314.724 410.231C314.446 410.938 314.346 411.715 314.497 412.46C314.974 414.819 316.925 417.73 321.165 416.841C321.656 416.738 322.13 416.539 322.522 416.226C323.786 415.216 325.006 413.327 323.176 411.193C322.786 410.738 322.21 410.464 321.613 410.51C320.091 410.627 318.714 411.614 320.02 413.833" stroke="#3F3F3F" stroke-width="0.598921"/>
<rect x="271.586" y="428.387" width="26.3341" height="6.89686" rx="0.619237" transform="rotate(-8.95956 271.586 428.387)" fill="#7560C6"/>
<path d="M294.673 431.721L293.352 424.947L294.901 424.703L296.223 431.477L294.673 431.721Z" fill="#8672D1"/>
<path d="M276.551 434.574L275.001 434.819L273.68 428.045L275.229 427.801L276.551 434.574Z" fill="#8672D1"/>
<rect x="271.928" y="428.636" width="25.7352" height="6.29794" rx="0.319776" transform="rotate(-8.95956 271.928 428.636)" stroke="#3F3F3F" stroke-width="0.598921"/>
<path d="M245.781 210.254L247.106 216.877L253.729 218.202L247.106 219.526L245.781 226.149L244.457 219.526L237.834 218.202L244.457 216.877L245.781 210.254Z" fill="#6E60D8"/>
<path d="M291.664 256.023L292.989 262.647L299.612 263.971L292.989 265.296L291.664 271.919L290.339 265.296L283.716 263.971L290.339 262.647L291.664 256.023Z" fill="#6E60D8"/>
<path d="M77.6719 375.77L78.9965 382.393L85.6196 383.717L78.9965 385.042L77.6719 391.665L76.3473 385.042L69.7242 383.717L76.3473 382.393L77.6719 375.77Z" fill="#6E60D8"/>
<path d="M74.2891 259.285L76.7879 271.78L89.2823 274.278L76.7879 276.777L74.2891 289.272L71.7902 276.777L59.2958 274.278L71.7902 271.78L74.2891 259.285Z" fill="#6E60D8"/>
<path d="M121.25 234.004L127.104 244.307" stroke="#6E60D8" stroke-width="0.686891" stroke-linecap="round" stroke-linejoin="round"/>
<path d="M261 249.989L271.537 242.262" stroke="#6E60D8" stroke-width="0.686891" stroke-linecap="round" stroke-linejoin="round"/>
<path d="M250.695 278.289L265.682 265.879" stroke="#6E60D8" stroke-width="0.686891" stroke-linecap="round" stroke-linejoin="round"/>
<path d="M107.898 268.191L124.992 278.26" stroke="#6E60D8" stroke-width="0.686891" stroke-linecap="round" stroke-linejoin="round"/>
<path d="M102.047 244.301L120.78 260.926" stroke="#6E60D8" stroke-width="0.686891" stroke-linecap="round" stroke-linejoin="round"/>
<path d="M81.9062 313.15C86.4334 310.731 96.237 308.654 99.2342 319.707C100.746 323.596 93.2907 328.282 90.8395 322.55C90.384 321.484 90.3147 320.296 90.3689 319.139C90.746 311.096 94.3488 300.169 106.727 310.107" stroke="#6E60D8" stroke-width="0.686891" stroke-linecap="round" stroke-linejoin="round"/>
<path d="M295.533 322.886C297.181 317.273 299.145 306.695 285.264 313.517C281.331 316.025 284.443 322.222 289.329 318.731C291.861 317.325 293.544 312.753 289.028 307.66" stroke="#6E60D8" stroke-width="0.686891" stroke-linecap="round" stroke-linejoin="round"/>
<g opacity="0.05" filter="url(#filter2_f_3055_3022)">
<ellipse cx="184.664" cy="523.651" rx="115.625" ry="11.1278" fill="black"/>
</g>
</g>
<defs>
<filter id="filter0_f_3055_3022" x="-61.9446" y="-30.1086" width="277.92" height="124.35" filterUnits="userSpaceOnUse" color-interpolation-filters="sRGB">
<feFlood flood-opacity="0" result="BackgroundImageFix"/>
<feBlend mode="normal" in="SourceGraphic" in2="BackgroundImageFix" result="shape"/>
<feGaussianBlur stdDeviation="0.429307" result="effect1_foregroundBlur_3055_3022"/>
</filter>
<filter id="filter1_f_3055_3022" x="138.079" y="-17.1906" width="266.116" height="147.377" filterUnits="userSpaceOnUse" color-interpolation-filters="sRGB">
<feFlood flood-opacity="0" result="BackgroundImageFix"/>
<feBlend mode="normal" in="SourceGraphic" in2="BackgroundImageFix" result="shape"/>
<feGaussianBlur stdDeviation="0.429307" result="effect1_foregroundBlur_3055_3022"/>
</filter>
<filter id="filter2_f_3055_3022" x="63.6212" y="507.106" width="242.086" height="33.0896" filterUnits="userSpaceOnUse" color-interpolation-filters="sRGB">
<feFlood flood-opacity="0" result="BackgroundImageFix"/>
<feBlend mode="normal" in="SourceGraphic" in2="BackgroundImageFix" result="shape"/>
<feGaussianBlur stdDeviation="2.70893" result="effect1_foregroundBlur_3055_3022"/>
</filter>
<clipPath id="clip0_3055_3022">
<rect width="380" height="580" fill="white"/>
</clipPath>
</defs>
</svg>
