<svg width="16" height="16" viewBox="0 0 16 16" fill="none" xmlns="http://www.w3.org/2000/svg">
<path d="M12 5.33464H11.3333V4.0013C11.3333 2.1613 9.83996 0.667969 7.99996 0.667969C6.15996 0.667969 4.66663 2.1613 4.66663 4.0013V5.33464H3.99996C3.26663 5.33464 2.66663 5.93464 2.66663 6.66797V13.3346C2.66663 14.068 3.26663 14.668 3.99996 14.668H12C12.7333 14.668 13.3333 14.068 13.3333 13.3346V6.66797C13.3333 5.93464 12.7333 5.33464 12 5.33464ZM7.99996 11.3346C7.26663 11.3346 6.66663 10.7346 6.66663 10.0013C6.66663 9.26797 7.26663 8.66797 7.99996 8.66797C8.73329 8.66797 9.33329 9.26797 9.33329 10.0013C9.33329 10.7346 8.73329 11.3346 7.99996 11.3346ZM5.99996 5.33464V4.0013C5.99996 2.89464 6.89329 2.0013 7.99996 2.0013C9.10663 2.0013 9.99996 2.89464 9.99996 4.0013V5.33464H5.99996Z" fill="#BBC8CD"/>
</svg>
