<svg width="12" height="15" viewBox="0 0 12 15" fill="none" xmlns="http://www.w3.org/2000/svg">
<path d="M9.99999 5.33464H9.33332V4.0013C9.33332 2.1613 7.83999 0.667969 5.99999 0.667969C4.15999 0.667969 2.66666 2.1613 2.66666 4.0013V5.33464H1.99999C1.26666 5.33464 0.666656 5.93464 0.666656 6.66797V13.3346C0.666656 14.068 1.26666 14.668 1.99999 14.668H9.99999C10.7333 14.668 11.3333 14.068 11.3333 13.3346V6.66797C11.3333 5.93464 10.7333 5.33464 9.99999 5.33464ZM5.99999 11.3346C5.26666 11.3346 4.66666 10.7346 4.66666 10.0013C4.66666 9.26797 5.26666 8.66797 5.99999 8.66797C6.73332 8.66797 7.33332 9.26797 7.33332 10.0013C7.33332 10.7346 6.73332 11.3346 5.99999 11.3346ZM3.99999 5.33464V4.0013C3.99999 2.89464 4.89332 2.0013 5.99999 2.0013C7.10666 2.0013 7.99999 2.89464 7.99999 4.0013V5.33464H3.99999Z" fill="#BBC8CD"/>
</svg>
