<svg width="13" height="13" viewBox="0 0 13 13" fill="none" xmlns="http://www.w3.org/2000/svg">
<path d="M8.17578 2.49687C8.07031 2.53672 8 2.6375 8 2.75C8 2.8625 8.07031 2.96328 8.17578 3.00313L9.5 3.5L9.99688 4.82422C10.0367 4.92969 10.1375 5 10.25 5C10.3625 5 10.4633 4.92969 10.5031 4.82422L11 3.5L12.3242 3.00313C12.4297 2.96328 12.5 2.8625 12.5 2.75C12.5 2.6375 12.4297 2.53672 12.3242 2.49687L11 2L10.5031 0.675781C10.4633 0.570312 10.3625 0.5 10.25 0.5C10.1375 0.5 10.0367 0.570312 9.99688 0.675781L9.5 2L8.17578 2.49687ZM0.717969 6.125C0.584375 6.18594 0.5 6.31953 0.5 6.46719C0.5 6.61484 0.584375 6.74609 0.717969 6.80703L1.11641 6.99219L1.30625 7.07891L1.32031 7.08594L3.38984 8.04219L4.34609 10.1094L4.35312 10.1234L4.43984 10.3133L4.625 10.7141C4.68594 10.8477 4.81953 10.932 4.96484 10.932C5.11016 10.932 5.24375 10.8477 5.30469 10.7141L5.48984 10.3133L5.57656 10.1234L5.58359 10.1094L6.53984 8.03984L8.60938 7.08594L8.62344 7.07891L8.81328 6.99219L9.21406 6.80703C9.34766 6.74609 9.43203 6.6125 9.43203 6.46719C9.43203 6.32188 9.34766 6.18828 9.21406 6.12734L8.81328 5.94219L8.62344 5.85547L8.60938 5.84844L6.53984 4.89219L5.58594 2.82266L5.57891 2.80859L5.49219 2.61641L5.30703 2.21562C5.24609 2.08203 5.1125 1.99766 4.96719 1.99766C4.82188 1.99766 4.68828 2.08203 4.62734 2.21562L4.44219 2.61641L4.35547 2.80625L4.34844 2.82031L3.39219 4.88984L1.32266 5.84609L1.30859 5.85312L1.11875 5.93984L0.717969 6.125ZM2.66328 6.46484L3.86328 5.91172C4.10703 5.79922 4.30156 5.60469 4.41406 5.36094L4.96719 4.16094L5.52031 5.36094C5.63281 5.60469 5.82734 5.79922 6.07109 5.91172L7.27109 6.46484L6.07109 7.01797C5.82734 7.13047 5.63281 7.325 5.52031 7.56875L4.96719 8.76875L4.41406 7.56875C4.30156 7.325 4.10703 7.13047 3.86328 7.01797L2.66328 6.46719V6.46484ZM9.5 9.5L8.17578 9.99688C8.07031 10.0367 8 10.1375 8 10.25C8 10.3625 8.07031 10.4633 8.17578 10.5031L9.5 11L9.99688 12.3242C10.0367 12.4297 10.1375 12.5 10.25 12.5C10.3625 12.5 10.4633 12.4297 10.5031 12.3242L11 11L12.3242 10.5031C12.4297 10.4633 12.5 10.3625 12.5 10.25C12.5 10.1375 12.4297 10.0367 12.3242 9.99688L11 9.5L10.5031 8.17578C10.4633 8.07031 10.3625 8 10.25 8C10.1375 8 10.0367 8.07031 9.99688 8.17578L9.5 9.5Z" fill="white"/>
</svg>
