<svg width="10" height="10" viewBox="0 0 10 10" fill="none" xmlns="http://www.w3.org/2000/svg">
<path d="M7.49996 3.33464H7.08329V2.5013C7.08329 1.3513 6.14996 0.417969 4.99996 0.417969C3.84996 0.417969 2.91663 1.3513 2.91663 2.5013V3.33464H2.49996C2.04163 3.33464 1.66663 3.70964 1.66663 4.16797V8.33464C1.66663 8.79297 2.04163 9.16797 2.49996 9.16797H7.49996C7.95829 9.16797 8.33329 8.79297 8.33329 8.33464V4.16797C8.33329 3.70964 7.95829 3.33464 7.49996 3.33464ZM4.99996 7.08464C4.54163 7.08464 4.16663 6.70964 4.16663 6.2513C4.16663 5.79297 4.54163 5.41797 4.99996 5.41797C5.45829 5.41797 5.83329 5.79297 5.83329 6.2513C5.83329 6.70964 5.45829 7.08464 4.99996 7.08464ZM3.74996 3.33464V2.5013C3.74996 1.80964 4.30829 1.2513 4.99996 1.2513C5.69163 1.2513 6.24996 1.80964 6.24996 2.5013V3.33464H3.74996Z" fill="white"/>
</svg>
