<svg width="45" height="47" viewBox="0 0 45 47" fill="none" xmlns="http://www.w3.org/2000/svg">
<path d="M10.5453 46.1888H36.0453C38.1711 46.1888 39.8944 44.4655 39.8944 42.3397V14.9152H34.1208V9.1416H10.5453C8.41957 9.1416 6.69629 10.8649 6.69629 12.9907V42.3397C6.69629 44.4655 8.41957 46.1888 10.5453 46.1888Z" fill="#F8FAFD"/>
<path d="M34.1211 9.14148L39.8947 14.9151H34.1211V9.14148Z" fill="#DDE6F0"/>
<circle cx="14.8757" cy="19.2453" r="1.92453" fill="#2699FD"/>
<circle cx="14.8757" cy="27.4244" r="1.92453" fill="#DDE6F0"/>
<circle cx="14.8757" cy="35.6039" r="1.92453" fill="#DDE6F0"/>
<rect x="18.7246" y="17.8019" width="12.9906" height="0.962264" fill="#2699FD"/>
<rect x="18.7246" y="25.9812" width="12.9906" height="0.962264" fill="#DDE6F0"/>
<rect x="18.7246" y="34.1605" width="12.9906" height="0.962264" fill="#DDE6F0"/>
<rect x="18.7246" y="19.7266" width="15.3962" height="0.962264" fill="#2699FD"/>
<rect x="18.7246" y="27.9056" width="15.3962" height="0.962264" fill="#DDE6F0"/>
<rect x="18.7246" y="36.085" width="15.3962" height="0.962264" fill="#DDE6F0"/>
<circle cx="7.32831" cy="30.7171" r="7.21698" fill="#2699FD"/>
<path d="M9.79636 28H4.83726C4.38153 28 4.01074 28.4128 4.01074 28.92V32.6C4.01074 32.6172 4.01464 32.6334 4.01549 32.6506C4.01159 32.6874 4.01329 32.7245 4.02532 32.7595C4.09331 33.1907 4.43053 33.52 4.83726 33.52H9.79636C10.2521 33.52 10.6229 33.1072 10.6229 32.6V28.92C10.6229 28.4128 10.2521 28 9.79636 28ZM4.83726 28.6134H9.79636C9.9481 28.6134 10.0719 28.751 10.0719 28.92V31.3546L8.62279 29.7416C8.43426 29.5318 8.12755 29.5318 7.93953 29.7416L6.62813 31.2013L6.28091 30.8149C6.09255 30.6051 5.78584 30.6051 5.59765 30.8149L4.56175 31.9679V28.92C4.56175 28.751 4.68552 28.6134 4.83726 28.6134Z" fill="white"/>
<circle cx="24.3264" cy="7.21698" r="7.21698" fill="white"/>
<path fill-rule="evenodd" clip-rule="evenodd" d="M24.3283 13.684C27.8999 13.684 30.7953 10.7886 30.7953 7.21698C30.7953 3.64537 27.8999 0.75 24.3283 0.75C20.7567 0.75 17.8613 3.64537 17.8613 7.21698C17.8613 10.7886 20.7567 13.684 24.3283 13.684ZM24.3283 14.434C28.3141 14.434 31.5453 11.2028 31.5453 7.21698C31.5453 3.23115 28.3141 0 24.3283 0C20.3425 0 17.1113 3.23115 17.1113 7.21698C17.1113 11.2028 20.3425 14.434 24.3283 14.434Z" fill="#DDE6F0"/>
<path d="M23.5332 6.26952H24.4375V4.88086C24.06 5.00482 23.7205 5.53472 23.5332 6.26952Z" fill="#DDE6F0"/>
<path d="M23.5332 8.73047C23.7205 9.46527 24.06 9.99517 24.4375 10.1191V8.73047H23.5332Z" fill="#DDE6F0"/>
<path d="M27.4355 6.62109H21.7871C21.69 6.62109 21.6113 6.69977 21.6113 6.79688V8.20312C21.6113 8.3002 21.69 8.37891 21.7871 8.37891H27.4355C27.5326 8.37891 27.6113 8.3002 27.6113 8.20312V6.79688C27.6113 6.69977 27.5326 6.62109 27.4355 6.62109ZM27.2295 7.22706L26.8779 7.93018C26.8481 7.98975 26.7873 8.02734 26.7207 8.02734C26.6541 8.02734 26.5933 7.98975 26.5635 7.93018L26.3691 7.54154L26.1748 7.93018C26.1151 8.04932 25.9201 8.04932 25.8603 7.93018L25.5235 7.25641C25.5033 7.23155 25.4917 7.2003 25.488 7.16695C25.4858 7.18727 25.4814 7.2077 25.4717 7.22706L25.1201 7.93018C25.0903 7.98975 25.0295 8.02734 24.9629 8.02734C24.8963 8.02734 24.8355 7.98975 24.8056 7.93018L24.6113 7.54154L24.417 7.93018C24.3573 8.04932 24.1623 8.04932 24.1025 7.93018L23.751 7.22706C23.7416 7.20844 23.7376 7.18877 23.7353 7.16923C23.7309 7.2071 23.7166 7.24163 23.6934 7.26791L23.3623 7.93018C23.3324 7.98975 23.2717 8.02734 23.2051 8.02734C23.1385 8.02734 23.0777 7.98975 23.0478 7.93018L22.8535 7.54154L22.6592 7.93018C22.6293 7.98975 22.5686 8.02734 22.502 8.02734C22.4353 8.02734 22.3746 7.98975 22.3447 7.93018L21.9931 7.22706C21.9497 7.1402 21.9849 7.03463 22.0718 6.9912C22.1585 6.94828 22.2639 6.98278 22.3076 7.06982L22.502 7.45846L22.6963 7.06982C22.7585 6.94502 22.9457 6.93977 23.0108 7.06982L23.2051 7.45846L23.3994 7.06982C23.431 7.00664 23.4974 6.97232 23.568 6.973C23.6588 6.97896 23.7311 7.05389 23.7349 7.14302C23.737 7.08067 23.7699 7.02105 23.8296 6.99118C23.9166 6.94827 24.0218 6.98277 24.0654 7.0698L24.2598 7.45846L24.4541 7.06982C24.5138 6.95068 24.7088 6.95068 24.7686 7.06982L24.9629 7.45846L25.1572 7.06982C25.2006 6.98278 25.3062 6.94828 25.3931 6.9912C25.4523 7.02081 25.4849 7.07966 25.4876 7.14142C25.491 7.05312 25.5538 6.97961 25.644 6.97369C25.7165 6.97198 25.7917 7.00665 25.8233 7.06982L26.0176 7.45846L26.2119 7.06982C26.2716 6.95068 26.4666 6.95068 26.5264 7.06982L26.7207 7.45846L26.915 7.06982C26.9586 6.98278 27.0639 6.94828 27.1509 6.9912C27.2377 7.03463 27.2729 7.1402 27.2295 7.22706Z" fill="#DDE6F0"/>
<path d="M24.7871 8.73047V10.1191C25.1646 9.99517 25.5041 9.46527 25.6914 8.73047H24.7871Z" fill="#DDE6F0"/>
<path d="M24.7871 4.88086V6.26952H25.6914C25.5041 5.53472 25.1646 5.00482 24.7871 4.88086Z" fill="#DDE6F0"/>
<path d="M23.1755 8.73047H21.9043C22.3848 9.78541 23.4487 10.5 24.6167 10.5C23.9817 10.5 23.4269 9.8007 23.1755 8.73047Z" fill="#DDE6F0"/>
<path d="M26.0525 8.73047C25.8011 9.8007 25.2463 10.5 24.6113 10.5C25.7793 10.5 26.8432 9.78541 27.3237 8.73047H26.0525Z" fill="#DDE6F0"/>
<path d="M21.9043 6.26953H23.1755C23.4269 5.1993 23.9817 4.5 24.6167 4.5C23.4487 4.5 22.3848 5.21459 21.9043 6.26953Z" fill="#DDE6F0"/>
<path d="M24.6113 4.5C25.2463 4.5 25.8011 5.1993 26.0525 6.26953H27.3237C26.8432 5.21459 25.7793 4.5 24.6113 4.5Z" fill="#DDE6F0"/>
<circle cx="36.8937" cy="39.3019" r="7.21698" fill="white"/>
<path d="M35.5332 38.2695H36.4375V36.8809C36.06 37.0048 35.7205 37.5347 35.5332 38.2695Z" fill="#DDE6F0"/>
<path d="M35.5332 40.7305C35.7205 41.4653 36.06 41.9952 36.4375 42.1191V40.7305H35.5332Z" fill="#DDE6F0"/>
<path d="M39.4355 38.6211H33.7871C33.69 38.6211 33.6113 38.6998 33.6113 38.7969V40.2031C33.6113 40.3002 33.69 40.3789 33.7871 40.3789H39.4355C39.5326 40.3789 39.6113 40.3002 39.6113 40.2031V38.7969C39.6113 38.6998 39.5326 38.6211 39.4355 38.6211ZM39.2295 39.2271L38.8779 39.9302C38.8481 39.9898 38.7873 40.0273 38.7207 40.0273C38.6541 40.0273 38.5933 39.9898 38.5635 39.9302L38.3691 39.5415L38.1748 39.9302C38.1151 40.0493 37.9201 40.0493 37.8603 39.9302L37.5235 39.2564C37.5033 39.2315 37.4917 39.2003 37.488 39.167C37.4858 39.1873 37.4814 39.2077 37.4717 39.2271L37.1201 39.9302C37.0903 39.9898 37.0295 40.0273 36.9629 40.0273C36.8963 40.0273 36.8355 39.9898 36.8056 39.9302L36.6113 39.5415L36.417 39.9302C36.3573 40.0493 36.1623 40.0493 36.1025 39.9302L35.751 39.2271C35.7416 39.2084 35.7376 39.1888 35.7353 39.1692C35.7309 39.2071 35.7166 39.2416 35.6934 39.2679L35.3623 39.9302C35.3324 39.9898 35.2717 40.0273 35.2051 40.0273C35.1385 40.0273 35.0777 39.9898 35.0478 39.9302L34.8535 39.5415L34.6592 39.9302C34.6293 39.9898 34.5686 40.0273 34.502 40.0273C34.4353 40.0273 34.3746 39.9898 34.3447 39.9302L33.9931 39.2271C33.9497 39.1402 33.9849 39.0346 34.0718 38.9912C34.1585 38.9483 34.2639 38.9828 34.3076 39.0698L34.502 39.4585L34.6963 39.0698C34.7585 38.945 34.9457 38.9398 35.0108 39.0698L35.2051 39.4585L35.3994 39.0698C35.431 39.0066 35.4974 38.9723 35.568 38.973C35.6588 38.979 35.7311 39.0539 35.7349 39.143C35.737 39.0807 35.7699 39.0211 35.8296 38.9912C35.9166 38.9483 36.0218 38.9828 36.0654 39.0698L36.2598 39.4585L36.4541 39.0698C36.5138 38.9507 36.7088 38.9507 36.7686 39.0698L36.9629 39.4585L37.1572 39.0698C37.2006 38.9828 37.3062 38.9483 37.3931 38.9912C37.4523 39.0208 37.4849 39.0797 37.4876 39.1414C37.491 39.0531 37.5538 38.9796 37.644 38.9737C37.7165 38.972 37.7917 39.0067 37.8233 39.0698L38.0176 39.4585L38.2119 39.0698C38.2716 38.9507 38.4666 38.9507 38.5264 39.0698L38.7207 39.4585L38.915 39.0698C38.9586 38.9828 39.0639 38.9483 39.1509 38.9912C39.2377 39.0346 39.2729 39.1402 39.2295 39.2271Z" fill="#DDE6F0"/>
<path d="M36.7871 40.7305V42.1191C37.1646 41.9952 37.5041 41.4653 37.6914 40.7305H36.7871Z" fill="#DDE6F0"/>
<path d="M36.7871 36.8809V38.2695H37.6914C37.5041 37.5347 37.1646 37.0048 36.7871 36.8809Z" fill="#DDE6F0"/>
<path d="M35.1755 40.7305H33.9043C34.3848 41.7854 35.4487 42.5 36.6167 42.5C35.9817 42.5 35.4269 41.8007 35.1755 40.7305Z" fill="#DDE6F0"/>
<path d="M38.0525 40.7305C37.8011 41.8007 37.2463 42.5 36.6113 42.5C37.7793 42.5 38.8432 41.7854 39.3237 40.7305H38.0525Z" fill="#DDE6F0"/>
<path d="M33.9043 38.2695H35.1755C35.4269 37.1993 35.9817 36.5 36.6167 36.5C35.4487 36.5 34.3848 37.2146 33.9043 38.2695Z" fill="#DDE6F0"/>
<path d="M36.6113 36.5C37.2463 36.5 37.8011 37.1993 38.0525 38.2695H39.3237C38.8432 37.2146 37.7793 36.5 36.6113 36.5Z" fill="#DDE6F0"/>
<path fill-rule="evenodd" clip-rule="evenodd" d="M36.8937 45.7689C40.4654 45.7689 43.3607 42.8736 43.3607 39.3019C43.3607 35.7303 40.4654 32.835 36.8937 32.835C33.3221 32.835 30.4268 35.7303 30.4268 39.3019C30.4268 42.8736 33.3221 45.7689 36.8937 45.7689ZM36.8937 46.5189C40.8796 46.5189 44.1107 43.2878 44.1107 39.3019C44.1107 35.3161 40.8796 32.085 36.8937 32.085C32.9079 32.085 29.6768 35.3161 29.6768 39.3019C29.6768 43.2878 32.9079 46.5189 36.8937 46.5189Z" fill="#DDE6F0"/>
</svg>
