<svg width="24" height="24" viewBox="0 0 24 24" fill="none" xmlns="http://www.w3.org/2000/svg">
<path d="M10.8008 18.2998C10.8008 17.902 10.9588 17.5204 11.2401 17.2391C11.5214 16.9578 11.903 16.7998 12.3008 16.7998C12.6986 16.7998 13.0801 16.9578 13.3614 17.2391C13.6427 17.5204 13.8008 17.902 13.8008 18.2998C13.8008 18.6976 13.6427 19.0792 13.3614 19.3605C13.0801 19.6418 12.6986 19.7998 12.3008 19.7998C11.903 19.7998 11.5214 19.6418 11.2401 19.3605C10.9588 19.0792 10.8008 18.6976 10.8008 18.2998ZM10.8008 12.2998C10.8008 11.902 10.9588 11.5204 11.2401 11.2391C11.5214 10.9578 11.903 10.7998 12.3008 10.7998C12.6986 10.7998 13.0801 10.9578 13.3614 11.2391C13.6427 11.5204 13.8008 11.902 13.8008 12.2998C13.8008 12.6976 13.6427 13.0792 13.3614 13.3605C13.0801 13.6418 12.6986 13.7998 12.3008 13.7998C11.903 13.7998 11.5214 13.6418 11.2401 13.3605C10.9588 13.0792 10.8008 12.6976 10.8008 12.2998ZM10.8008 6.2998C10.8008 5.90198 10.9588 5.52045 11.2401 5.23914C11.5214 4.95784 11.903 4.7998 12.3008 4.7998C12.6986 4.7998 13.0801 4.95784 13.3614 5.23914C13.6427 5.52045 13.8008 5.90198 13.8008 6.2998C13.8008 6.69763 13.6427 7.07916 13.3614 7.36047C13.0801 7.64177 12.6986 7.7998 12.3008 7.7998C11.903 7.7998 11.5214 7.64177 11.2401 7.36047C10.9588 7.07916 10.8008 6.69763 10.8008 6.2998Z" fill="black"/>
</svg>
