<svg width="82" height="84" viewBox="0 0 82 84" fill="none" xmlns="http://www.w3.org/2000/svg">
<g opacity="0.05" filter="url(#filter0_f_3054_1277)">
<ellipse cx="41" cy="76.5" rx="18" ry="3.5" fill="black"/>
</g>
<path d="M41.7904 57.3587C58.4354 52.4197 57.6033 39.078 57.6033 35.2099V24.5867L41.7904 18.1836L25.9774 24.5867V35.2099C25.9699 39.078 25.1416 52.4197 41.7904 57.3587Z" fill="#5CB1FF"/>
<path d="M41.4233 58.1129L41.0994 58.0158C24.3219 53.0675 24.4273 39.7537 24.465 35.3805C24.465 35.1938 24.465 35.0071 24.465 34.8652V23.5158L41.412 16.6777L58.3589 23.5158V34.8652C58.3589 35.022 58.3589 35.1938 58.3589 35.3805C58.3928 39.7537 58.502 53.0675 41.7245 58.0308L41.4233 58.1129ZM26.7359 25.0096V34.8652C26.7359 35.0257 26.7359 35.205 26.7359 35.3992C26.6982 39.7425 26.6078 51.2338 41.4233 55.7863C56.25 51.2338 56.1558 39.7276 56.1106 35.3992C56.1106 35.205 56.1106 35.0257 56.1106 34.8652V25.0245L41.4233 19.094L26.7359 25.0096Z" fill="#87CCFF"/>
<path d="M41.4725 23.457V35.5014H50.0808L40.8852 51.3316V40.2189H32L41.4725 23.457Z" fill="white"/>
<rect x="37.125" y="2.375" width="1.69546" height="1.69546" transform="rotate(63.7951 37.125 2.375)" fill="#5CB1FF"/>
<rect x="58.125" y="4.07031" width="0.94913" height="0.94913" rx="0.474565" transform="rotate(30 58.125 4.07031)" fill="#5CB1FF"/>
<rect x="12.6797" y="31.1953" width="0.94913" height="0.94913" rx="0.474565" transform="rotate(30 12.6797 31.1953)" fill="#5CB1FF"/>
<rect x="22.5156" y="6.10352" width="0.94913" height="0.94913" rx="0.474565" transform="rotate(30 22.5156 6.10352)" fill="#5CB1FF"/>
<rect x="4.88281" y="15.2578" width="0.94913" height="0.94913" rx="0.474565" transform="rotate(30 4.88281 15.2578)" fill="#5CB1FF"/>
<rect x="65.2422" y="10.5117" width="0.94913" height="0.94913" rx="0.474565" transform="rotate(30 65.2422 10.5117)" fill="#5CB1FF"/>
<rect x="73.7188" y="33.5703" width="0.94913" height="0.94913" rx="0.474565" transform="rotate(30 73.7188 33.5703)" fill="#5CB1FF"/>
<rect x="71.6875" y="49.8477" width="0.94913" height="0.94913" rx="0.474565" transform="rotate(30 71.6875 49.8477)" fill="#5CB1FF"/>
<rect x="2.17188" y="59.002" width="0.94913" height="0.94913" rx="0.474565" transform="rotate(30 2.17188 59.002)" fill="#5CB1FF"/>
<rect x="13.7031" y="60.6973" width="0.94913" height="0.94913" rx="0.474565" transform="rotate(30 13.7031 60.6973)" fill="#5CB1FF"/>
<rect x="7.9375" y="50.5254" width="0.94913" height="0.94913" rx="0.474565" transform="rotate(30 7.9375 50.5254)" fill="#5CB1FF"/>
<rect x="13.3594" y="40.6914" width="0.94913" height="0.94913" rx="0.474565" transform="rotate(30 13.3594 40.6914)" fill="#5CB1FF"/>
<rect x="80.8438" y="22.041" width="0.94913" height="0.94913" rx="0.474565" transform="rotate(30 80.8438 22.041)" fill="#5CB1FF"/>
<rect x="81.1797" y="8.13672" width="0.94913" height="0.94913" rx="0.474565" transform="rotate(30 81.1797 8.13672)" fill="#5CB1FF"/>
<rect x="48.7969" y="6.44336" width="1.69546" height="1.69546" transform="rotate(51.3417 48.7969 6.44336)" fill="#5CB1FF"/>
<rect x="10.8516" y="10.623" width="1.69546" height="1.69546" transform="rotate(-41.7194 10.8516 10.623)" fill="#5CB1FF"/>
<rect x="2.39062" y="26.5371" width="1.69546" height="1.69546" transform="rotate(130.668 2.39062 26.5371)" fill="#5CB1FF"/>
<rect x="70.8359" width="1.69546" height="1.69546" transform="rotate(51.3417 70.8359 0)" fill="#5CB1FF"/>
<rect x="74.2344" y="13.9023" width="1.69546" height="1.69546" transform="rotate(51.3417 74.2344 13.9023)" fill="#5CB1FF"/>
<rect x="79.3203" y="40.3516" width="1.69546" height="1.69546" transform="rotate(51.3417 79.3203 40.3516)" fill="#5CB1FF"/>
<rect x="80.6172" y="56.3945" width="1.69546" height="1.69546" transform="rotate(117.48 80.6172 56.3945)" fill="#5CB1FF"/>
<defs>
<filter id="filter0_f_3054_1277" x="19" y="69" width="44" height="15" filterUnits="userSpaceOnUse" color-interpolation-filters="sRGB">
<feFlood flood-opacity="0" result="BackgroundImageFix"/>
<feBlend mode="normal" in="SourceGraphic" in2="BackgroundImageFix" result="shape"/>
<feGaussianBlur stdDeviation="2" result="effect1_foregroundBlur_3054_1277"/>
</filter>
</defs>
</svg>
