<svg width="80" height="76" xmlns="http://www.w3.org/2000/svg" xmlns:xlink="http://www.w3.org/1999/xlink"><defs><path d="M62.986 32.624a19.966 19.966 0 0 0-6.72-1.157c-11.045 0-20 8.954-20 20 0 4.285 1.348 8.255 3.642 11.51 3.62 5.135 26.408-29.166 23.078-30.353z" id="a"/></defs><g fill="none" fill-rule="evenodd"><path d="M0 6.138C0 1.793.67 0 5.014 0H58.18c4.344 0 4.754 1.793 4.754 6.138v26.129c-5.014-1.045-8.836-1.134-11.466-.267-1.473.485-4.85 1.683-7.467 3.467-.677.46-2.1 1.972-4.267 4.533-.795 1.38-1.328 2.358-1.6 2.933a19.39 19.39 0 0 0-1.333 3.734c-.246.975-.461 1.954-.533 2.933-.1 1.363 0 2.67 0 3.467 0 2.607 1.066 5.896 3.2 9.866H5.014C.67 62.933 0 61.486 0 57.141V6.138zm57.916 17.084H33.45v8.534l18.04-.017 2.91-.272h3.467l.05-8.245zM42.933 36.267l-9.483.048v8.533l3.883-.048c.462-1.102.818-1.902 1.067-2.4.25-.498.516-1.12.8-1.867.463-.542.907-1.075 1.333-1.6.427-.524 1.227-1.413 2.4-2.666zm-6.666 13.066l-2.817.11v8.502l3.617-.078c-.442-1.862-.708-3.284-.8-4.267-.092-.983-.092-2.405 0-4.267zm-6.74 8.612v-8.502H4.993l.068 6.291c0 1.565.656 2.243 4.044 2.243l20.422-.032zM4.993 44.848h24.534v-8.533H4.993v8.533zm0-13.092h24.534v-8.534H4.993v8.534zm52.923-21.78H33.45v8.534h24.466V9.977zM4.993 18.51h24.534V9.977H4.993v8.533z" fill="#0D6EFD" fill-rule="nonzero"/><use stroke="#FFF" xlink:href="#a"/><g transform="translate(40 35.2)" fill="#0D6EFD" fill-rule="nonzero"><path d="M28.693 16.213c0-6.892-5.587-12.48-12.48-12.48-6.892 0-12.48 5.588-12.48 12.48 0 6.893 5.588 12.48 12.48 12.48 6.893 0 12.48-5.587 12.48-12.48zm-2.36 12.784a16.167 16.167 0 0 1-10.085 3.509C7.273 32.506 0 25.23 0 16.253S7.273 0 16.248 0c8.976 0 16.249 7.275 16.249 16.253 0 3.813-1.313 7.321-3.508 10.087l10.46 10.463a1.874 1.874 0 0 1-2.648 2.649L26.333 28.997z"/></g></g></svg>