<svg width="249" height="40" fill="none" xmlns="http://www.w3.org/2000/svg"><path d="M39.2 32c6.627 0 12-5.373 12-12s-5.373-12-12-12c-6.22 0-11.334 4.732-11.94 10.793a22.463 22.463 0 0 0-7.813-1.947C20.96 7.3 29.227 0 39.2 0c11.046 0 20 8.954 20 20 0 10.643-8.313 19.344-18.8 19.965V40H27.22v-1.745c0-2.268-.936-4.473-2.65-6.121-1.718-1.654-4.08-2.607-6.57-2.607s-4.852.953-6.57 2.607c-1.714 1.648-2.65 3.853-2.65 6.12V40H0v-1.788c0-4.675 1.94-9.121 5.333-12.372 3.285-3.147 7.672-4.93 12.238-5.035a18.566 18.566 0 0 1 .761-.002c4.601.082 9.027 1.868 12.335 5.037A17.367 17.367 0 0 1 34.816 32H39.2z" fill="#5233DD"/><path d="M21.677 34.925c.975.848 1.523 1.998 1.523 3.197V40H12.8v-1.878c0-1.2.548-2.35 1.523-3.197.975-.849 2.298-1.325 3.677-1.325 1.38 0 2.702.476 3.677 1.325zm22.105-16.889a2.618 2.618 0 0 1-2.618-2.618v-.654a1.964 1.964 0 0 0-3.928 0v.654a2.618 2.618 0 0 1-2.618 2.618h-.654a1.964 1.964 0 0 0 0 3.928h.654a2.618 2.618 0 0 1 2.618 2.618v.654a1.964 1.964 0 1 0 3.928 0v-.654a2.618 2.618 0 0 1 2.618-2.618h.654a1.964 1.964 0 1 0 0-3.928h-.654zM11.2 3.2a3.2 3.2 0 0 0 3.2 3.2h.8a2.4 2.4 0 1 1 0 4.8h-.8a3.2 3.2 0 0 0-3.2 3.2v.8a2.4 2.4 0 1 1-4.8 0v-.8a3.2 3.2 0 0 0-3.2-3.2h-.8a2.4 2.4 0 1 1 0-4.8h.8a3.2 3.2 0 0 0 3.2-3.2v-.8a2.4 2.4 0 0 1 4.8 0v.8z" fill="#5233DD"/><path d="M239.278 13.239c6.009 0 8.909 4.198 8.909 9.06v9.13h-6.289v-8.045c0-2.204-.803-4.023-3.109-4.023s-3.075 1.819-3.075 4.023v8.045h-6.289v-8.045c0-2.204-.769-4.023-3.075-4.023s-3.109 1.819-3.109 4.023v8.045h-6.29V22.3c0-4.862 2.9-9.06 8.91-9.06 3.284 0 5.66 1.294 6.743 3.428 1.153-2.134 3.669-3.428 6.674-3.428zM205.65 25.832c2.027 0 2.9-1.854 2.9-4.058v-7.836h6.289v8.606c0 5.142-3.005 9.41-9.189 9.41s-9.189-4.268-9.189-9.41v-8.606h6.289v7.836c0 2.204.874 4.058 2.9 4.058zm-18.437 6.157c-3.948 0-6.498-1.364-8.001-4.023l4.542-2.553c.629 1.119 1.573 1.679 3.145 1.679 1.293 0 1.887-.455 1.887-1.015 0-2.134-9.224.035-9.224-6.751 0-3.289 2.795-5.947 7.547-5.947 4.157 0 6.429 2.029 7.442 3.988l-4.542 2.588c-.385-1.05-1.573-1.679-2.761-1.679-.908 0-1.397.385-1.397.91 0 2.169 9.224.175 9.224 6.751 0 3.673-3.599 6.052-7.862 6.052zm-21.972 7.486h-6.289V22.65c0-5.352 4.018-9.235 9.608-9.235 5.45 0 9.608 4.163 9.608 9.235 0 5.597-3.703 9.305-9.259 9.305-1.292 0-2.585-.385-3.668-.98v8.501zm3.319-13.433c1.991 0 3.319-1.539 3.319-3.358 0-1.854-1.328-3.358-3.319-3.358-1.992 0-3.319 1.504-3.319 3.358 0 1.819 1.327 3.358 3.319 3.358zm-15.908-13.958c-2.062 0-3.774-1.714-3.774-3.778s1.712-3.778 3.774-3.778c2.061 0 3.773 1.714 3.773 3.778s-1.712 3.778-3.773 3.778zm-3.145 1.854h6.289V31.43h-6.289V13.94zm-12.066 18.016c-5.451 0-9.609-4.198-9.609-9.305 0-5.072 4.158-9.27 9.609-9.27 5.45 0 9.608 4.198 9.608 9.27 0 5.107-4.158 9.305-9.608 9.305zm0-5.912c1.991 0 3.319-1.539 3.319-3.358 0-1.854-1.328-3.393-3.319-3.393-1.992 0-3.32 1.539-3.32 3.393 0 1.819 1.328 3.358 3.32 3.358zM115.957 40c-4.333 0-7.477-1.924-9.085-5.352l5.206-2.799c.559 1.19 1.608 2.414 3.774 2.414 2.271 0 3.773-1.434 3.948-3.953-.838.735-2.166 1.294-4.158 1.294-4.856 0-8.77-3.743-8.77-8.99 0-5.072 4.158-9.2 9.609-9.2 5.59 0 9.608 3.883 9.608 9.235v6.926c0 6.297-4.367 10.425-10.132 10.425zm.419-14.308c1.887 0 3.319-1.294 3.319-3.218 0-1.889-1.432-3.148-3.319-3.148-1.852 0-3.319 1.259-3.319 3.148 0 1.924 1.467 3.218 3.319 3.218zm-20.172 6.262c-5.45 0-9.608-4.198-9.608-9.305 0-5.072 4.157-9.27 9.608-9.27 5.45 0 9.608 4.198 9.608 9.27 0 5.107-4.158 9.305-9.608 9.305zm0-5.912c1.991 0 3.32-1.539 3.32-3.358 0-1.854-1.329-3.393-3.32-3.393-1.992 0-3.32 1.539-3.32 3.393 0 1.819 1.328 3.358 3.32 3.358zM75.143 7.817v17.666h10.412v5.946H74.269c-3.983 0-5.59-2.098-5.59-5.422V7.817h6.464z" fill="#1D0F5F"/></svg>