<svg width="150" height="150" xmlns="http://www.w3.org/2000/svg"><path d="M0 14.63C0 4.273 1.596 0 11.952 0h126.716C149.023 0 150 4.274 150 14.63v121.565c0 10.355-.977 13.805-11.332 13.805H11.952C1.596 150 0 146.55 0 136.195V14.63zM140.625 37.5h-37.5v28.125h37.5V37.5zm0 37.5h-37.5v28.125h37.5V75zm0 37.5h-37.5v28.125l31.422.103c5.177 0 6.181-1.622 6.181-6.8l-.103-21.428zM93.75 140.625V112.5h-37.5v28.125h37.5zm-46.874 0V112.5h-37.5l.103 20.81c0 5.178 1.004 7.418 6.181 7.418l31.216-.103zm-37.5-37.5h37.5V75h-37.5v28.125zm0-37.5h37.5V37.5h-37.5v28.125zM56.251 37.5v28.125h37.5V37.5h-37.5zM93.75 75h-37.5v28.125h37.5V75z" fill="#0D6EFD"/></svg>