<svg xmlns="http://www.w3.org/2000/svg" xmlns:xlink="http://www.w3.org/1999/xlink" width="80px" height="80px" viewBox="0 0 52 52" version="1.1"><g id="MCP" stroke="none" fill="none" fill-rule="evenodd" stroke-linecap="round" stroke-width="1"><g id="Group" transform="translate(5, 2)" stroke="#0d6efd"><path d="M0,22.0224371 L20.5395177,2.06650928 C23.3754667,-0.688836428 27.9734033,-0.688836428 30.8091404,2.06650928 L30.8091404,2.06650928 C33.6451801,4.8218256 33.6451801,9.28912746 30.8091404,12.0444732 L15.29764,27.1153846" id="Path" stroke-width="4"/><path d="M15.5531915,26.7940689 L30.6556132,11.9993183 C33.4554835,9.25663749 37.9947802,9.25663749 40.7946504,11.9993183 L40.9000973,12.1027621 C43.6999676,14.8454429 43.6999676,19.2922109 40.9000973,22.0348625 L22.5609324,40.0003494 C21.6276822,40.9145178 21.6276822,42.3966763 22.5609324,43.3108447 L26.326613,47" id="Path" stroke-width="4"/><path d="M25.4634632,7.23076923 L10.350122,22.1616004 C7.52868275,24.9489193 7.52868275,29.4682046 10.350122,32.2557316 L10.350122,32.2557316 C13.1715913,35.0429613 17.7461007,35.0429613 20.56757,32.2557316 L35.6808511,17.324841" id="Path" stroke-width="4"/></g></g></svg>