<?xml version="1.0" encoding="utf-8"?>
<!-- License: CC Attribution. Made by Shannon E. Thomas: https://dribbble.com/shannonethomas -->
<svg version="1.1" id="Uploaded to svgrepo.com" xmlns="http://www.w3.org/2000/svg" xmlns:xlink="http://www.w3.org/1999/xlink" 
	 width="16px" height="16px" viewBox="0 0 32 32" xml:space="preserve">
<style type="text/css">
	.puchipuchi_een{fill:#111918;}
</style>
<path class="puchipuchi_een" d="M29.483,11.598L17.402,2.316C17.018,2.021,16.52,1.858,16,1.858s-1.018,0.163-1.402,0.458
	L2.517,11.598C2.266,11.79,1,13,1,14v15c0,1.1,0.9,2,2,2h26c1.1,0,2-0.9,2-2V14C31,13,29.734,11.79,29.483,11.598z M29.613,29.79
	C29.431,29.932,29.215,30,29,30c-0.298,0-0.594-0.133-0.791-0.387l-7.53-9.708l-3.887,2.986c-0.436,0.335-1.15,0.335-1.586,0
	l-3.887-2.986l-7.53,9.708C3.593,29.867,3.298,30,3,30c-0.214,0-0.43-0.068-0.612-0.21c-0.437-0.338-0.516-0.967-0.177-1.403
	l7.525-9.701l-6.608-5.077c-0.436-0.335-0.436-0.883,0-1.219l12.081-9.281C15.425,2.942,15.713,2.858,16,2.858
	s0.575,0.084,0.793,0.251l12.081,9.281c0.436,0.335,0.436,0.883,0,1.219l-6.608,5.077l7.525,9.701
	C30.128,28.823,30.049,29.452,29.613,29.79z"/>
</svg>