<?xml version="1.0" encoding="utf-8"?>
<!-- License: CC Attribution. Made by Shannon E. Thomas: https://dribbble.com/shannonethomas -->
<svg version="1.1" id="Uploaded to svgrepo.com" xmlns="http://www.w3.org/2000/svg" xmlns:xlink="http://www.w3.org/1999/xlink" 
	 width="16px" height="16px" viewBox="0 0 32 32" xml:space="preserve">
<style type="text/css">
	.feather_een{fill:#0B1719;}
</style>
<path class="feather_een" d="M28,6h-1V5c0-1.657-1.343-3-3-3H8C6.343,2,5,3.343,5,5v1H4C2.343,6,1,7.343,1,9v18c0,1.657,1.343,3,3,3
	h24c1.657,0,3-1.343,3-3V9C31,7.343,29.657,6,28,6z M27,7h1c0.37,0,0.712,0.108,1.01,0.283L27,9.293V7z M6,5c0-1.103,0.897-2,2-2h16
	c1.103,0,2,0.897,2,2v5.293l-10,10l-10-10V5z M4,7h1v2.293l-2.01-2.01C3.288,7.108,3.63,7,4,7z M2,27V9
	c0-0.37,0.108-0.712,0.283-1.01L12.293,18L2.283,28.01C2.108,27.712,2,27.37,2,27z M28,29H4c-0.37,0-0.712-0.108-1.01-0.283
	L13,18.707L15.293,21c0.391,0.391,1.024,0.391,1.414,0L19,18.707l10.01,10.01C28.712,28.892,28.37,29,28,29z M30,27
	c0,0.37-0.108,0.712-0.283,1.01L19.707,18l10.01-10.01C29.892,8.288,30,8.63,30,9V27z M12,7.5C12,7.224,12.224,7,12.5,7h7
	C19.776,7,20,7.224,20,7.5S19.776,8,19.5,8h-7C12.224,8,12,7.776,12,7.5z M12,9.5C12,9.224,12.224,9,12.5,9h7
	C19.776,9,20,9.224,20,9.5S19.776,10,19.5,10h-7C12.224,10,12,9.776,12,9.5z M19.5,12h-7c-0.276,0-0.5-0.224-0.5-0.5
	s0.224-0.5,0.5-0.5h7c0.276,0,0.5,0.224,0.5,0.5S19.776,12,19.5,12z"/>
</svg>