<svg width="16" height="16" viewBox="0 0 16 16" fill="none" xmlns="http://www.w3.org/2000/svg">
<g clip-path="url(#clip0_3067_4983)">
<path d="M13.2859 9.80215C12.6686 9.18441 11.8121 8.92271 10.7121 9.2175L6.78965 5.29107L6.84149 5.09503C7.0674 4.24739 6.8233 3.33626 6.20465 2.7176C5.57474 2.08721 4.67924 1.8559 3.83233 2.08854C3.71155 2.12171 3.61754 2.2166 3.58555 2.33771C3.55356 2.45881 3.58865 2.58753 3.67717 2.6761L4.62163 3.62056C4.89775 3.89735 4.89505 4.34065 4.62231 4.61412C4.35172 4.88543 3.8969 4.88501 3.62739 4.6148L2.68274 3.67008C2.59417 3.58146 2.46508 3.54671 2.34397 3.57889C2.22285 3.61104 2.1283 3.70528 2.09526 3.82617C1.86601 4.66378 2.09153 5.56484 2.72446 6.19777C3.34147 6.81523 4.19692 7.07787 5.29757 6.78244L9.22032 10.7089C8.92759 11.8085 9.18011 12.6568 9.80568 13.2823C10.4364 13.9135 11.3323 14.1431 12.1774 13.9112C12.2982 13.8781 12.3922 13.7832 12.4242 13.6621C12.4562 13.541 12.4212 13.4122 12.3326 13.3236L11.3883 12.3794C11.1122 12.1026 11.1149 11.6592 11.3877 11.3858C11.6616 11.1133 12.1154 11.1176 12.3826 11.3855L13.3273 12.3299C13.4159 12.4185 13.545 12.4533 13.666 12.4211C13.7871 12.3889 13.8817 12.2947 13.9147 12.1738C14.144 11.3364 13.9185 10.4351 13.2859 9.80215Z" fill="#57A3E5"/>
<path d="M5.76272 8.24805L2.41135 11.5998C1.86288 12.1483 1.86288 13.0402 2.41135 13.5886C2.95981 14.1371 3.8517 14.1371 4.40014 13.5886L7.75144 10.2369L5.76272 8.24805ZM4.06985 12.4976C3.93251 12.6349 3.71009 12.6349 3.57274 12.4976C3.43542 12.3603 3.43542 12.1378 3.57274 12.0005L5.70509 9.86774C5.84241 9.73042 6.0649 9.73042 6.2022 9.86774C6.33952 10.0051 6.33952 10.2275 6.2022 10.3649L4.06985 12.4976Z" fill="#57A3E5"/>
<path d="M13.8969 2.70906L13.2908 2.10299C13.1767 1.98892 12.9997 1.96712 12.8614 2.05007L10.997 3.16857C10.8008 3.28625 10.7675 3.55689 10.9292 3.71863L11.0777 3.86699L8.71094 6.22403L9.70551 7.2186L12.0722 4.86156L12.2813 5.07064C12.443 5.23234 12.7137 5.19906 12.8313 5.00289L13.9498 3.1385C14.0328 3.00015 14.011 2.82313 13.8969 2.70906Z" fill="#57A3E5"/>
</g>
<defs>
<clipPath id="clip0_3067_4983">
<rect width="12" height="12" fill="white" transform="translate(2 2)"/>
</clipPath>
</defs>
</svg>
