<svg width="9" height="9" viewBox="0 0 9 9" fill="none" xmlns="http://www.w3.org/2000/svg">
<path d="M4.02934 8.81167C4.28963 9.06278 4.71237 9.06278 4.97279 8.81167L8.30479 5.59725C8.56507 5.34602 8.56507 4.93819 8.30479 4.68709C8.0445 4.43599 7.62175 4.43599 7.36147 4.68709L5.16644 6.80659L5.16644 0.642859C5.16644 0.287358 4.86857 0 4.50007 0C4.13143 0 3.83356 0.287358 3.83356 0.642859L3.83356 6.80659L1.63866 4.68914C1.37825 4.43804 0.955498 4.43804 0.695213 4.68914C0.434928 4.94024 0.434928 5.34808 0.695213 5.59918L4.02734 8.81373L4.02934 8.81167Z" fill="#3983EE"/>
</svg>
