<svg width="16" height="15" viewBox="0 0 16 15" fill="none" xmlns="http://www.w3.org/2000/svg">
<rect x="0.726562" width="15" height="15" rx="7.5" fill="#2699FD"/>
<rect x="1.22656" y="0.5" width="14" height="14" rx="7" stroke="white" stroke-opacity="0.75"/>
<g clip-path="url(#clip0_3068_2413)">
<path d="M11.2163 6.01989C11.3185 6.11655 11.3782 6.24986 11.3822 6.39051C11.3862 6.53116 11.3341 6.66763 11.2375 6.76992L8.22986 9.95404C8.18111 10.0056 8.12253 10.0468 8.05759 10.0753C7.99264 10.1038 7.92264 10.119 7.85172 10.1199C7.7808 10.1209 7.7104 10.1077 7.64469 10.081C7.57897 10.0544 7.51927 10.0148 7.4691 9.96466L5.87682 8.3726C5.78307 8.272 5.73203 8.13894 5.73446 8.00145C5.73688 7.86397 5.79259 7.7328 5.88983 7.63556C5.98708 7.53833 6.11827 7.48264 6.25577 7.48021C6.39327 7.47779 6.52635 7.52882 6.62696 7.62256L7.83356 8.82828L10.4661 6.04112C10.5628 5.93887 10.6961 5.87919 10.8368 5.87521C10.9775 5.87123 11.114 5.92327 11.2163 6.01989Z" fill="white"/>
</g>
<defs>
<clipPath id="clip0_3068_2413">
<rect width="6" height="5.99902" fill="white" transform="translate(5.22656 4.5)"/>
</clipPath>
</defs>
</svg>
