<svg width="10" height="9" viewBox="0 0 10 9" fill="none" xmlns="http://www.w3.org/2000/svg">
<path d="M8.84615 0H1.15385C0.847827 0 0.554342 0.118526 0.337954 0.329505C0.121566 0.540483 0 0.826631 0 1.125V6.375C0 6.67337 0.121566 6.95952 0.337954 7.1705C0.554342 7.38147 0.847827 7.5 1.15385 7.5H4.61538V8.25H3.46154C3.35953 8.25 3.2617 8.28951 3.18957 8.35983C3.11744 8.43016 3.07692 8.52554 3.07692 8.625C3.07692 8.72446 3.11744 8.81984 3.18957 8.89017C3.2617 8.96049 3.35953 9 3.46154 9H6.53846C6.64047 9 6.7383 8.96049 6.81043 8.89017C6.88256 8.81984 6.92308 8.72446 6.92308 8.625C6.92308 8.52554 6.88256 8.43016 6.81043 8.35983C6.7383 8.28951 6.64047 8.25 6.53846 8.25H5.38462V7.5H8.84615C9.15217 7.5 9.44566 7.38147 9.66205 7.1705C9.87844 6.95952 10 6.67337 10 6.375V1.125C10 0.826631 9.87844 0.540483 9.66205 0.329505C9.44566 0.118526 9.15217 0 8.84615 0ZM1.15385 0.75H8.84615C8.94816 0.75 9.04599 0.789509 9.11812 0.859835C9.19025 0.930161 9.23077 1.02554 9.23077 1.125V4.875H0.769231V1.125C0.769231 1.02554 0.809753 0.930161 0.881882 0.859835C0.954011 0.789509 1.05184 0.75 1.15385 0.75ZM8.84615 6.75H1.15385C1.05184 6.75 0.954011 6.71049 0.881882 6.64017C0.809753 6.56984 0.769231 6.47446 0.769231 6.375V5.625H9.23077V6.375C9.23077 6.47446 9.19025 6.56984 9.11812 6.64017C9.04599 6.71049 8.94816 6.75 8.84615 6.75Z" fill="#7C7F84"/>
</svg>
