<svg width="16" height="16" viewBox="0 0 16 16" fill="none" xmlns="http://www.w3.org/2000/svg">
<g clip-path="url(#clip0_3156_990)">
<path fill-rule="evenodd" clip-rule="evenodd" d="M11.024 0.978478C11.2193 1.17374 11.2193 1.49032 11.024 1.68558L7.69071 5.01892C7.49545 5.21418 7.17887 5.21418 6.9836 5.01892C6.78834 4.82366 6.78834 4.50707 6.9836 4.31181L10.3169 0.978478C10.5122 0.783216 10.8288 0.783216 11.024 0.978478ZM15.024 0.978478C15.2193 1.17374 15.2193 1.49032 15.024 1.68558L9.69071 7.01892C9.49545 7.21418 9.17887 7.21418 8.9836 7.01892C8.78834 6.82366 8.78834 6.50707 8.9836 6.31181L14.3169 0.978478C14.5122 0.783216 14.8288 0.783216 15.024 0.978478ZM13.6907 6.31181C13.886 6.50707 13.886 6.82366 13.6907 7.01892L11.6907 9.01892C11.4954 9.21418 11.1789 9.21418 10.9836 9.01892C10.7883 8.82366 10.7883 8.50707 10.9836 8.31181L12.9836 6.31181C13.1789 6.11655 13.4954 6.11655 13.6907 6.31181ZM5.08794 7.46584C5.08785 7.46601 5.08802 7.46567 5.08794 7.46584L4.38515 8.8834C4.29269 9.07239 4.14318 9.22614 3.99726 9.33516C3.85089 9.44452 3.66194 9.54339 3.4577 9.57872L3.45494 9.57919L2.17947 9.79243C2.17933 9.79245 2.17961 9.79241 2.17947 9.79243C2.02816 9.81795 1.93622 9.86001 1.88713 9.89365C1.86336 9.90994 1.85105 9.92315 1.84522 9.93062C1.83972 9.93767 1.83849 9.94145 1.83816 9.94248C1.83783 9.94353 1.83656 9.9477 1.83702 9.95738C1.8375 9.96759 1.8401 9.98634 1.85036 10.0143C1.87153 10.072 1.92268 10.1607 2.03146 10.2706L3.02344 11.2705C3.02343 11.2705 3.02345 11.2706 3.02344 11.2705C3.18196 11.4303 3.28196 11.6367 3.33596 11.8267C3.39004 12.0171 3.41292 12.2436 3.36452 12.4608L3.36385 12.4638L3.07985 13.7024C3.03378 13.903 3.03483 14.0376 3.04923 14.1153C3.05361 14.1389 3.05855 14.1545 3.06251 14.1644C3.07253 14.165 3.08775 14.1649 3.1095 14.1621C3.18568 14.1526 3.31223 14.1133 3.48783 14.0083L4.68437 13.2946L4.68613 13.2936C4.89069 13.1727 5.12783 13.1265 5.33799 13.1265C5.54732 13.1265 5.78491 13.1724 5.98921 13.295C5.98958 13.2952 5.98995 13.2954 5.99032 13.2956L7.1836 14.0077C7.36085 14.1133 7.48849 14.1531 7.56551 14.1629C7.58624 14.1656 7.60105 14.1659 7.61108 14.1654C7.61484 14.1556 7.6194 14.1404 7.62346 14.1182C7.6378 14.0401 7.63867 13.9046 7.5924 13.7021L7.30772 12.4612C7.25945 12.2439 7.28224 12.0174 7.33631 11.8269C7.3903 11.6366 7.49016 11.4305 7.64819 11.2706L8.64085 10.2699L8.64207 10.2687C8.75168 10.1589 8.80284 10.0704 8.82388 10.0134C8.83407 9.98573 8.83658 9.96734 8.83704 9.9575C8.83748 9.94819 8.83625 9.94427 8.83596 9.94334C8.83566 9.94242 8.83442 9.93859 8.82878 9.93139C8.82282 9.92379 8.8103 9.91042 8.78626 9.89399C8.73665 9.86008 8.64468 9.81805 8.49337 9.79252L7.21737 9.57919L7.21615 9.57898C7.0104 9.54405 6.82026 9.44573 6.67249 9.33586C6.52542 9.22651 6.37568 9.07252 6.28315 8.88337L5.58048 7.46537C5.45742 7.216 5.35705 7.17333 5.3356 7.16664C5.3142 7.17324 5.21295 7.21537 5.08794 7.46584ZM6.47672 7.02181C6.25156 6.56572 5.86795 6.16588 5.33632 6.16553C4.80519 6.16518 4.42027 6.56393 4.19305 7.01956L4.19252 7.02061L3.48852 8.44061L3.48687 8.44396C3.487 8.4437 3.48554 8.44671 3.48144 8.45267C3.47739 8.45856 3.47149 8.46627 3.46341 8.4754C3.44688 8.49405 3.42482 8.51457 3.39872 8.53407C3.37263 8.55356 3.34661 8.56897 3.32392 8.57963C3.31282 8.58485 3.30371 8.58837 3.2969 8.59061C3.29139 8.59243 3.28823 8.59314 3.28743 8.59331L2.01404 8.80621C1.51745 8.88979 1.04192 9.14449 0.88482 9.64058C0.728339 10.1347 0.967272 10.6173 1.32133 10.9746L2.31352 11.9748C2.32298 11.9844 2.35302 12.0261 2.37402 12.1C2.39465 12.1726 2.39214 12.2256 2.38861 12.2426C2.38856 12.2428 2.38866 12.2423 2.38861 12.2426L2.10518 13.4788C2.10516 13.4788 2.10519 13.4787 2.10518 13.4788C1.98316 14.0102 2.00215 14.6324 2.4672 14.9745C2.93476 15.3185 3.53375 15.146 4.00115 14.8665L5.19486 14.1545C5.19471 14.1546 5.19499 14.1544 5.19486 14.1545C5.21079 14.1453 5.26184 14.1265 5.33799 14.1265C5.41528 14.1265 5.46321 14.1455 5.47466 14.1524L5.47627 14.1534L6.6716 14.8667C7.13837 15.1446 7.73842 15.3202 8.20634 14.9765C8.67236 14.6341 8.68861 14.0102 8.56725 13.4793L8.28392 12.2442C8.28386 12.244 8.28397 12.2445 8.28392 12.2442C8.28028 12.2266 8.27772 12.1725 8.29834 12.0998C8.31928 12.026 8.34928 11.9839 8.35936 11.9736C8.35933 11.9736 8.3594 11.9736 8.35936 11.9736L9.34958 10.9754C9.34984 10.9751 9.3501 10.9749 9.35036 10.9746C9.70666 10.6175 9.94653 10.1345 9.78869 9.63955C9.63067 9.14396 9.15487 8.88979 8.65881 8.8063L7.3835 8.59308C7.38343 8.59307 7.38358 8.5931 7.3835 8.59308C7.37284 8.59118 7.32699 8.57637 7.26916 8.53337C7.2431 8.51399 7.22114 8.49362 7.20472 8.47511C7.19669 8.46606 7.19083 8.45841 7.18682 8.45258C7.1831 8.44717 7.18157 8.44421 7.18144 8.44396L6.47672 7.02181C6.47677 7.0219 6.47668 7.02171 6.47672 7.02181Z" fill="#4D93F8"/>
</g>
<defs>
<clipPath id="clip0_3156_990">
<rect width="16" height="16" fill="white"/>
</clipPath>
</defs>
</svg>
