<svg width="18" height="18" viewBox="0 0 18 18" fill="none" xmlns="http://www.w3.org/2000/svg">
<path d="M17 9.00005C17 4.58175 13.4179 1 8.99954 1C4.58118 1 1 4.58175 1 9.00005C1 13.4183 4.58118 17 8.99954 17C13.4179 17 17 13.4183 17 9.00005Z" fill="#FEF7EE"/>
<path d="M17 9.00005C17 4.58175 13.4179 1 8.99954 1C4.58118 1 1 4.58175 1 9.00005C1 13.4183 4.58118 17 8.99954 17C13.4179 17 17 13.4183 17 9.00005Z" stroke="white" stroke-width="1.48561"/>
<path d="M10.3263 8.37717V7.81213C10.3263 6.47905 9.23147 5.39844 7.88188 5.39844C6.53136 5.39844 5.4375 6.47905 5.4375 7.81213V8.37717C5.4375 8.67052 5.67924 8.90926 5.97604 8.90926H9.7868C10.0845 8.90926 10.3263 8.67052 10.3263 8.37717Z" fill="#F0AE4E"/>
<path d="M11.5846 8.90753C11.6108 8.91042 11.6387 8.91173 11.6667 8.91173H12.111C12.601 8.91173 12.9995 8.51805 12.9995 8.03412V7.81451C12.9995 7.08782 12.4022 6.49805 11.6667 6.49805C11.1758 6.49805 10.7773 6.89172 10.7773 7.37594V7.59518V8.03412V8.36331C10.7773 8.90884 10.3302 9.35058 9.77769 9.35058H9.33343H8.66611H7.11119H6.44479H5.44426C5.1988 9.35058 5 9.54649 5 9.78925C5 10.032 5.1988 10.2282 5.44426 10.2282H5.88854V10.9962C5.88854 11.2993 6.13773 11.5447 6.44479 11.5447H7.11119C7.41825 11.5447 7.66652 11.2993 7.66652 10.9962V10.2282H8.11078V10.9962C8.11078 11.2993 8.35998 11.5447 8.66611 11.5447H9.33343C9.6405 11.5447 9.88876 11.2993 9.88876 10.9962V10.2253C10.6914 10.1787 11.3597 9.63712 11.5846 8.90753ZM11.8889 7.59518C11.9477 7.59518 12.0037 7.61842 12.0457 7.65948C12.0877 7.70055 12.111 7.75636 12.111 7.81451C12.111 7.87275 12.0877 7.92856 12.0457 7.96991C12.0037 8.01097 11.9477 8.03412 11.8889 8.03412C11.8301 8.03412 11.7731 8.01097 11.7311 7.96991C11.6901 7.92856 11.6667 7.87275 11.6667 7.81451C11.6667 7.75636 11.6901 7.70055 11.7311 7.65948C11.7731 7.61842 11.8301 7.59518 11.8889 7.59518Z" fill="#F0AE4E"/>
</svg>
