<svg width="91" height="85" viewBox="0 0 91 85" fill="none" xmlns="http://www.w3.org/2000/svg">
<path d="M3.25781 79.052H81.753V32.6074C81.753 30.9115 80.3782 29.5367 78.6823 29.5367H6.32853C4.63262 29.5367 3.25781 30.9115 3.25781 32.6074V79.052Z" fill="#19335B"/>
<path d="M7.10156 79.052H77.92V36.4458C77.92 34.7499 76.5452 33.3751 74.8492 33.3751H10.1723C8.47637 33.3751 7.10156 34.7499 7.10156 36.4458V79.052Z" fill="white"/>
<path d="M69.351 79.0517H14.3125H7C8.24319 78.2535 17.1418 72.6439 17.9668 75.7703C19.4335 71.6188 23.411 64.7775 27.5874 70.6244C28.1094 69.4312 29.8844 67.5966 32.8078 69.8041C32.0123 67.0447 32.3007 59.6018 39.8181 51.9054C38.4017 52.3539 35.4382 53.7396 34.377 55.8198C35.7123 52.9317 39.0512 47.2577 42.9504 45.1934C43.7459 46.5109 46.0379 49.2951 48.8421 49.8918C47.7483 53.3969 46.2169 61.8988 48.8421 67.865C49.737 67.169 51.4672 66.4779 51.2286 69.282C53.0184 67.8402 56.5087 66.1796 56.1507 71.0719C59.6559 68.1882 66.7706 64.8968 67.1882 74.8008C67.5065 74.5758 71.7757 72.0929 74 73.2642C76.1005 74.3703 76.1609 79.1308 76.5 79.0517H69.351Z" fill="url(#paint0_linear_2310_384)"/>
<path d="M34.2248 56.1563C34.2698 56.0422 34.3207 55.93 34.377 55.8198C34.3229 55.9366 34.2722 56.049 34.2248 56.1563Z" fill="url(#paint1_linear_2310_384)"/>
<path d="M43.101 63.6142C43.2203 57.9463 45.6367 52.4027 46.8299 50.3394H43.101C41.1918 52.3082 39.1236 58.2695 38.3281 61.004C38.5668 60.2284 39.7699 59.4379 40.3416 59.1395C38.1341 62.7789 38.4772 68.7601 38.9247 71.2957C38.6263 67.895 40.8885 63.0176 42.0569 61.004L43.101 63.6142Z" fill="#5EAAF7"/>
<path d="M24.4184 72.0378C21.7977 71.9807 20.1228 74.0451 19.608 75.0992C19.4357 75.4684 19.8256 75.848 20.1901 75.6658L20.9935 75.2641C21.1956 75.163 21.3105 74.9378 21.4516 74.7613C21.8904 74.2124 23.3561 73.9401 24.2978 73.8506C24.4472 73.8364 24.5897 73.7722 24.6842 73.6555C25.3562 72.8253 24.9835 72.301 24.6287 72.092C24.5655 72.0548 24.4918 72.0394 24.4184 72.0378Z" fill="#5284FA"/>
<path d="M49.4936 48.1234C46.8354 46.9498 45.0408 44.5149 44.4757 43.4441L43.4364 43.9025C45.1362 47.8534 47.9263 49.0752 49.1088 49.1922L49.4936 48.1234Z" fill="#1C254F"/>
<path d="M44.836 44.0462C44.6859 43.8182 44.5653 43.614 44.4757 43.4441L43.4364 43.9025C43.5185 44.0935 43.6033 44.2781 43.6902 44.4565L44.836 44.0462Z" fill="#455083"/>
<path d="M39.9258 29.8366L48.9523 26.6135L44.2817 34.9027L38.2766 33.3843C37.9821 33.3099 37.8458 32.9699 38.0073 32.7126L39.6972 30.0201C39.7507 29.935 39.8311 29.8704 39.9258 29.8366Z" fill="#5CB1FF"/>
<path d="M63.1731 51.5079L65.7587 42.2786L57.8155 47.5161L59.749 53.4006C59.8438 53.6892 60.1925 53.8014 60.4379 53.6224L63.006 51.7487C63.0871 51.6895 63.146 51.6047 63.1731 51.5079Z" fill="#5CB1FF"/>
<path d="M48.3383 27.7032L40.3701 30.4557C40.2752 30.4885 40.194 30.5524 40.1397 30.6369L38.3623 33.4059L38.2767 33.3843C37.9822 33.3098 37.8459 32.9698 38.0074 32.7126L39.6973 30.02C39.7507 29.9349 39.8312 29.8703 39.9259 29.8365L48.9523 26.6134L48.3383 27.7032Z" fill="#83C3FE"/>
<path d="M64.6987 42.9677L62.5087 51.1085C62.4826 51.2055 62.4246 51.291 62.344 51.351L59.7057 53.3172L59.7333 53.4012C59.8281 53.6897 60.1768 53.802 60.4221 53.623L62.9902 51.7493C63.0714 51.6901 63.1303 51.6052 63.1574 51.5085L65.743 42.2792L64.6987 42.9677Z" fill="#83C3FE"/>
<path d="M44.9297 38.3623L54.4201 47.2123C53.2403 48.4775 51.2583 48.5467 49.9931 47.3669L45.0843 42.7893C43.8191 41.6095 43.7499 39.6275 44.9297 38.3623Z" fill="#1C254F"/>
<path d="M45.2385 42.9332C44.9113 41.3715 45.1344 39.902 45.4687 38.8649L44.9297 38.3623C43.7499 39.6275 43.8191 41.6095 45.0843 42.7893L45.2385 42.9332Z" fill="#455083"/>
<path d="M44.0728 35.4533C53.9421 12.7857 72.5355 9.3657 79.3287 10.8911L48.3031 44.1624C46.4754 42.7887 44.9137 39.8979 44.0455 37.8995C43.7075 37.1217 43.7342 36.2308 44.0728 35.4533Z" fill="white" stroke="#5CB1FF"/>
<path d="M57.2845 47.7755C79.2084 36.349 81.3231 17.5624 79.3275 10.8921L48.3015 44.163C49.7993 45.8905 52.792 47.2467 54.8462 47.9734C55.6457 48.2563 56.5325 48.1675 57.2845 47.7755Z" fill="white" stroke="#5CB1FF"/>
<path d="M44.0728 35.4533L44.5312 35.6529L44.5312 35.6529L44.0728 35.4533ZM79.3287 10.8911L79.6944 11.2321L80.2891 10.5943L79.4383 10.4032L79.3287 10.8911ZM44.0455 37.8995L43.5869 38.0987L43.5869 38.0987L44.0455 37.8995ZM48.3025 44.1619L48.6682 44.5029L49.0473 44.0964L48.603 43.7623L48.3025 44.1619ZM48.3015 44.163L47.9358 43.822L47.6292 44.1509L47.9237 44.4906L48.3015 44.163ZM54.8462 47.9734L55.0129 47.5021L54.8462 47.9734ZM57.2845 47.7755L57.0534 47.3321L57.2845 47.7755ZM79.3276 10.8923L78.9619 10.5513L78.7664 10.7609L78.8486 11.0356L79.3276 10.8923ZM44.5312 35.6529C54.3082 13.1975 72.6679 9.9079 79.2192 11.3789L79.4383 10.4032C72.403 8.82351 53.5761 12.3739 43.6144 35.2537L44.5312 35.6529ZM44.5041 37.7003C44.2259 37.06 44.2434 36.314 44.5312 35.6529L43.6144 35.2537C43.2251 36.1477 43.1892 37.1834 43.5869 38.0987L44.5041 37.7003ZM48.603 43.7623C47.7593 43.128 46.9503 42.12 46.2362 40.9966C45.5263 39.8799 44.9306 38.6821 44.5041 37.7003L43.5869 38.0987C44.0285 39.1151 44.6476 40.3616 45.3923 41.5331C46.1328 42.6979 47.0182 43.822 48.002 44.5616L48.603 43.7623ZM47.9368 43.8209L47.9358 43.822L48.6672 44.504L48.6682 44.5029L47.9368 43.8209ZM47.9237 44.4906C48.7301 45.4206 49.9133 46.2256 51.127 46.8831C52.3477 47.5444 53.6345 48.0751 54.6794 48.4448L55.0129 47.5021C54.0036 47.145 52.767 46.6342 51.6034 46.0039C50.4328 45.3697 49.3707 44.6329 48.6793 43.8355L47.9237 44.4906ZM54.6794 48.4448C55.6203 48.7777 56.6509 48.6696 57.5156 48.2189L57.0534 47.3321C56.414 47.6654 55.671 47.7349 55.0129 47.5021L54.6794 48.4448ZM57.5156 48.2189C79.6445 36.6855 81.8732 17.6571 79.8066 10.749L78.8486 11.0356C80.7729 17.4684 78.7719 36.0127 57.0534 47.3321L57.5156 48.2189ZM78.963 10.5501L78.9619 10.5513L79.6933 11.2333L79.6944 11.2321L78.963 10.5501Z" fill="#5CB1FF"/>
<path d="M68.3766 13.0452C72.1684 11.7208 76.2714 11.6048 78.1811 11.7306C78.3776 11.7435 78.5386 11.8872 78.5679 12.0819C78.9673 14.7395 78.068 19.2857 77.4768 21.5895C77.4255 21.789 77.2413 21.9249 77.0356 21.9123C71.6076 21.5808 68.896 16.4563 68.1027 13.5578C68.0434 13.3409 68.1643 13.1194 68.3766 13.0452Z" fill="#5CB1FF"/>
<path d="M49.6343 42.7462C52.3529 45.0995 55.769 46.0123 58.4758 46.1794C69.8947 39.9281 75.3018 31.5103 77.4631 24.3576C76.9435 23.8834 76.2601 23.5663 75.5357 23.4494C73.238 23.0784 71.4751 22.0598 70.1437 20.7528L49.6343 42.7462Z" fill="white"/>
<path d="M70.1384 20.7521L49.6292 42.7458C47.6052 40.9935 45.9678 38.4426 45.2979 34.8064C50.5837 22.9045 58.4556 16.762 65.4182 13.9428C66.2458 14.3677 66.919 15.1498 67.2439 16.0707C67.8084 17.6704 68.7327 19.372 70.1384 20.7521Z" fill="white"/>
<circle cx="64.553" cy="25.8577" r="3.05769" transform="rotate(43 64.553 25.8577)" stroke="black" stroke-width="0.149156"/>
<circle cx="64.982" cy="26.2647" r="5.96623" transform="rotate(43 64.982 26.2647)" fill="#5CB1FF"/>
<circle cx="64.9847" cy="26.2647" r="5.0713" transform="rotate(43 64.9847 26.2647)" fill="#2F4971"/>
<path d="M61.7493 30.1706C63.8015 31.8731 66.851 31.6983 68.6928 29.7232C70.5347 27.7481 70.4963 24.6938 68.6548 22.7654C66.6027 21.0629 63.5532 21.2377 61.7113 23.2129C59.8695 25.188 59.9078 28.2423 61.7493 30.1706Z" fill="#19335B"/>
<circle cx="64.9805" cy="26.2645" r="3.87805" transform="rotate(43 64.9805 26.2645)" fill="white"/>
<path opacity="0.1" d="M64.8762 27.9865C64.7797 27.9626 64.6825 27.9202 64.5891 27.8679C64.247 27.6759 63.7174 27.7701 63.917 28.1078C63.9436 28.1529 63.9642 28.165 64.0062 28.1962C64.2989 28.4135 64.8358 28.6947 65.06 28.373C65.2255 28.1355 65.1906 28.0408 65.1129 28.0118C65.0383 27.984 64.9535 28.0056 64.8762 27.9865Z" fill="#3982EF"/>
<path opacity="0.1" d="M66.6133 27.7153C66.9602 27.3024 67.1313 26.7894 67.2034 26.321C67.3055 25.6581 66.6495 24.6535 66.3627 25.2598C66.3446 25.298 66.3312 25.3369 66.3222 25.3732C66.2643 25.7262 66.0758 26.1431 65.8763 26.5031C65.6152 26.9744 65.2207 27.6194 65.6329 27.9665C65.7087 28.0303 65.799 28.0631 65.8922 28.0748C66.1724 28.1101 66.4316 27.9315 66.6133 27.7153Z" fill="#3982EF"/>
<path opacity="0.1" d="M67.654 24.6274C67.5094 24.3918 67.3309 24.1716 67.1189 23.9739C65.8537 22.7941 63.8717 22.8633 62.6919 24.1284C61.8247 25.0584 61.6323 26.3757 62.0937 27.477C63.3406 23.8265 66.0088 23.9289 67.654 24.6274Z" fill="#3982EF"/>
<path d="M78.6113 12.3905C78.5999 12.2851 78.5867 12.1822 78.5716 12.082C78.5423 11.8873 78.3813 11.7436 78.1848 11.7307C76.2751 11.6049 72.1721 11.7209 68.3803 13.0453C68.168 13.1195 68.0471 13.341 68.1064 13.5579C68.1623 13.7622 68.2278 13.9775 68.303 14.2014C72.0557 12.4505 76.2865 12.2311 78.6113 12.3905Z" fill="#83C3FE"/>
<path d="M57.528 32.7714C57.9064 32.3426 58.5641 32.3105 58.9823 32.7006C59.4006 33.0906 59.4146 33.749 59.0131 34.1564L48.7495 44.5728C48.5164 44.8094 48.1373 44.8174 47.8944 44.5909C47.6515 44.3644 47.6331 43.9857 47.8528 43.7367L57.528 32.7714Z" fill="url(#paint2_linear_2310_384)"/>
<path d="M59.0493 32.7749C57.2493 34.4501 53.8069 37.8941 47.7078 44.2706C47.6687 44.0868 47.7143 43.8878 47.8477 43.7366L57.5229 32.7714C57.9013 32.3425 58.559 32.3105 58.9773 32.7006C59.0028 32.7244 59.0268 32.7492 59.0493 32.7749Z" fill="#83C3FE"/>
<path d="M0 79H85V81.9293C85 83.6252 83.6252 85 81.9293 85H3.07072C1.37481 85 0 83.6252 0 81.9293V79Z" fill="#19335B"/>
<path d="M52.6641 79.052C52.238 80.7075 50.7352 81.9308 48.9467 81.9308H36.28C34.4914 81.9308 32.9886 80.7075 32.5625 79.052H52.6641Z" fill="#E3EDFB"/>
<path d="M47.1797 79.0516H76.5C76.5 79.0516 76.2429 74.2793 74 73.2642C72.337 72.5114 69.3478 73.7181 69.3478 73.7181C68.6497 73.8809 67.8038 74.3632 67.185 74.8006C66.9319 68.7984 64.219 67.6427 61.3406 68.3055C61.8751 71.1498 61.0721 74.3679 55.6254 74.2786C55.526 75.0741 54.8051 76.3369 52.7169 75.0244C52.344 76.0684 50.8823 77.8434 48.0185 76.5905C48.0748 77.2385 47.9092 78.2634 47.1797 79.0516Z" fill="#1E5BCB"/>
<defs>
<linearGradient id="paint0_linear_2310_384" x1="74.9818" y1="45.8947" x2="63.6899" y2="91.1036" gradientUnits="userSpaceOnUse">
<stop stop-color="#3CA2E5"/>
<stop offset="0.55" stop-color="#387EEF"/>
<stop offset="1" stop-color="#3665F6"/>
</linearGradient>
<linearGradient id="paint1_linear_2310_384" x1="74.9818" y1="45.8947" x2="63.6899" y2="91.1036" gradientUnits="userSpaceOnUse">
<stop stop-color="#3CA2E5"/>
<stop offset="0.55" stop-color="#387EEF"/>
<stop offset="1" stop-color="#3665F6"/>
</linearGradient>
<linearGradient id="paint2_linear_2310_384" x1="59.4829" y1="33.6278" x2="54.5782" y2="30.9163" gradientUnits="userSpaceOnUse">
<stop stop-color="#3CA2E5"/>
<stop offset="0.55" stop-color="#387EEF"/>
<stop offset="1" stop-color="#3665F6"/>
</linearGradient>
</defs>
</svg>
