<svg width="164" height="173" viewBox="0 0 164 173" fill="none" xmlns="http://www.w3.org/2000/svg">
<rect x="24.6172" y="18.5273" width="115.07" height="119.621" rx="2" fill="white"/>
<rect x="31.1172" y="36.4062" width="102.068" height="30.2302" rx="2" fill="#E7EEF6"/>
<rect x="31.1172" y="72.6367" width="102.068" height="22.754" rx="2" fill="#E7EEF6"/>
<rect x="39.2422" y="106.293" width="23.4041" height="3.25056" fill="#E7EEF6"/>
<rect x="70.4453" y="106.293" width="23.4041" height="3.25056" fill="#E7EEF6"/>
<rect x="101.656" y="106.293" width="23.4041" height="3.25056" fill="#E7EEF6"/>
<rect x="39.2422" y="113.443" width="23.4041" height="3.25056" fill="#E7EEF6"/>
<rect x="70.4453" y="113.443" width="23.4041" height="3.25056" fill="#E7EEF6"/>
<rect x="101.656" y="113.443" width="23.4041" height="3.25056" fill="#E7EEF6"/>
<rect x="39.2422" y="120.595" width="23.4041" height="3.25056" fill="#E7EEF6"/>
<rect x="70.4453" y="120.596" width="23.4041" height="3.25056" fill="#E7EEF6"/>
<rect x="101.656" y="120.596" width="23.4041" height="3.25056" fill="#E7EEF6"/>
<path d="M31.1183 18.5273C27.5278 18.5273 24.6172 21.438 24.6172 25.0285V29.9043H139.687V25.0285C139.687 21.438 136.777 18.5273 133.186 18.5273H31.1183Z" fill="#1C254F"/>
<path fill-rule="evenodd" clip-rule="evenodd" d="M131.929 115.71L139.779 117.813L138.938 120.953L127.948 118.009L130.893 107.019L134.033 107.861L131.929 115.71Z" fill="url(#paint0_linear_1_231)"/>
<path d="M98.6828 46.1582H78.5746H65.4552C64.5678 46.1582 63.8484 46.8776 63.8484 47.765C63.8484 53.9768 58.8127 59.0124 52.6009 59.0124H47.375V87.0921C51.4684 113.25 72.5427 126.612 82.5682 130.023C111.222 117.443 117.637 96.1608 117.262 87.0921V59.0124H111.537C105.325 59.0124 100.29 53.9768 100.29 47.765C100.29 46.8776 99.5702 46.1582 98.6828 46.1582Z" fill="url(#paint1_linear_1_231)"/>
<path d="M96.6778 51.2754H79.0145H67.49C66.7109 51.2754 66.0793 51.907 66.0793 52.6861C66.0793 58.1399 61.6581 62.5611 56.2043 62.5611H51.6094V87.2144C55.2049 110.18 73.7162 121.912 82.5224 124.906C107.691 113.862 113.326 95.1765 112.997 87.2144V62.5611H107.963C102.51 62.5611 98.0885 58.1399 98.0885 52.6861C98.0885 51.907 97.4569 51.2754 96.6778 51.2754Z" fill="url(#paint2_linear_1_231)"/>
<path d="M82.8047 124.78V51.2754H96.6735C97.4526 51.2754 98.0842 51.907 98.0842 52.6861C98.0842 58.1399 102.505 62.5611 107.959 62.5611H112.993V87.2144C113.32 95.1461 107.73 113.72 82.8047 124.78Z" fill="#65ACF7"/>
<g clip-path="url(#clip0_1_231)">
<path d="M95.9193 88.9899C94.3308 87.4002 92.1267 86.7267 89.296 87.4854L79.2021 77.3812L79.3355 76.8768C79.9169 74.6955 79.2887 72.3508 77.6967 70.7588C76.0757 69.1365 73.7713 68.5413 71.5919 69.14C71.2811 69.2253 71.0392 69.4695 70.9568 69.7811C70.8745 70.0928 70.9648 70.424 71.1926 70.652L73.623 73.0824C74.3336 73.7947 74.3266 74.9355 73.6248 75.6392C72.9285 76.3374 71.758 76.3363 71.0645 75.6409L68.6336 73.2098C68.4056 72.9818 68.0734 72.8923 67.7618 72.9752C67.4501 73.0579 67.2068 73.3004 67.1218 73.6115C66.5318 75.767 67.1122 78.0857 68.7409 79.7145C70.3287 81.3034 72.5301 81.9793 75.3625 81.2191L85.4571 91.3232C84.7038 94.1531 85.3536 96.3358 86.9635 97.9457C88.5865 99.5699 90.892 100.161 93.0667 99.5641C93.3775 99.4788 93.6195 99.2345 93.7019 98.9229C93.7843 98.6112 93.6941 98.2799 93.4661 98.0519L91.0362 95.622C90.3257 94.9097 90.3326 93.7689 91.0345 93.0652C91.7395 92.3639 92.9073 92.375 93.5948 93.0643L96.0259 95.4948C96.2538 95.7227 96.586 95.8121 96.8976 95.7293C97.2092 95.6465 97.4525 95.4041 97.5376 95.0931C98.1275 92.938 97.5473 90.6186 95.9193 88.9899Z" fill="white" fill-opacity="0.95"/>
<path d="M76.5661 84.9907L67.9418 93.6161C66.5305 95.0274 66.5305 97.3226 67.9418 98.7339C69.3532 100.145 71.6484 100.145 73.0597 98.7339L81.6838 90.1088L76.5661 84.9907ZM72.2098 95.9263C71.8564 96.2797 71.284 96.2797 70.9305 95.9263C70.5772 95.5729 70.5772 95.0004 70.9305 94.647L76.4178 89.1587C76.7712 88.8054 77.3438 88.8054 77.6971 89.1587C78.0505 89.5121 78.0505 90.0846 77.6971 90.438L72.2098 95.9263Z" fill="white" fill-opacity="0.95"/>
<path d="M97.4975 70.7368L95.9379 69.1771C95.6444 68.8836 95.1888 68.8275 94.8328 69.0409L90.0351 71.9193C89.5303 72.2221 89.4446 72.9185 89.8607 73.3348L90.2426 73.7165L84.1522 79.7821L86.7116 82.3415L92.802 76.2759L93.34 76.814C93.7562 77.2301 94.4527 77.1444 94.7555 76.6396L97.6338 71.8419C97.8472 71.4859 97.7911 71.0303 97.4975 70.7368Z" fill="white" fill-opacity="0.95"/>
</g>
<circle cx="32.7425" cy="24.055" r="1.62528" fill="#F3F8FE"/>
<circle cx="39.2503" cy="24.055" r="1.62528" fill="#F3F8FE"/>
<circle cx="45.7425" cy="24.055" r="1.62528" fill="#F3F8FE"/>
<path fill-rule="evenodd" clip-rule="evenodd" d="M82.1528 3.25056C45.3504 3.25056 15.5162 33.0848 15.5162 69.8871C15.5162 83.0901 19.3543 95.3916 25.975 105.743L23.2367 107.494C16.2915 96.6358 12.2656 83.7291 12.2656 69.8871C12.2656 31.2895 43.5552 0 82.1528 0C120.75 0 152.04 31.2895 152.04 69.8871C152.04 88.4974 144.764 105.412 132.904 117.935L130.544 115.699C141.855 103.756 148.789 87.6332 148.789 69.8871C148.789 33.0848 118.955 3.25056 82.1528 3.25056Z" fill="url(#paint3_linear_1_231)"/>
<g opacity="0.1" filter="url(#filter0_f_1_231)">
<ellipse cx="82" cy="158.765" rx="72" ry="3.73815" fill="black"/>
</g>
<defs>
<filter id="filter0_f_1_231" x="0" y="145.027" width="164" height="27.4763" filterUnits="userSpaceOnUse" color-interpolation-filters="sRGB">
<feFlood flood-opacity="0" result="BackgroundImageFix"/>
<feBlend mode="normal" in="SourceGraphic" in2="BackgroundImageFix" result="shape"/>
<feGaussianBlur stdDeviation="5" result="effect1_foregroundBlur_1_231"/>
</filter>
<linearGradient id="paint0_linear_1_231" x1="141.898" y1="109.991" x2="127.508" y2="113.213" gradientUnits="userSpaceOnUse">
<stop stop-color="#5189F9"/>
<stop offset="1" stop-color="#65D3F6"/>
</linearGradient>
<linearGradient id="paint1_linear_1_231" x1="117.277" y1="46.1582" x2="47.375" y2="130.268" gradientUnits="userSpaceOnUse">
<stop stop-color="#3DA1E6"/>
<stop offset="0.496032" stop-color="#397EF0"/>
<stop offset="1" stop-color="#3768F6"/>
</linearGradient>
<linearGradient id="paint2_linear_1_231" x1="113.01" y1="51.2754" x2="51.6428" y2="125.15" gradientUnits="userSpaceOnUse">
<stop stop-color="#50B0F2"/>
<stop offset="0.496032" stop-color="#5190F9"/>
<stop offset="1" stop-color="#507BF8"/>
</linearGradient>
<linearGradient id="paint3_linear_1_231" x1="11.9937" y1="117.708" x2="159.669" y2="26.1281" gradientUnits="userSpaceOnUse">
<stop stop-color="#5189F9"/>
<stop offset="1" stop-color="#65D3F6"/>
</linearGradient>
<clipPath id="clip0_1_231">
<rect width="30.8804" height="30.8804" fill="white" transform="translate(66.8828 68.9121)"/>
</clipPath>
</defs>
</svg>
