<svg width="16" height="16" viewBox="0 0 16 16" fill="none" xmlns="http://www.w3.org/2000/svg">
<path fill-rule="evenodd" clip-rule="evenodd" d="M10.7149 7.66837L9.30069 6.25415L3.24234 12.3125L4.65655 13.7267L10.7149 7.66837ZM5.36366 14.4338C4.97313 14.8243 4.33997 14.8243 3.94945 14.4338L2.53523 13.0196C2.14471 12.6291 2.14471 11.9959 2.53523 11.6054L12.4347 1.7059C12.8253 1.31537 13.4584 1.31537 13.8489 1.7059L15.2632 3.12011C15.6537 3.51064 15.6537 4.1438 15.2632 4.53433L5.36366 14.4338ZM10.0078 5.54704L13.1418 2.41301L14.556 3.82722L11.422 6.96126L10.0078 5.54704Z" fill="#4D93F8"/>
<path d="M3.82812 2.17188L4.219 3.34451C4.41807 3.94172 4.8867 4.41035 5.48391 4.60942L6.65655 5.0003L5.48391 5.39118C4.8867 5.59025 4.41807 6.05888 4.219 6.65609L3.82812 7.82873L3.43725 6.65609C3.23818 6.05888 2.76954 5.59025 2.17234 5.39118L0.999698 5.0003L2.17234 4.60942C2.76955 4.41035 3.23818 3.94172 3.43725 3.34451L3.82812 2.17188Z" fill="#4D93F8"/>
<path d="M12.6562 9L13.0471 10.1726C13.2462 10.7698 13.7148 11.2385 14.312 11.4375L15.4847 11.8284L14.312 12.2193C13.7148 12.4184 13.2462 12.887 13.0471 13.4842L12.6562 14.6569L12.2654 13.4842C12.0663 12.887 11.5977 12.4184 11.0005 12.2193L9.82782 11.8284L11.0005 11.4375C11.5977 11.2385 12.0663 10.7698 12.2654 10.1726L12.6562 9Z" fill="#4D93F8"/>
<path d="M7.17188 1L7.19151 1.0589C7.39058 1.65611 7.85921 2.12474 8.45642 2.32381L8.51532 2.34345L8.45642 2.36308C7.85921 2.56215 7.39058 3.03078 7.19151 3.62799L7.17188 3.6869L7.15224 3.62799C6.95317 3.03078 6.48454 2.56215 5.88733 2.36308L5.82843 2.34345L5.88733 2.32381C6.48454 2.12474 6.95317 1.65611 7.15224 1.0589L7.17188 1Z" fill="#4D93F8"/>
</svg>
