<svg width="9" height="12" viewBox="0 0 9 12" fill="none" xmlns="http://www.w3.org/2000/svg">
<g clip-path="url(#clip0_3133_14330)">
<path d="M1.875 1.125C1.66875 1.125 1.5 1.29375 1.5 1.5V10.5C1.5 10.7063 1.66875 10.875 1.875 10.875H7.125C7.33125 10.875 7.5 10.7063 7.5 10.5V1.5C7.5 1.29375 7.33125 1.125 7.125 1.125H1.875ZM0.375 1.5C0.375 0.672656 1.04766 0 1.875 0H7.125C7.95234 0 8.625 0.672656 8.625 1.5V10.5C8.625 11.3273 7.95234 12 7.125 12H1.875C1.04766 12 0.375 11.3273 0.375 10.5V1.5ZM3.75 9.375H5.25C5.45625 9.375 5.625 9.54375 5.625 9.75C5.625 9.95625 5.45625 10.125 5.25 10.125H3.75C3.54375 10.125 3.375 9.95625 3.375 9.75C3.375 9.54375 3.54375 9.375 3.75 9.375Z" fill="#7C7F84"/>
</g>
<defs>
<clipPath id="clip0_3133_14330">
<rect width="9" height="12" fill="white"/>
</clipPath>
</defs>
</svg>
