<svg width="16" height="16" viewBox="0 0 16 16" fill="none" xmlns="http://www.w3.org/2000/svg">
<rect width="16" height="16" rx="8" fill="#22B73A"/>
<rect x="1" y="1" width="14" height="14" rx="7" stroke="white" stroke-opacity="0.75" stroke-width="2"/>
<path d="M7.23884 5.73493C7.23884 5.43917 7.47879 5.19922 7.77455 5.19922H8.1317C8.42746 5.19922 8.66741 5.43917 8.66741 5.73493V9.6635C8.66741 9.95926 8.42746 10.1992 8.1317 10.1992H7.77455C7.47879 10.1992 7.23884 9.95926 7.23884 9.6635V5.73493ZM5.45312 7.87779C5.45312 7.58203 5.69308 7.34208 5.98884 7.34208H6.34598C6.64174 7.34208 6.8817 7.58203 6.8817 7.87779V9.6635C6.8817 9.95926 6.64174 10.1992 6.34598 10.1992H5.98884C5.69308 10.1992 5.45312 9.95926 5.45312 9.6635V7.87779ZM9.56027 6.69922H9.91741C10.2132 6.69922 10.4531 6.93917 10.4531 7.23493V9.6635C10.4531 9.95926 10.2132 10.1992 9.91741 10.1992H9.56027C9.26451 10.1992 9.02455 9.95926 9.02455 9.6635V7.23493C9.02455 6.93917 9.26451 6.69922 9.56027 6.69922Z" fill="white" fill-opacity="0.88"/>
</svg>
