<svg width="14" height="14" viewBox="0 0 14 14" fill="none" xmlns="http://www.w3.org/2000/svg">
<path d="M10.0937 6.12545H13.5342C13.5757 6.12546 13.6164 6.13732 13.6515 6.15963C13.6866 6.18194 13.7146 6.21379 13.7322 6.25143C13.7498 6.28907 13.7564 6.33096 13.751 6.37218C13.7457 6.4134 13.7288 6.45226 13.7022 6.4842L11.9819 8.5492C11.9614 8.57382 11.9357 8.59362 11.9067 8.60721C11.8776 8.62081 11.846 8.62785 11.8139 8.62785C11.7819 8.62785 11.7502 8.62081 11.7212 8.60721C11.6921 8.59362 11.6664 8.57382 11.6459 8.5492L9.92567 6.4842C9.89907 6.45226 9.88211 6.4134 9.8768 6.37218C9.87148 6.33096 9.87802 6.28907 9.89565 6.25143C9.91327 6.21379 9.94126 6.18194 9.97633 6.15963C10.0114 6.13732 10.0521 6.12546 10.0937 6.12545ZM0.468668 7.87545H3.90917C3.95073 7.87543 3.99143 7.86358 4.0265 7.84126C4.06158 7.81895 4.08956 7.78711 4.10719 7.74947C4.12482 7.71183 4.13136 7.66994 4.12604 7.62872C4.12072 7.58749 4.10377 7.54864 4.07717 7.5167L2.35692 5.4517C2.33639 5.42708 2.3107 5.40727 2.28167 5.39368C2.25264 5.38009 2.22097 5.37305 2.18892 5.37305C2.15686 5.37305 2.1252 5.38009 2.09617 5.39368C2.06714 5.40727 2.04145 5.42708 2.02092 5.4517L0.300668 7.5167C0.274066 7.54864 0.257114 7.58749 0.251797 7.62872C0.24648 7.66994 0.253018 7.71183 0.270646 7.74947C0.288274 7.78711 0.316262 7.81895 0.351332 7.84126C0.386402 7.86358 0.427102 7.87543 0.468668 7.87545Z" fill="#CFD7E7"/>
<path fill-rule="evenodd" clip-rule="evenodd" d="M6.99769 2.62502C5.63969 2.62502 4.42519 3.24365 3.62281 4.21577C3.58698 4.26221 3.54218 4.30097 3.49107 4.32975C3.43996 4.35852 3.38359 4.37673 3.3253 4.38328C3.26702 4.38984 3.20801 4.3846 3.15178 4.36789C3.09556 4.35118 3.04327 4.32334 2.99803 4.28602C2.95278 4.24869 2.9155 4.20265 2.8884 4.15063C2.86131 4.09861 2.84495 4.04167 2.8403 3.9832C2.83565 3.92473 2.84281 3.86593 2.86134 3.81028C2.87987 3.75463 2.90941 3.70328 2.94819 3.65927C3.58885 2.88361 4.43883 2.30828 5.39702 2.00172C6.35521 1.69516 7.38129 1.67026 8.35322 1.93C9.32515 2.18973 10.202 2.72316 10.8795 3.46685C11.5571 4.21053 12.0067 5.13317 12.1751 6.12502H11.2852C11.0832 5.13698 10.5461 4.24901 9.7649 3.61127C8.98367 2.97353 8.00617 2.62514 6.99769 2.62502ZM2.71019 7.87502C2.87583 8.68407 3.267 9.42974 3.83848 10.0259C4.40997 10.622 5.13845 11.0444 5.93978 11.244C6.74111 11.4437 7.58258 11.4126 8.36697 11.1543C9.15136 10.896 9.84667 10.421 10.3726 9.78427C10.4084 9.73783 10.4532 9.69907 10.5043 9.67029C10.5554 9.64152 10.6118 9.62331 10.6701 9.61676C10.7284 9.6102 10.7874 9.61544 10.8436 9.63215C10.8998 9.64886 10.9521 9.6767 10.9973 9.71403C11.0426 9.75135 11.0799 9.79739 11.107 9.84941C11.1341 9.90143 11.1504 9.95837 11.1551 10.0168C11.1597 10.0753 11.1526 10.1341 11.134 10.1898C11.1155 10.2454 11.086 10.2968 11.0472 10.3408C10.4065 11.1164 9.55655 11.6918 8.59836 11.9983C7.64017 12.3049 6.61409 12.3298 5.64216 12.07C4.67023 11.8103 3.79335 11.2769 3.11583 10.5332C2.4383 9.78951 1.98863 8.86687 1.82031 7.87502H2.71019Z" fill="#CFD7E7"/>
</svg>
