<svg width="18" height="18" viewBox="0 0 18 18" fill="none" xmlns="http://www.w3.org/2000/svg">
<path d="M17 9.00005C17 4.58175 13.4179 1 8.99954 1C4.58118 1 1 4.58175 1 9.00005C1 13.4183 4.58118 17 8.99954 17C13.4179 17 17 13.4183 17 9.00005Z" fill="#E9FBEE"/>
<path d="M17 9.00005C17 4.58175 13.4179 1 8.99954 1C4.58118 1 1 4.58175 1 9.00005C1 13.4183 4.58118 17 8.99954 17C13.4179 17 17 13.4183 17 9.00005Z" stroke="white" stroke-width="1.48561"/>
<path d="M10.4081 5.70105C10.4902 5.48694 10.4286 5.23709 10.2606 5.09943C10.0926 4.96185 9.86392 4.97436 9.70712 5.12742L6.1521 8.62742C6.01303 8.76499 5.96264 8.98525 6.02891 9.17883C6.09331 9.37268 6.26036 9.5039 6.44516 9.5039H7.99354L6.92583 12.3068C6.8437 12.5209 6.90435 12.7708 7.07235 12.9084C7.24035 13.046 7.46997 13.0335 7.62677 12.8804L11.1818 9.38043C11.3199 9.24286 11.3703 9.02258 11.305 8.82901C11.2396 8.63516 11.0745 8.50552 10.8887 8.50552H9.34035L10.4081 5.70105Z" fill="#61CB70"/>
</svg>
