<svg width="48" height="50" viewBox="0 0 48 50" fill="none" xmlns="http://www.w3.org/2000/svg">
<g opacity="0.05" filter="url(#filter0_f_3156_916)">
<ellipse cx="24.0051" cy="44.7832" rx="10.5363" ry="2.04883" fill="black"/>
</g>
<path d="M24.4643 33.5807C34.2075 30.6896 33.7205 22.8796 33.7205 20.6153V14.3967L24.4643 10.6484L15.2082 14.3967V20.6153C15.2038 22.8796 14.719 30.6896 24.4643 33.5807Z" fill="#5CB1FF"/>
<path d="M24.2492 34.021L24.0597 33.9641C14.2389 31.0675 14.3006 23.2738 14.3227 20.7139C14.3227 20.6046 14.3227 20.4952 14.3227 20.4122V13.7685L24.2426 9.76562L34.1626 13.7685V20.4122C34.1626 20.504 34.1626 20.6046 34.1626 20.7139C34.1824 23.2738 34.2463 31.0675 24.4256 33.9729L24.2492 34.021ZM15.652 14.6429V20.4122C15.652 20.5062 15.652 20.6111 15.652 20.7248C15.6299 23.2673 15.577 29.9941 24.2492 32.659C32.9281 29.9941 32.873 23.2585 32.8465 20.7248C32.8465 20.6111 32.8465 20.5062 32.8465 20.4122V14.6517L24.2492 11.1801L15.652 14.6429Z" fill="#87CCFF"/>
<path d="M24.2791 13.7344V20.7849H29.318L23.9353 30.0516V23.5464H18.7344L24.2791 13.7344Z" fill="white"/>
<rect width="0.992478" height="0.992449" transform="matrix(0.441565 0.897229 -0.897213 0.441599 21.7344 1.39062)" fill="#5CB1FF"/>
<rect width="0.555582" height="0.555595" rx="0.277791" transform="matrix(0.866015 0.500018 -0.499982 0.866036 34.0234 2.38281)" fill="#5CB1FF"/>
<rect width="0.555582" height="0.555595" rx="0.277791" transform="matrix(0.866015 0.500018 -0.499982 0.866036 7.42188 18.2617)" fill="#5CB1FF"/>
<rect width="0.555582" height="0.555595" rx="0.277791" transform="matrix(0.866015 0.500018 -0.499982 0.866036 13.1797 3.57031)" fill="#5CB1FF"/>
<rect width="0.555582" height="0.555595" rx="0.277791" transform="matrix(0.866015 0.500018 -0.499982 0.866036 2.85938 8.92969)" fill="#5CB1FF"/>
<rect width="0.555582" height="0.555595" rx="0.277791" transform="matrix(0.866015 0.500018 -0.499982 0.866036 38.1875 6.15234)" fill="#5CB1FF"/>
<rect width="0.555582" height="0.555595" rx="0.277791" transform="matrix(0.866015 0.500018 -0.499982 0.866036 43.1484 19.6523)" fill="#5CB1FF"/>
<rect width="0.555582" height="0.555595" rx="0.277791" transform="matrix(0.866015 0.500018 -0.499982 0.866036 41.9609 29.1797)" fill="#5CB1FF"/>
<rect width="0.555582" height="0.555595" rx="0.277791" transform="matrix(0.866015 0.500018 -0.499982 0.866036 1.27344 34.5391)" fill="#5CB1FF"/>
<rect width="0.555582" height="0.555595" rx="0.277791" transform="matrix(0.866015 0.500018 -0.499982 0.866036 8.02344 35.5312)" fill="#5CB1FF"/>
<rect width="0.555582" height="0.555595" rx="0.277791" transform="matrix(0.866015 0.500018 -0.499982 0.866036 4.64844 29.5742)" fill="#5CB1FF"/>
<rect width="0.555582" height="0.555595" rx="0.277791" transform="matrix(0.866015 0.500018 -0.499982 0.866036 7.82031 23.8203)" fill="#5CB1FF"/>
<rect width="0.555582" height="0.555595" rx="0.277791" transform="matrix(0.866015 0.500018 -0.499982 0.866036 47.3203 12.9023)" fill="#5CB1FF"/>
<rect width="0.555582" height="0.555595" rx="0.277791" transform="matrix(0.866015 0.500018 -0.499982 0.866036 47.5156 4.76172)" fill="#5CB1FF"/>
<rect width="0.992469" height="0.992458" transform="matrix(0.624656 0.7809 -0.780871 0.624692 28.5625 3.77344)" fill="#5CB1FF"/>
<rect width="0.992461" height="0.992466" transform="matrix(0.746397 -0.665501 0.665466 0.746428 6.35156 6.21875)" fill="#5CB1FF"/>
<rect width="0.992467" height="0.99246" transform="matrix(-0.651658 0.758513 -0.758483 -0.651693 1.39844 15.5352)" fill="#5CB1FF"/>
<rect width="0.992469" height="0.992458" transform="matrix(0.624656 0.7809 -0.780871 0.624692 41.4609 0)" fill="#5CB1FF"/>
<rect width="0.992469" height="0.992458" transform="matrix(0.624656 0.7809 -0.780871 0.624692 43.4531 8.13672)" fill="#5CB1FF"/>
<rect width="0.992469" height="0.992458" transform="matrix(0.624656 0.7809 -0.780871 0.624692 46.4297 23.6211)" fill="#5CB1FF"/>
<rect width="0.992477" height="0.99245" transform="matrix(-0.461416 0.887184 -0.887166 -0.461451 47.1875 33.0117)" fill="#5CB1FF"/>
<defs>
<filter id="filter0_f_3156_916" x="11.1273" y="40.3929" width="25.7532" height="8.78058" filterUnits="userSpaceOnUse" color-interpolation-filters="sRGB">
<feFlood flood-opacity="0" result="BackgroundImageFix"/>
<feBlend mode="normal" in="SourceGraphic" in2="BackgroundImageFix" result="shape"/>
<feGaussianBlur stdDeviation="1.17073" result="effect1_foregroundBlur_3156_916"/>
</filter>
</defs>
</svg>
