<svg width="16" height="16" viewBox="0 0 16 16" fill="none" xmlns="http://www.w3.org/2000/svg">
<rect width="16" height="16" rx="8" fill="#2699FD"/>
<rect x="0.5" y="0.5" width="15" height="15" rx="7.5" stroke="white" stroke-opacity="0.75"/>
<path fill-rule="evenodd" clip-rule="evenodd" d="M6.61198 6.33073C6.61198 5.41006 7.35798 4.66406 8.27865 4.66406C9.19931 4.66406 9.94531 5.41006 9.94531 6.33073V7.33073H10.0786C10.372 7.33073 10.612 7.57073 10.612 7.86406V10.1974C10.612 10.6374 10.252 10.9974 9.81198 10.9974H6.74531C6.30531 10.9974 5.94531 10.6374 5.94531 10.1974V7.86406C5.94531 7.57073 6.18531 7.33073 6.47865 7.33073H6.61198V6.33073ZM9.27865 6.33073V7.33073H7.27865V6.33073C7.27865 5.77806 7.72598 5.33073 8.27865 5.33073C8.83131 5.33073 9.27865 5.77806 9.27865 6.33073ZM8.27865 8.08073C8.14609 8.08059 8.01744 8.1256 7.91389 8.20835C7.81034 8.2911 7.73805 8.40665 7.70894 8.53596C7.67984 8.66528 7.69564 8.80066 7.75375 8.9198C7.81186 9.03893 7.90882 9.13472 8.02865 9.1914V9.9974C8.02865 10.0637 8.05499 10.1273 8.10187 10.1742C8.14875 10.2211 8.21234 10.2474 8.27865 10.2474C8.34495 10.2474 8.40854 10.2211 8.45542 10.1742C8.50231 10.1273 8.52865 10.0637 8.52865 9.9974V9.1914C8.64847 9.13472 8.74543 9.03893 8.80354 8.9198C8.86165 8.80066 8.87746 8.66528 8.84835 8.53596C8.81924 8.40665 8.74696 8.2911 8.6434 8.20835C8.53985 8.1256 8.4112 8.08059 8.27865 8.08073Z" fill="white"/>
</svg>
