<svg width="380" height="580" viewBox="0 0 380 580" fill="none" xmlns="http://www.w3.org/2000/svg">
<g clip-path="url(#clip0_3156_521)">
<rect width="380" height="580" rx="4" fill="#F6F8FD"/>
<g opacity="0.2" filter="url(#filter0_f_3156_521)">
<path d="M-6.65357 74.0309C-0.746826 74.2945 5.37883 74.3632 11.6831 74.1999L1.93148 93.3824L-6.65357 74.0309Z" fill="#060234"/>
<path d="M21.6276 73.7455C27.1159 73.3948 32.7172 72.8636 38.4072 72.1295L30.0136 90.9464L21.6276 73.7455Z" fill="#060234"/>
<path d="M46.4372 70.9526C51.856 70.0798 57.3429 69.0186 62.8775 67.75L57.8739 87.8414L46.4372 70.9526Z" fill="#060234"/>
<path d="M93.9228 58.4889C99.6112 56.3728 105.31 54.0106 110.998 51.3833L109.613 72.6224L93.9228 58.4889Z" fill="#060234"/>
<path d="M70.4054 65.9054C76.1065 64.4124 81.8479 62.6937 87.6078 60.7291L84.7813 81.1194L70.4054 65.9054Z" fill="#060234"/>
<path d="M93.9228 58.4887C99.6111 56.3726 105.31 54.0106 110.998 51.3833L109.613 72.6219L93.9228 58.4887Z" fill="#060234"/>
<path d="M119.116 47.4451C124.405 44.7561 129.677 41.8286 134.913 38.647L135.071 59.846L119.116 47.4451Z" fill="#060234"/>
<path d="M142.629 33.7498C147.661 30.4237 152.653 26.8524 157.59 23.0216L162.545 43.8973L142.629 33.7498Z" fill="#060234"/>
<path d="M162.761 18.8962C167.159 15.29 171.507 11.4704 175.795 7.42729L181.895 27.8323L162.761 18.8962Z" fill="#060234"/>
<path d="M179.423 3.93611C183.463 -0.0255056 187.446 -4.19149 191.362 -8.57063L198.805 11.0914L179.423 3.93611Z" fill="#060234"/>
<path d="M-60.8292 65.0883C-6.99055 82.169 122.138 87.2658 207.942 -28.9927" stroke="#060234" stroke-width="0.515168" stroke-linecap="round" stroke-linejoin="round"/>
</g>
<g opacity="0.2" filter="url(#filter1_f_3156_521)">
<path d="M149.172 -11.1328C151.779 -6.52852 154.854 -1.62339 158.391 3.47593L138.936 5.83513L149.172 -11.1328Z" fill="#060234"/>
<path d="M162.805 9.58203C166.116 14.0258 169.759 18.5791 173.732 23.1768L154.547 27.5234L162.805 9.58203Z" fill="#060234"/>
<path d="M178.482 28.554C182.473 32.9171 186.756 37.2972 191.329 41.6395L170.869 48.3082L178.482 28.554Z" fill="#060234"/>
<path d="M198.686 48.347C202.815 51.9798 207.151 55.565 211.694 59.0693L192.453 66.4397L198.686 48.347Z" fill="#060234"/>
<path d="M218.202 63.9172C222.651 67.1317 227.281 70.2611 232.091 73.2776L214.347 83.9464L218.202 63.9172Z" fill="#060234"/>
<path d="M260.593 88.679C266.112 91.205 271.812 93.5643 277.691 95.7286L261.694 109.768L260.593 88.679Z" fill="#060234"/>
<path d="M238.715 77.2956C243.802 80.2711 249.077 83.1156 254.539 85.7993L238.122 98.2188L238.715 77.2956Z" fill="#060234"/>
<path d="M260.593 88.6789C266.112 91.2048 271.811 93.5641 277.691 95.7284L261.694 109.767L260.593 88.6789Z" fill="#060234"/>
<path d="M286.221 98.6867C291.862 100.525 297.66 102.183 303.612 103.636L288.733 118.737L286.221 98.6867Z" fill="#060234"/>
<path d="M312.524 105.627C318.435 106.833 324.49 107.838 330.689 108.62L319.432 126.885L312.524 105.627Z" fill="#060234"/>
<path d="M337.265 109.361C342.925 109.921 348.7 110.295 354.591 110.468L344.476 129.21L337.265 109.361Z" fill="#060234"/>
<path d="M359.623 110.563C365.281 110.618 371.042 110.488 376.908 110.161L368.268 129.327L359.623 110.563Z" fill="#060234"/>
<path d="M383.018 109.751C388.633 109.31 394.341 108.688 400.141 107.874L393.943 126.725L383.018 109.751Z" fill="#060234"/>
<path d="M146.506 -16.0736C172.498 34.074 260.201 128.986 403.081 107.451" stroke="#060234" stroke-width="0.515168" stroke-linecap="round" stroke-linejoin="round"/>
</g>
<path d="M-7.53638 69.1715C-1.62964 69.4351 4.49602 69.5038 10.8002 69.3405L1.04867 88.5231L-7.53638 69.1715Z" fill="#EDADAA"/>
<path d="M20.7448 68.8862C26.233 68.5354 31.8344 68.0042 37.5244 67.2701L29.1308 86.0871L20.7448 68.8862Z" fill="#F2BE61"/>
<path d="M45.5544 66.0932C50.9732 65.2205 56.4601 64.1592 61.9947 62.8906L56.9911 82.982L45.5544 66.0932Z" fill="#5D659A"/>
<path d="M93.04 53.6256C98.7284 51.5095 104.427 49.1474 110.115 46.52L108.731 67.7591L93.04 53.6256Z" fill="#FF0000"/>
<path d="M69.5226 61.0461C75.2237 59.5531 80.965 57.8343 86.725 55.8697L83.8985 76.2601L69.5226 61.0461Z" fill="#DF6C57"/>
<path d="M93.04 53.6254C98.7283 51.5093 104.427 49.1473 110.115 46.52L108.73 67.7587L93.04 53.6254Z" fill="#568E87"/>
<path d="M118.241 42.5857C123.53 39.8967 128.802 36.9692 134.038 33.7876L134.196 54.9866L118.241 42.5857Z" fill="#EDADAA"/>
<path d="M141.746 28.8865C146.778 25.5604 151.771 21.9891 156.707 18.1583L161.663 39.034L141.746 28.8865Z" fill="#F2BE61"/>
<path d="M161.886 14.0368C166.284 10.4306 170.632 6.61105 174.92 2.56792L181.02 22.9729L161.886 14.0368Z" fill="#5D659A"/>
<path d="M178.541 -0.923261C182.581 -4.88488 186.563 -9.05087 190.479 -13.43L197.922 6.23201L178.541 -0.923261Z" fill="#DF6C57"/>
<path d="M-61.712 60.2289C-7.87336 77.3096 121.255 82.4064 207.059 -33.8521" stroke="#A381FA" stroke-width="0.515168" stroke-linecap="round" stroke-linejoin="round"/>
<path d="M151.984 -15.1875C154.592 -10.5832 157.666 -5.67807 161.203 -0.578758L141.748 1.78044L151.984 -15.1875Z" fill="#DF6C57"/>
<path d="M165.617 5.52734C168.928 9.97111 172.572 14.5244 176.544 19.1221L157.359 23.4687L165.617 5.52734Z" fill="#568E87"/>
<path d="M181.295 24.4993C185.285 28.8624 189.568 33.2425 194.141 37.5848L173.682 44.2535L181.295 24.4993Z" fill="#EDADAA"/>
<path d="M201.499 44.2924C205.627 47.9251 209.964 51.5103 214.506 55.0146L195.266 62.385L201.499 44.2924Z" fill="#F2BE61"/>
<path d="M221.014 59.8625C225.463 63.0771 230.093 66.2064 234.904 69.223L217.159 79.8917L221.014 59.8625Z" fill="#5D659A"/>
<path d="M263.406 84.6243C268.924 87.1503 274.624 89.5096 280.504 91.6739L264.507 105.713L263.406 84.6243Z" fill="#FF0000"/>
<path d="M241.535 73.2409C246.622 76.2165 251.897 79.0609 257.359 81.7446L240.942 94.1641L241.535 73.2409Z" fill="#DF6C57"/>
<path d="M263.406 84.6242C268.924 87.1501 274.624 89.5094 280.504 91.6737L264.507 105.713L263.406 84.6242Z" fill="#568E87"/>
<path d="M289.033 94.6359C294.675 96.4745 300.472 98.1319 306.425 99.5851L291.546 114.686L289.033 94.6359Z" fill="#EDADAA"/>
<path d="M315.337 101.572C321.247 102.779 327.303 103.783 333.502 104.565L322.245 122.83L315.337 101.572Z" fill="#F2BE61"/>
<path d="M340.086 105.311C345.745 105.87 351.521 106.244 357.412 106.417L347.296 125.159L340.086 105.311Z" fill="#5D659A"/>
<path d="M362.435 106.512C368.093 106.567 373.855 106.438 379.72 106.11L371.08 125.276L362.435 106.512Z" fill="#DF6C57"/>
<path d="M149.319 -20.1283C175.31 30.0193 263.014 124.931 405.894 103.396" stroke="#A381FA" stroke-width="0.515168" stroke-linecap="round" stroke-linejoin="round"/>
<rect x="67.1016" y="278.156" width="151.732" height="144.507" fill="#EEF2FD"/>
<path d="M194.768 368.056C197.078 369.124 198.744 367.506 199.288 366.564C196.629 366.714 195.146 365.096 194.737 364.268C193.131 361.212 195.274 357.704 196.547 356.332C194.883 357.678 193.449 360.161 192.94 361.235C191.531 365.212 193.571 367.439 194.768 368.056Z" fill="#4C53E6"/>
<path d="M201.104 356.514C203.733 360.871 205.304 360.122 205.761 359.203L204.988 356.317C201.408 353.452 201.658 348.961 202.23 347.074C198.774 348.45 200.154 354.941 201.104 356.514Z" fill="#4C53E6"/>
<path d="M204.702 343.183C208.361 353.9 213.31 354.842 215.326 353.974L215.062 351.936C210.548 350.748 203.951 341.733 207.11 337.476C204.264 339.026 204.319 341.926 204.702 343.183Z" fill="#4C53E6"/>
<path d="M216.857 345.546C219.876 347.999 221.952 346.196 222.612 344.988C219.071 345.937 209.541 335.556 212.597 331.222C207.046 334.116 212.184 341.75 216.857 345.546Z" fill="#4C53E6"/>
<path d="M199.294 366.56L200.092 365.405C200.856 364.3 200.994 362.878 200.458 361.646C200.347 361.392 200.012 361.332 199.82 361.534L199.067 362.325C198.64 362.774 198.711 363.55 198.946 364.124C199.278 364.939 199.329 365.981 199.294 366.56Z" fill="#5F65F6"/>
<path d="M215.324 353.97C212.837 345.526 205.47 345.878 202.098 347.11C202.418 345.787 203.7 345.041 204.3 344.834C209.422 342.958 213.377 345.75 215.689 348.636C216.952 350.214 216.624 352.422 215.324 353.97Z" fill="#5F65F6"/>
<path d="M205.665 359.37C204.615 353.353 199.09 354.945 196.459 356.494C197.542 355.078 199.118 354.001 199.771 353.639C202.805 352.219 204.906 353.446 206.155 355.045C207.165 356.338 206.731 358.122 205.665 359.37Z" fill="#5F65F6"/>
<path d="M222.626 345.003C219.381 334.469 209.023 335.688 206.889 337.691C212.789 330.33 221.764 337.065 223.266 340.046C225.061 343.069 223.593 344.414 222.626 345.003Z" fill="#5F65F6"/>
<path d="M219.836 330.409L221.513 328.273C214.828 327.252 212.846 330.033 212.699 331.056C215.626 328.866 218.468 330.026 219.836 330.409Z" fill="#5F65F6"/>
<path d="M121.836 414.346C123.002 411.822 121.235 410.002 120.206 409.408C120.37 412.312 118.603 413.932 117.699 414.379C114.361 416.133 110.53 413.792 109.031 412.402C110.501 414.22 113.213 415.786 114.386 416.342C118.729 417.88 121.162 415.652 121.836 414.346Z" fill="#D8B639"/>
<path d="M109.238 407.43C113.997 404.558 113.179 402.843 112.175 402.344L109.023 403.189C105.894 407.098 100.99 406.825 98.9283 406.201C100.431 409.974 107.52 408.467 109.238 407.43Z" fill="#D8B639"/>
<path d="M94.6736 403.503C106.378 399.507 107.407 394.102 106.459 391.9L104.233 392.189C102.936 397.118 93.0901 404.323 88.4413 400.873C90.1342 403.982 93.3015 403.922 94.6736 403.503Z" fill="#D8B639"/>
<path d="M97.2538 390.224C99.9325 386.927 97.9637 384.66 96.6444 383.938C97.6808 387.806 86.3433 398.215 81.6102 394.876C84.7702 400.939 93.1081 395.327 97.2538 390.224Z" fill="#D8B639"/>
<path d="M120.209 409.406L118.947 408.534C117.74 407.7 116.188 407.549 114.842 408.135C114.564 408.257 114.499 408.622 114.719 408.832L115.663 409.729C116.112 410.157 116.881 410.081 117.448 409.829C118.35 409.428 119.553 409.366 120.209 409.406Z" fill="#F5D253"/>
<path d="M106.461 391.904C97.2389 394.62 97.6237 402.665 98.9688 406.348C97.5237 405.999 96.7094 404.599 96.4829 403.944C94.4338 398.349 97.483 394.03 100.636 391.506C102.359 390.126 104.771 390.484 106.461 391.904Z" fill="#F5D253"/>
<path d="M112.357 402.451C105.786 403.598 107.525 409.632 109.216 412.505C107.67 411.323 106.494 409.601 106.099 408.888C104.548 405.575 105.888 403.28 107.634 401.916C109.046 400.813 110.995 401.287 112.357 402.451Z" fill="#F5D253"/>
<path d="M96.6598 383.93C85.1548 387.474 86.4872 398.787 88.6743 401.118C80.635 394.674 87.9908 384.872 91.2462 383.231C94.5482 381.271 96.0167 382.874 96.6598 383.93Z" fill="#F5D253"/>
<path d="M80.7234 386.975L78.3901 385.143C77.2753 392.444 80.3122 394.609 81.4302 394.77C79.0384 391.572 80.3048 388.469 80.7234 386.975Z" fill="#F5D253"/>
<rect x="175.484" y="177" width="151.732" height="144.507" fill="#EEF2FD"/>
<path fill-rule="evenodd" clip-rule="evenodd" d="M275.18 295.73C274.865 291.623 276.965 288.914 278.234 287.923C278.334 287.845 278.477 287.872 278.549 287.976C278.622 288.08 278.596 288.222 278.497 288.301C277.425 289.147 275.657 291.377 275.608 294.766C275.6 295.365 275.738 295.954 275.872 296.538C276.092 297.496 276.264 298.754 276.233 300.104C276.192 301.929 275.781 303.944 274.599 305.614C274.187 306.216 273.57 307.317 273.076 308.644C273 308.847 272.927 309.056 272.858 309.269C272.095 311.627 273.024 314.14 272.951 316.617C272.905 318.146 272.443 319.843 271.123 321.276C270.765 321.713 270.263 322.46 269.927 323.278C269.621 324.021 269.467 324.782 269.632 325.418C269.664 325.54 269.608 325.674 269.49 325.721C269.372 325.768 269.238 325.711 269.203 325.589C268.975 324.795 269.176 323.894 269.502 323.104C269.86 322.232 270.391 321.443 270.772 320.98L270.776 320.975L270.781 320.97C272.012 319.635 272.449 318.051 272.491 316.604C272.534 315.152 272.18 313.85 271.845 313.103C271.833 313.077 271.826 313.049 271.825 313.02C271.75 311.45 272.138 309.845 272.645 308.483C273.153 307.12 273.787 305.986 274.221 305.353L274.222 305.351L274.223 305.35C275.334 303.781 275.734 301.865 275.774 300.093C275.814 298.321 275.494 296.714 275.19 295.784C275.185 295.767 275.181 295.749 275.18 295.73Z" fill="#4C53E6"/>
<path d="M275.85 286.686C276.512 286.644 277.44 285.924 277.821 285.569L279.359 285.661C278.658 287.06 279.477 287.984 279.975 288.272C280.519 288.798 280.105 288.966 279.829 288.983C278.996 289.139 276.855 288.239 275.888 287.769C274.841 287.377 275.427 286.884 275.85 286.686Z" fill="#4C53E6"/>
<path d="M306.2 272.855C301.113 281.665 294.289 286.071 286.25 286.829C280.258 287.394 274.226 284.665 270.897 279.652C266.402 272.883 265.362 264.366 268.169 255.559C273.711 243.374 286.717 237.368 297.219 242.144C307.72 246.92 311.742 260.67 306.2 272.855Z" fill="#5F65F6"/>
<path d="M275.057 265.535C274.464 252.778 284.272 244.903 289.251 242.56C283.638 243.458 279.451 246.054 278.06 247.24C269.687 253.654 268.898 263.262 269.55 267.264C270.471 271.642 275.234 269.352 275.057 265.535Z" fill="#555ADB"/>
<path d="M285.606 286.879C293.923 286.299 300.976 281.898 306.196 272.855C310.162 264.139 309.234 254.625 304.539 248.164C308.933 258.893 307.575 275.119 285.606 286.879Z" fill="#4C53E6"/>
<path d="M125.736 327.788C127.034 323.851 96.9294 306.876 80.3438 298.188C98.8644 310.237 113.32 323.064 118.233 327.971C120.246 330.246 122.183 330.089 123.458 329.404C124.275 328.966 125.446 328.668 125.736 327.788Z" stroke="black" stroke-width="0.058642"/>
<path d="M55.1162 295.006C57.508 291.822 59.1521 285.642 59.1521 285.642C59.1521 285.642 59.3992 291.308 58.0478 294.537C57.0975 296.808 55.2168 297.414 54.5569 299.785C54.0204 301.713 54.969 302.97 54.4737 304.909C54.1853 306.038 53.352 307.674 53.352 307.674L50.8756 307.228C50.8756 307.228 51.5277 305.911 51.847 305.028C52.8425 302.275 51.3201 300.108 52.8243 297.597C53.5185 296.438 54.3047 296.086 55.1162 295.006Z" fill="#F5D253"/>
<path d="M54.5127 290.341C55.9797 288.128 56.4795 283.833 56.4795 283.833L59.9596 284.54C59.9596 284.54 57.9834 291.003 55.0935 293.976C53.4238 295.694 51.6149 295.706 50.1396 297.594C48.4586 299.744 49.2552 301.881 47.7624 304.167C47.0979 305.184 45.8036 306.584 45.8036 306.584L43.1867 305.258C43.1867 305.258 44.3506 303.552 45.101 302.187C46.6611 299.348 47.2099 297.065 49.3687 294.65C51.1151 292.696 53.0647 292.525 54.5127 290.341Z" fill="#F5D253"/>
<path d="M56.2837 283.462C57.0613 283.043 58.1953 282.254 58.1953 282.254L59.0484 284.583C59.0484 284.583 57.871 285.365 57.0782 285.8C54.658 287.128 52.7692 286.729 50.4243 288.186C47.9262 289.738 47.7285 292.215 45.0783 293.49C43.4835 294.257 42.2927 293.866 40.6878 294.612C39.7819 295.033 39.4006 296.341 38.4924 295.925C38.0831 295.737 37.9129 295.485 37.6976 295.09C37.4204 294.581 37.3088 294.183 37.4634 293.624C37.7128 292.723 38.6609 292.784 39.4829 292.339C41.6287 291.178 43.3267 291.662 45.4308 290.427C47.8787 288.99 48.1033 286.698 50.561 285.278C52.5911 284.105 54.2188 284.573 56.2837 283.462Z" fill="#F5D253"/>
<path d="M58.0859 281.969L133.94 328.836L77.1421 368.877L58.0859 281.969Z" fill="#5F65F6"/>
<path d="M64.3035 310.298L62.2874 301.104L65.3858 286.477L69.7956 289.202L64.3035 310.298Z" fill="#4C53E6"/>
<path d="M70.4062 338.16L67.9719 327.058L79.8817 295.448L86.5944 299.595L70.4062 338.16Z" fill="#4C53E6"/>
<path d="M81.1019 366.08L77.1437 368.871L75.7357 362.449L96.7842 305.871L103.89 310.261L81.1019 366.08Z" fill="#4C53E6"/>
<path d="M114.369 316.736L121.136 320.917L111.478 344.024L103.084 346.808L114.369 316.736Z" fill="#4C53E6"/>
<path opacity="0.11" d="M83.2701 364.571L77.1497 368.886L64.25 310.055C71.7793 331.189 85.3574 358.616 98.5069 351.652L83.2701 364.571Z" fill="black"/>
<ellipse cx="105.564" cy="348.886" rx="34.8052" ry="4.41189" transform="rotate(-35.1936 105.564 348.886)" fill="#494DA5"/>
<path d="M118.158 345.054C128.451 337.016 135.092 330.37 134.009 328.835C133.196 327.683 128.206 329.665 121.1 333.689C125.476 332.845 129.22 333.575 118.158 345.054Z" fill="#363A8B"/>
<rect x="118" y="381.598" width="83.4354" height="60.4011" rx="2.55937" fill="#FFC561"/>
<path d="M128.108 383.773H131.764C132.347 383.773 132.476 384.593 131.921 384.772L128.438 385.896C125.267 386.919 123.117 389.871 123.117 393.203V410.711C123.117 411.453 122.515 412.054 121.773 412.054C121.031 412.054 120.43 411.453 120.43 410.711V391.452C120.43 387.211 123.867 383.773 128.108 383.773Z" fill="#FFE6B5"/>
<path d="M118 439.439C118 440.853 119.146 441.999 120.559 441.999H198.876C200.29 441.999 201.435 440.853 201.435 439.439V384.157C201.435 382.743 200.29 381.598 198.876 381.598V436.88C198.876 437.649 198.536 438.338 198 438.807C197.55 439.2 196.962 439.439 196.317 439.439H118Z" fill="#F79727"/>
<path fill-rule="evenodd" clip-rule="evenodd" d="M127.984 376.864C127.984 359.266 142.25 345 159.848 345C177.447 345 191.713 359.266 191.713 376.864V381.855H184.035V376.864C184.035 363.507 173.206 352.678 159.848 352.678C146.491 352.678 135.662 363.507 135.662 376.864V381.855H127.984V376.864Z" fill="#BAC8E3"/>
<path d="M131.07 367.864C130.687 363.591 137.384 356.643 140.78 353.703C137.52 357.181 134.307 364.262 133.108 367.367C132.149 369.106 131.07 368.61 131.07 367.864Z" fill="#D6DEED"/>
<path d="M136.069 355.652C141.703 350.619 149.138 347.559 157.288 347.559C174.885 347.559 189.152 361.826 189.152 379.423V381.855H191.711V376.864C191.711 359.266 177.445 345 159.847 345C150.395 345 141.903 349.115 136.069 355.652Z" fill="#879ECA"/>
<path d="M141.511 361.091C136.365 365.526 133.102 372.095 133.102 379.423V381.855H135.661V376.864C135.661 370.838 137.864 365.326 141.511 361.091Z" fill="#879ECA"/>
<path d="M162.843 414.713C165.266 413.259 166.886 410.607 166.886 407.576C166.886 402.982 163.163 399.258 158.568 399.258C153.973 399.258 150.25 402.982 150.25 407.576C150.25 410.709 151.982 413.437 154.541 414.856L153.833 426.899H163.559L162.843 414.713Z" fill="#FC9828"/>
<path d="M164.89 414.713C167.313 413.259 168.933 410.607 168.933 407.576C168.933 402.982 165.21 399.258 160.615 399.258C156.02 399.258 152.297 402.982 152.297 407.576C152.297 410.709 154.028 413.437 156.588 414.856L155.88 426.899H165.606L164.89 414.713Z" fill="#FFE6B5"/>
<path d="M163.866 414.713C166.29 413.259 167.909 410.607 167.909 407.576C167.909 402.982 164.186 399.258 159.591 399.258C154.997 399.258 151.273 402.982 151.273 407.576C151.273 410.709 153.005 413.437 155.564 414.856L154.857 426.899H164.582L163.866 414.713Z" fill="#493213"/>
<path d="M182.489 318.394L207.342 293.54L214.716 300.703L213.136 302.283L213.383 303.619C213.525 304.383 212.908 305.076 212.132 305.025L210.502 304.916L207.206 308.213C207.158 308.26 207.095 308.29 207.028 308.298L204.498 308.579C204.372 308.593 204.269 308.685 204.24 308.808L204.013 309.794C203.988 309.903 203.904 309.989 203.795 310.016L200.681 310.794C200.629 310.807 200.581 310.834 200.543 310.873L199.102 312.314C199.05 312.366 199.019 312.434 199.015 312.507L198.928 313.978C198.921 314.102 198.837 314.209 198.718 314.245L196.678 314.866C196.566 314.9 196.484 314.997 196.47 315.114L196.096 318.106C196.081 318.22 196.003 318.316 195.894 318.352L194.02 318.977C193.921 319.01 193.846 319.092 193.824 319.195L193.484 320.725C193.457 320.846 193.358 320.938 193.235 320.955L189.97 321.421C189.841 321.44 189.739 321.541 189.718 321.67L189.467 323.262C189.448 323.378 189.363 323.473 189.248 323.503L187.638 323.927C187.503 323.963 187.365 323.979 187.226 323.976L183.198 323.886C182.907 323.88 182.664 323.665 182.621 323.378L182.069 319.667C181.999 319.2 182.155 318.728 182.489 318.394Z" fill="#FFC561"/>
<path d="M187.715 323.905L187.632 323.927C187.497 323.964 187.358 323.979 187.22 323.976L183.191 323.887C183.157 323.886 183.123 323.882 183.091 323.876L210.023 296.152L212.785 298.835L200.876 310.744L200.674 310.795L200.616 310.816C200.587 310.83 200.56 310.849 200.537 310.872L199.095 312.314C199.043 312.367 199.012 312.435 199.009 312.507L199.003 312.617L196.79 314.83L196.671 314.867C196.56 314.9 196.477 314.998 196.462 315.115L196.456 315.164L190.238 321.382L189.964 321.421C189.835 321.44 189.732 321.541 189.712 321.669L189.667 321.953L187.715 323.905Z" fill="#FBB43A"/>
<path d="M205.332 295.543L206.069 296.28L185.425 316.925L184.688 316.188L205.332 295.543Z" fill="#FBB43A"/>
<circle cx="220.183" cy="288.062" r="14.8958" transform="rotate(-45 220.183 288.062)" fill="#F79727"/>
<path d="M205.508 285.528C206.011 282.598 207.392 279.795 209.653 277.534C215.471 271.716 224.902 271.717 230.719 277.534C233.585 280.4 235.04 284.143 235.083 287.898C234.346 289.998 233.135 291.971 231.457 293.649C225.464 299.642 215.75 299.641 209.759 293.649C207.46 291.35 206.042 288.504 205.508 285.528Z" fill="#FFC561"/>
<circle cx="224.617" cy="283.43" r="4.31978" transform="rotate(-45 224.617 283.43)" fill="#F79727"/>
<circle cx="224.61" cy="283.852" r="4.02187" transform="rotate(-45 224.61 283.852)" fill="white"/>
<path d="M204.588 427.056C200.147 429.113 192.798 430.038 189.68 430.244L190.194 433.431C198.581 432.606 204.584 431.101 207.529 430.129C208.457 429.823 209.401 429.566 210.33 429.266C214.695 427.862 215.612 424.491 215.487 422.841C215.24 417.165 210.449 414.718 208.084 414.204C200.599 412.559 198.042 416.946 197.699 419.345C197.288 426.254 202.121 427.365 204.588 427.056Z" fill="#F5D253"/>
<path d="M204.588 427.056C200.147 429.113 192.798 430.038 189.68 430.244L190.194 433.431C198.581 432.606 204.584 431.101 207.529 430.129C208.457 429.823 209.401 429.566 210.33 429.266C214.695 427.862 215.612 424.491 215.487 422.841C215.24 417.165 210.449 414.718 208.084 414.204C200.599 412.559 198.042 416.946 197.699 419.345C197.288 426.254 202.121 427.365 204.588 427.056ZM204.588 427.056C207.296 427.228 212.3 425.72 209.524 420.065C208.354 418.213 203.212 416.454 201.629 420.478C201.446 420.942 201.381 421.452 201.48 421.94C201.793 423.487 203.072 425.397 205.854 424.814C206.176 424.746 206.486 424.616 206.744 424.41C207.573 423.747 208.373 422.509 207.173 421.109C206.917 420.811 206.539 420.631 206.148 420.661C205.149 420.738 204.246 421.385 205.102 422.841" stroke="#3F3F3F" stroke-width="0.392861"/>
<rect x="173.336" y="432.387" width="17.2738" height="4.52398" rx="0.406187" transform="rotate(-8.95956 173.336 432.387)" fill="#494DA5"/>
<path d="M188.476 434.576L187.609 430.133L188.626 429.973L189.493 434.416L188.476 434.576Z" fill="#4C53E6"/>
<path d="M176.594 436.447L175.578 436.607L174.711 432.164L175.727 432.004L176.594 436.447Z" fill="#4C53E6"/>
<rect x="173.561" y="432.55" width="16.8809" height="4.13112" rx="0.209757" transform="rotate(-8.95956 173.561 432.55)" stroke="#3F3F3F" stroke-width="0.392861"/>
<path d="M89.4844 413.223H230.484V494.223C230.484 496.432 228.694 498.223 226.484 498.223H93.4844C91.2752 498.223 89.4844 496.432 89.4844 494.223V413.223Z" fill="#C5DCF3"/>
<rect x="151.484" y="413.223" width="18" height="85" fill="#99B7D5"/>
<path d="M219.484 365.578L237.99 354.894C239.591 353.969 241.638 354.518 242.563 356.119L315.796 482.962C316.72 484.563 316.171 486.61 314.57 487.535L296.065 498.219L219.484 365.578Z" fill="#C5DCF3"/>
<rect x="253.352" y="424.223" width="24.7159" height="17.7182" transform="rotate(-30 253.352 424.223)" fill="#99B7D5"/>
<path d="M270.355 399.256C275.02 405.64 278.028 415.216 278.948 419.206L286.926 433.632C295.274 439.525 299.203 446.83 301.965 452.661C310.252 467.7 324.063 461.562 328.36 457.572C338.918 447.014 328.667 435.985 322.222 431.791C307.981 421.969 290.098 422.174 282.936 423.504C297.177 412.455 299.101 396.188 298.282 389.435C294.599 374.948 282.221 375.214 276.493 377.158C264.216 383.051 267.285 394.346 270.355 399.256Z" fill="#99B7D5"/>
<path d="M293.003 380.009C286.748 378.997 277.913 379.703 276.841 387.936C276.582 389.929 277.213 391.902 277.871 393.801C279.19 397.601 280.579 403.013 280.466 407.69C280.422 409.486 280.11 411.259 279.797 413.033C279.622 414.026 279.448 415.018 279.32 416.015L278.92 419.135C278.925 419.159 278.931 419.182 278.936 419.206L285.277 430.672C289.031 431.103 295.126 432.918 298.884 437.929C302.669 443.146 312.45 453.029 321.289 450.819C324.754 449.805 329.279 445.023 324.801 433.706C323.91 432.967 323.029 432.323 322.21 431.79C307.969 421.969 290.086 422.174 282.924 423.504C297.165 412.454 299.089 396.187 298.27 389.435C297.162 385.076 295.267 382.053 293.003 380.009Z" fill="#C5DCF3"/>
<path d="M285.42 388.099C283.371 386.393 281.436 386.475 279.944 387.317C278.239 388.279 278.227 390.557 278.915 392.389C279.658 394.366 280.531 396.927 280.782 398.64C282.624 411.223 281.668 414.658 280.043 418.899C289.254 410.602 289.819 400.156 288.549 393.854C288.108 391.662 287.138 389.529 285.42 388.099Z" fill="white"/>
<path d="M320.525 442.702C321.841 446.474 320.186 448.333 317.959 448.96C316.372 449.407 314.811 448.476 313.717 447.243C312.001 445.309 309.329 442.426 307.416 440.957C295.245 431.617 291.18 430.322 285.936 429.107C299.88 426.164 311.457 432.809 317.137 437.899C318.615 439.224 319.872 440.828 320.525 442.702Z" fill="white"/>
<g opacity="0.05" filter="url(#filter2_f_3156_521)">
<ellipse cx="159.484" cy="515.735" rx="67" ry="5.51266" fill="black"/>
</g>
<g opacity="0.05" filter="url(#filter3_f_3156_521)">
<ellipse cx="300.031" cy="515.158" rx="32" ry="5.94286" fill="black"/>
</g>
<path d="M226 191.238L232.461 193.208L236.764 188.002L234.794 194.462L240 198.765L233.54 196.796L229.237 202.002L231.206 195.541L226 191.238Z" fill="#5CB1FF"/>
<path d="M227 246.238L233.461 248.208L237.764 243.002L235.794 249.462L241 253.765L234.54 251.796L230.237 257.002L232.206 250.541L227 246.238Z" fill="#5CB1FF"/>
<path d="M96.8672 245L99.0119 255.724L109.735 257.868L99.0119 260.013L96.8672 270.736L94.7225 260.013L83.999 257.868L94.7225 255.724L96.8672 245Z" fill="#5CB1FF"/>
<path d="M156.663 300.813C160.172 304.56 164.714 313.492 154.814 319.248C151.449 321.715 144.993 315.726 149.896 311.875C150.807 311.159 151.936 310.785 153.068 310.538C160.935 308.82 172.422 309.472 166.026 324.001" stroke="#5CB1FF" stroke-width="2" stroke-linecap="round" stroke-linejoin="round"/>
<path d="M317.029 324.443C311.181 318.672 299.401 309.207 298.609 330.915C299.096 337.45 308.831 337.72 307.762 329.354C307.707 325.287 303.171 320.165 293.867 322.365" stroke="#5CB1FF" stroke-width="2" stroke-linecap="round" stroke-linejoin="round"/>
<path fill-rule="evenodd" clip-rule="evenodd" d="M191.447 211.941C191.771 211.338 191.545 210.587 190.943 210.263C190.34 209.939 189.589 210.165 189.265 210.767C188.941 211.37 189.167 212.121 189.769 212.445C190.372 212.769 191.123 212.544 191.447 211.941ZM192.538 212.528C193.186 211.322 192.735 209.82 191.529 209.172C190.324 208.524 188.821 208.975 188.173 210.181C187.525 211.386 187.977 212.889 189.183 213.537C190.388 214.185 191.89 213.733 192.538 212.528Z" fill="#5CB1FF"/>
<path fill-rule="evenodd" clip-rule="evenodd" d="M112.737 224.444C112.178 224.839 112.046 225.613 112.441 226.171C112.836 226.73 113.609 226.862 114.168 226.467C114.726 226.072 114.859 225.298 114.464 224.74C114.068 224.181 113.295 224.049 112.737 224.444ZM112.021 223.433C110.904 224.223 110.639 225.77 111.429 226.887C112.22 228.004 113.766 228.269 114.883 227.478C116.001 226.688 116.265 225.141 115.475 224.024C114.684 222.907 113.138 222.642 112.021 223.433Z" fill="#5CB1FF"/>
<path opacity="0.3" d="M245.541 310.802C244.809 309.713 245.596 308.25 246.908 308.26C247.413 308.264 247.892 308.033 248.204 307.635C249.013 306.602 250.649 306.898 251.044 308.149C251.197 308.631 251.564 309.016 252.039 309.189C253.272 309.64 253.495 311.286 252.428 312.049C252.016 312.343 251.765 312.811 251.746 313.317C251.699 314.628 250.202 315.349 249.147 314.57C248.74 314.27 248.216 314.175 247.73 314.314C246.468 314.673 245.32 313.473 245.735 312.228C245.895 311.749 245.823 311.222 245.541 310.802Z" fill="#5CB1FF"/>
<path opacity="0.3" d="M300.541 216.802C299.809 215.713 300.596 214.25 301.908 214.26C302.413 214.264 302.892 214.033 303.204 213.635C304.013 212.602 305.649 212.898 306.044 214.149C306.197 214.631 306.564 215.016 307.039 215.189C308.272 215.64 308.495 217.286 307.428 218.049C307.016 218.343 306.765 218.811 306.746 219.317C306.699 220.628 305.202 221.349 304.147 220.57C303.74 220.27 303.216 220.175 302.73 220.314C301.468 220.673 300.32 219.473 300.735 218.228C300.895 217.749 300.823 217.222 300.541 216.802Z" fill="#5CB1FF"/>
<path opacity="0.3" d="M129.323 256.075C129.493 257.376 128.137 258.336 126.967 257.742C126.516 257.513 125.984 257.507 125.527 257.724C124.343 258.288 123.011 257.295 123.214 255.999C123.292 255.499 123.134 254.991 122.786 254.624C121.884 253.672 122.417 252.098 123.712 251.891C124.212 251.811 124.646 251.504 124.888 251.059C125.514 249.907 127.176 249.928 127.773 251.095C128.004 251.546 128.43 251.864 128.927 251.956C130.217 252.196 130.711 253.783 129.785 254.712C129.428 255.07 129.257 255.574 129.323 256.075Z" fill="#5CB1FF"/>
<path opacity="0.3" d="M150.323 210.075C150.493 211.376 149.137 212.336 147.967 211.742C147.516 211.513 146.984 211.507 146.527 211.724C145.343 212.288 144.011 211.295 144.214 209.999C144.292 209.499 144.134 208.991 143.786 208.624C142.884 207.672 143.417 206.098 144.712 205.891C145.212 205.811 145.646 205.504 145.888 205.059C146.514 203.907 148.176 203.928 148.773 205.095C149.004 205.546 149.43 205.864 149.927 205.956C151.217 206.196 151.711 207.783 150.785 208.712C150.428 209.07 150.257 209.574 150.323 210.075Z" fill="#5CB1FF"/>
<path d="M166.752 280.546C168.488 279.82 168.437 278.105 168.195 277.338C166.95 278.862 165.328 278.863 164.673 278.673C162.205 278.024 161.363 275.105 161.25 273.727C161.153 275.305 161.791 277.326 162.123 278.139C163.587 280.891 165.819 280.891 166.752 280.546Z" fill="#4C53E6"/>
<path d="M163.624 271.342C167.311 272.083 167.686 270.853 167.413 270.145L165.454 269.127C162.107 269.648 159.783 267.272 159.04 266.018C158.066 268.588 162.292 271.075 163.624 271.342Z" fill="#4C53E6"/>
<path d="M158.152 262.726C165.819 266.079 168.802 263.852 169.335 262.32L168.092 261.447C165.193 263.315 156.987 262.412 156.243 258.566C155.668 260.891 157.276 262.308 158.152 262.726Z" fill="#4C53E6"/>
<path d="M165.506 257.281C168.349 256.86 168.402 254.829 168.073 253.866C166.823 256.27 156.41 256.284 155.573 252.456C154.38 256.925 161.105 257.934 165.506 257.281Z" fill="#4C53E6"/>
<path d="M168.197 277.341L167.965 276.33C167.744 275.362 167.038 274.578 166.099 274.255C165.904 274.189 165.705 274.342 165.719 274.547L165.771 275.297C165.805 275.783 166.294 276.157 166.747 276.336C167.338 276.569 167.907 277.042 168.197 277.341Z" fill="#5F65F6"/>
<path d="M169.329 262.323C163.486 259.466 160.002 263.657 158.991 266.109C158.429 265.275 158.662 264.204 158.849 263.773C160.382 260.045 163.877 259.283 166.604 259.463C168.094 259.562 169.134 260.843 169.329 262.323Z" fill="#5F65F6"/>
<path d="M167.449 270.285C163.645 267.855 161.757 271.661 161.288 273.868C161.056 272.571 161.256 271.175 161.385 270.638C162.124 268.276 163.841 267.744 165.336 267.861C166.545 267.955 167.301 269.082 167.449 270.285Z" fill="#5F65F6"/>
<path d="M168.082 253.869C160.721 250.381 156.217 256.635 156.244 258.798C155.176 251.909 163.325 250.378 165.699 251.046C168.243 251.577 168.243 253.048 168.082 253.869Z" fill="#5F65F6"/>
<path d="M158.738 248.105L158.411 246.125C154.519 249.259 155.045 251.727 155.53 252.318C155.797 249.63 157.847 248.66 158.738 248.105Z" fill="#5F65F6"/>
</g>
<defs>
<filter id="filter0_f_3156_521" x="-61.9446" y="-30.1086" width="277.92" height="124.35" filterUnits="userSpaceOnUse" color-interpolation-filters="sRGB">
<feFlood flood-opacity="0" result="BackgroundImageFix"/>
<feBlend mode="normal" in="SourceGraphic" in2="BackgroundImageFix" result="shape"/>
<feGaussianBlur stdDeviation="0.429307" result="effect1_foregroundBlur_3156_521"/>
</filter>
<filter id="filter1_f_3156_521" x="138.079" y="-17.1906" width="266.116" height="147.377" filterUnits="userSpaceOnUse" color-interpolation-filters="sRGB">
<feFlood flood-opacity="0" result="BackgroundImageFix"/>
<feBlend mode="normal" in="SourceGraphic" in2="BackgroundImageFix" result="shape"/>
<feGaussianBlur stdDeviation="0.429307" result="effect1_foregroundBlur_3156_521"/>
</filter>
<filter id="filter2_f_3156_521" x="87.8895" y="505.628" width="143.19" height="20.2132" filterUnits="userSpaceOnUse" color-interpolation-filters="sRGB">
<feFlood flood-opacity="0" result="BackgroundImageFix"/>
<feBlend mode="normal" in="SourceGraphic" in2="BackgroundImageFix" result="shape"/>
<feGaussianBlur stdDeviation="2.29744" result="effect1_foregroundBlur_3156_521"/>
</filter>
<filter id="filter3_f_3156_521" x="263.078" y="504.261" width="73.9069" height="21.7937" filterUnits="userSpaceOnUse" color-interpolation-filters="sRGB">
<feFlood flood-opacity="0" result="BackgroundImageFix"/>
<feBlend mode="normal" in="SourceGraphic" in2="BackgroundImageFix" result="shape"/>
<feGaussianBlur stdDeviation="2.47673" result="effect1_foregroundBlur_3156_521"/>
</filter>
<clipPath id="clip0_3156_521">
<rect width="380" height="580" fill="white"/>
</clipPath>
</defs>
</svg>
